<?xml version="1.0" encoding="utf-8" standalone="no"?>
<!DOCTYPE svg PUBLIC "-//W3C//DTD SVG 1.1//EN"
  "http://www.w3.org/Graphics/SVG/1.1/DTD/svg11.dtd">
<!-- Created with matplotlib (https://matplotlib.org/) -->
<svg height="432pt" version="1.1" viewBox="0 0 691.2 432" width="691.2pt" xmlns="http://www.w3.org/2000/svg" xmlns:xlink="http://www.w3.org/1999/xlink">
 <defs>
  <style type="text/css">
*{stroke-linecap:butt;stroke-linejoin:round;}
  </style>
 </defs>
 <g id="figure_1">
  <g id="patch_1">
   <path d="M 0 432 
L 691.2 432 
L 691.2 0 
L 0 0 
z
" style="fill:#ffffff;"/>
  </g>
  <g id="axes_1">
   <g id="patch_2">
    <path d="M 57.131 334.744 
L 201.39225 334.744 
L 201.39225 43.2 
L 57.131 43.2 
z
" style="fill:#eaeaf2;"/>
   </g>
   <g id="matplotlib.axis_1">
    <g id="xtick_1">
     <g id="text_1">
      <!--   kmeans -->
      <defs>
       <path id="DejaVuSans-32"/>
       <path d="M 9.078125 75.984375 
L 18.109375 75.984375 
L 18.109375 31.109375 
L 44.921875 54.6875 
L 56.390625 54.6875 
L 27.390625 29.109375 
L 57.625 0 
L 45.90625 0 
L 18.109375 26.703125 
L 18.109375 0 
L 9.078125 0 
z
" id="DejaVuSans-107"/>
       <path d="M 52 44.1875 
Q 55.375 50.25 60.0625 53.125 
Q 64.75 56 71.09375 56 
Q 79.640625 56 84.28125 50.015625 
Q 88.921875 44.046875 88.921875 33.015625 
L 88.921875 0 
L 79.890625 0 
L 79.890625 32.71875 
Q 79.890625 40.578125 77.09375 44.375 
Q 74.3125 48.1875 68.609375 48.1875 
Q 61.625 48.1875 57.5625 43.546875 
Q 53.515625 38.921875 53.515625 30.90625 
L 53.515625 0 
L 44.484375 0 
L 44.484375 32.71875 
Q 44.484375 40.625 41.703125 44.40625 
Q 38.921875 48.1875 33.109375 48.1875 
Q 26.21875 48.1875 22.15625 43.53125 
Q 18.109375 38.875 18.109375 30.90625 
L 18.109375 0 
L 9.078125 0 
L 9.078125 54.6875 
L 18.109375 54.6875 
L 18.109375 46.1875 
Q 21.1875 51.21875 25.484375 53.609375 
Q 29.78125 56 35.6875 56 
Q 41.65625 56 45.828125 52.96875 
Q 50 49.953125 52 44.1875 
z
" id="DejaVuSans-109"/>
       <path d="M 56.203125 29.59375 
L 56.203125 25.203125 
L 14.890625 25.203125 
Q 15.484375 15.921875 20.484375 11.0625 
Q 25.484375 6.203125 34.421875 6.203125 
Q 39.59375 6.203125 44.453125 7.46875 
Q 49.3125 8.734375 54.109375 11.28125 
L 54.109375 2.78125 
Q 49.265625 0.734375 44.1875 -0.34375 
Q 39.109375 -1.421875 33.890625 -1.421875 
Q 20.796875 -1.421875 13.15625 6.1875 
Q 5.515625 13.8125 5.515625 26.8125 
Q 5.515625 40.234375 12.765625 48.109375 
Q 20.015625 56 32.328125 56 
Q 43.359375 56 49.78125 48.890625 
Q 56.203125 41.796875 56.203125 29.59375 
z
M 47.21875 32.234375 
Q 47.125 39.59375 43.09375 43.984375 
Q 39.0625 48.390625 32.421875 48.390625 
Q 24.90625 48.390625 20.390625 44.140625 
Q 15.875 39.890625 15.1875 32.171875 
z
" id="DejaVuSans-101"/>
       <path d="M 34.28125 27.484375 
Q 23.390625 27.484375 19.1875 25 
Q 14.984375 22.515625 14.984375 16.5 
Q 14.984375 11.71875 18.140625 8.90625 
Q 21.296875 6.109375 26.703125 6.109375 
Q 34.1875 6.109375 38.703125 11.40625 
Q 43.21875 16.703125 43.21875 25.484375 
L 43.21875 27.484375 
z
M 52.203125 31.203125 
L 52.203125 0 
L 43.21875 0 
L 43.21875 8.296875 
Q 40.140625 3.328125 35.546875 0.953125 
Q 30.953125 -1.421875 24.3125 -1.421875 
Q 15.921875 -1.421875 10.953125 3.296875 
Q 6 8.015625 6 15.921875 
Q 6 25.140625 12.171875 29.828125 
Q 18.359375 34.515625 30.609375 34.515625 
L 43.21875 34.515625 
L 43.21875 35.40625 
Q 43.21875 41.609375 39.140625 45 
Q 35.0625 48.390625 27.6875 48.390625 
Q 23 48.390625 18.546875 47.265625 
Q 14.109375 46.140625 10.015625 43.890625 
L 10.015625 52.203125 
Q 14.9375 54.109375 19.578125 55.046875 
Q 24.21875 56 28.609375 56 
Q 40.484375 56 46.34375 49.84375 
Q 52.203125 43.703125 52.203125 31.203125 
z
" id="DejaVuSans-97"/>
       <path d="M 54.890625 33.015625 
L 54.890625 0 
L 45.90625 0 
L 45.90625 32.71875 
Q 45.90625 40.484375 42.875 44.328125 
Q 39.84375 48.1875 33.796875 48.1875 
Q 26.515625 48.1875 22.3125 43.546875 
Q 18.109375 38.921875 18.109375 30.90625 
L 18.109375 0 
L 9.078125 0 
L 9.078125 54.6875 
L 18.109375 54.6875 
L 18.109375 46.1875 
Q 21.34375 51.125 25.703125 53.5625 
Q 30.078125 56 35.796875 56 
Q 45.21875 56 50.046875 50.171875 
Q 54.890625 44.34375 54.890625 33.015625 
z
" id="DejaVuSans-110"/>
       <path d="M 44.28125 53.078125 
L 44.28125 44.578125 
Q 40.484375 46.53125 36.375 47.5 
Q 32.28125 48.484375 27.875 48.484375 
Q 21.1875 48.484375 17.84375 46.4375 
Q 14.5 44.390625 14.5 40.28125 
Q 14.5 37.15625 16.890625 35.375 
Q 19.28125 33.59375 26.515625 31.984375 
L 29.59375 31.296875 
Q 39.15625 29.25 43.1875 25.515625 
Q 47.21875 21.78125 47.21875 15.09375 
Q 47.21875 7.46875 41.1875 3.015625 
Q 35.15625 -1.421875 24.609375 -1.421875 
Q 20.21875 -1.421875 15.453125 -0.5625 
Q 10.6875 0.296875 5.421875 2 
L 5.421875 11.28125 
Q 10.40625 8.6875 15.234375 7.390625 
Q 20.0625 6.109375 24.8125 6.109375 
Q 31.15625 6.109375 34.5625 8.28125 
Q 37.984375 10.453125 37.984375 14.40625 
Q 37.984375 18.0625 35.515625 20.015625 
Q 33.0625 21.96875 24.703125 23.78125 
L 21.578125 24.515625 
Q 13.234375 26.265625 9.515625 29.90625 
Q 5.8125 33.546875 5.8125 39.890625 
Q 5.8125 47.609375 11.28125 51.796875 
Q 16.75 56 26.8125 56 
Q 31.78125 56 36.171875 55.265625 
Q 40.578125 54.546875 44.28125 53.078125 
z
" id="DejaVuSans-115"/>
      </defs>
      <g style="fill:#262626;" transform="translate(84.513385 399.559906)rotate(-90)scale(0.121 -0.121)">
       <use xlink:href="#DejaVuSans-32"/>
       <use x="31.787109" xlink:href="#DejaVuSans-32"/>
       <use x="63.574219" xlink:href="#DejaVuSans-107"/>
       <use x="121.484375" xlink:href="#DejaVuSans-109"/>
       <use x="218.896484" xlink:href="#DejaVuSans-101"/>
       <use x="280.419922" xlink:href="#DejaVuSans-97"/>
       <use x="341.699219" xlink:href="#DejaVuSans-110"/>
       <use x="405.078125" xlink:href="#DejaVuSans-115"/>
      </g>
     </g>
    </g>
    <g id="xtick_2">
     <g id="text_2">
      <!--    metis -->
      <defs>
       <path d="M 18.3125 70.21875 
L 18.3125 54.6875 
L 36.8125 54.6875 
L 36.8125 47.703125 
L 18.3125 47.703125 
L 18.3125 18.015625 
Q 18.3125 11.328125 20.140625 9.421875 
Q 21.96875 7.515625 27.59375 7.515625 
L 36.8125 7.515625 
L 36.8125 0 
L 27.59375 0 
Q 17.1875 0 13.234375 3.875 
Q 9.28125 7.765625 9.28125 18.015625 
L 9.28125 47.703125 
L 2.6875 47.703125 
L 2.6875 54.6875 
L 9.28125 54.6875 
L 9.28125 70.21875 
z
" id="DejaVuSans-116"/>
       <path d="M 9.421875 54.6875 
L 18.40625 54.6875 
L 18.40625 0 
L 9.421875 0 
z
M 9.421875 75.984375 
L 18.40625 75.984375 
L 18.40625 64.59375 
L 9.421875 64.59375 
z
" id="DejaVuSans-105"/>
      </defs>
      <g style="fill:#262626;" transform="translate(132.600469 389.420484)rotate(-90)scale(0.121 -0.121)">
       <use xlink:href="#DejaVuSans-32"/>
       <use x="31.787109" xlink:href="#DejaVuSans-32"/>
       <use x="63.574219" xlink:href="#DejaVuSans-32"/>
       <use x="95.361328" xlink:href="#DejaVuSans-109"/>
       <use x="192.773438" xlink:href="#DejaVuSans-101"/>
       <use x="254.296875" xlink:href="#DejaVuSans-116"/>
       <use x="293.505859" xlink:href="#DejaVuSans-105"/>
       <use x="321.289062" xlink:href="#DejaVuSans-115"/>
      </g>
     </g>
    </g>
    <g id="xtick_3">
     <g id="text_3">
      <!--      hub -->
      <defs>
       <path d="M 54.890625 33.015625 
L 54.890625 0 
L 45.90625 0 
L 45.90625 32.71875 
Q 45.90625 40.484375 42.875 44.328125 
Q 39.84375 48.1875 33.796875 48.1875 
Q 26.515625 48.1875 22.3125 43.546875 
Q 18.109375 38.921875 18.109375 30.90625 
L 18.109375 0 
L 9.078125 0 
L 9.078125 75.984375 
L 18.109375 75.984375 
L 18.109375 46.1875 
Q 21.34375 51.125 25.703125 53.5625 
Q 30.078125 56 35.796875 56 
Q 45.21875 56 50.046875 50.171875 
Q 54.890625 44.34375 54.890625 33.015625 
z
" id="DejaVuSans-104"/>
       <path d="M 8.5 21.578125 
L 8.5 54.6875 
L 17.484375 54.6875 
L 17.484375 21.921875 
Q 17.484375 14.15625 20.5 10.265625 
Q 23.53125 6.390625 29.59375 6.390625 
Q 36.859375 6.390625 41.078125 11.03125 
Q 45.3125 15.671875 45.3125 23.6875 
L 45.3125 54.6875 
L 54.296875 54.6875 
L 54.296875 0 
L 45.3125 0 
L 45.3125 8.40625 
Q 42.046875 3.421875 37.71875 1 
Q 33.40625 -1.421875 27.6875 -1.421875 
Q 18.265625 -1.421875 13.375 4.4375 
Q 8.5 10.296875 8.5 21.578125 
z
M 31.109375 56 
z
" id="DejaVuSans-117"/>
       <path d="M 48.6875 27.296875 
Q 48.6875 37.203125 44.609375 42.84375 
Q 40.53125 48.484375 33.40625 48.484375 
Q 26.265625 48.484375 22.1875 42.84375 
Q 18.109375 37.203125 18.109375 27.296875 
Q 18.109375 17.390625 22.1875 11.75 
Q 26.265625 6.109375 33.40625 6.109375 
Q 40.53125 6.109375 44.609375 11.75 
Q 48.6875 17.390625 48.6875 27.296875 
z
M 18.109375 46.390625 
Q 20.953125 51.265625 25.265625 53.625 
Q 29.59375 56 35.59375 56 
Q 45.5625 56 51.78125 48.09375 
Q 58.015625 40.1875 58.015625 27.296875 
Q 58.015625 14.40625 51.78125 6.484375 
Q 45.5625 -1.421875 35.59375 -1.421875 
Q 29.59375 -1.421875 25.265625 0.953125 
Q 20.953125 3.328125 18.109375 8.203125 
L 18.109375 0 
L 9.078125 0 
L 9.078125 75.984375 
L 18.109375 75.984375 
z
" id="DejaVuSans-98"/>
      </defs>
      <g style="fill:#262626;" transform="translate(180.687552 386.490016)rotate(-90)scale(0.121 -0.121)">
       <use xlink:href="#DejaVuSans-32"/>
       <use x="31.787109" xlink:href="#DejaVuSans-32"/>
       <use x="63.574219" xlink:href="#DejaVuSans-32"/>
       <use x="95.361328" xlink:href="#DejaVuSans-32"/>
       <use x="127.148438" xlink:href="#DejaVuSans-32"/>
       <use x="158.935547" xlink:href="#DejaVuSans-104"/>
       <use x="222.314453" xlink:href="#DejaVuSans-117"/>
       <use x="285.693359" xlink:href="#DejaVuSans-98"/>
      </g>
     </g>
    </g>
    <g id="text_4">
     <!-- Method -->
     <defs>
      <path d="M 9.8125 72.90625 
L 24.515625 72.90625 
L 43.109375 23.296875 
L 61.8125 72.90625 
L 76.515625 72.90625 
L 76.515625 0 
L 66.890625 0 
L 66.890625 64.015625 
L 48.09375 14.015625 
L 38.1875 14.015625 
L 19.390625 64.015625 
L 19.390625 0 
L 9.8125 0 
z
" id="DejaVuSans-77"/>
      <path d="M 30.609375 48.390625 
Q 23.390625 48.390625 19.1875 42.75 
Q 14.984375 37.109375 14.984375 27.296875 
Q 14.984375 17.484375 19.15625 11.84375 
Q 23.34375 6.203125 30.609375 6.203125 
Q 37.796875 6.203125 41.984375 11.859375 
Q 46.1875 17.53125 46.1875 27.296875 
Q 46.1875 37.015625 41.984375 42.703125 
Q 37.796875 48.390625 30.609375 48.390625 
z
M 30.609375 56 
Q 42.328125 56 49.015625 48.375 
Q 55.71875 40.765625 55.71875 27.296875 
Q 55.71875 13.875 49.015625 6.21875 
Q 42.328125 -1.421875 30.609375 -1.421875 
Q 18.84375 -1.421875 12.171875 6.21875 
Q 5.515625 13.875 5.515625 27.296875 
Q 5.515625 40.765625 12.171875 48.375 
Q 18.84375 56 30.609375 56 
z
" id="DejaVuSans-111"/>
      <path d="M 45.40625 46.390625 
L 45.40625 75.984375 
L 54.390625 75.984375 
L 54.390625 0 
L 45.40625 0 
L 45.40625 8.203125 
Q 42.578125 3.328125 38.25 0.953125 
Q 33.9375 -1.421875 27.875 -1.421875 
Q 17.96875 -1.421875 11.734375 6.484375 
Q 5.515625 14.40625 5.515625 27.296875 
Q 5.515625 40.1875 11.734375 48.09375 
Q 17.96875 56 27.875 56 
Q 33.9375 56 38.25 53.625 
Q 42.578125 51.265625 45.40625 46.390625 
z
M 14.796875 27.296875 
Q 14.796875 17.390625 18.875 11.75 
Q 22.953125 6.109375 30.078125 6.109375 
Q 37.203125 6.109375 41.296875 11.75 
Q 45.40625 17.390625 45.40625 27.296875 
Q 45.40625 37.203125 41.296875 42.84375 
Q 37.203125 48.484375 30.078125 48.484375 
Q 22.953125 48.484375 18.875 42.84375 
Q 14.796875 37.203125 14.796875 27.296875 
z
" id="DejaVuSans-100"/>
     </defs>
     <g style="fill:#262626;" transform="translate(104.5075 413.589844)scale(0.132 -0.132)">
      <use xlink:href="#DejaVuSans-77"/>
      <use x="86.279297" xlink:href="#DejaVuSans-101"/>
      <use x="147.802734" xlink:href="#DejaVuSans-116"/>
      <use x="187.011719" xlink:href="#DejaVuSans-104"/>
      <use x="250.390625" xlink:href="#DejaVuSans-111"/>
      <use x="311.572266" xlink:href="#DejaVuSans-100"/>
     </g>
    </g>
   </g>
   <g id="matplotlib.axis_2">
    <g id="ytick_1">
     <g id="line2d_1">
      <path clip-path="url(#p1013ae0e98)" d="M 57.131 291.810112 
L 201.39225 291.810112 
" style="fill:none;stroke:#ffffff;stroke-linecap:round;"/>
     </g>
     <g id="text_5">
      <!-- 20 -->
      <defs>
       <path d="M 19.1875 8.296875 
L 53.609375 8.296875 
L 53.609375 0 
L 7.328125 0 
L 7.328125 8.296875 
Q 12.9375 14.109375 22.625 23.890625 
Q 32.328125 33.6875 34.8125 36.53125 
Q 39.546875 41.84375 41.421875 45.53125 
Q 43.3125 49.21875 43.3125 52.78125 
Q 43.3125 58.59375 39.234375 62.25 
Q 35.15625 65.921875 28.609375 65.921875 
Q 23.96875 65.921875 18.8125 64.3125 
Q 13.671875 62.703125 7.8125 59.421875 
L 7.8125 69.390625 
Q 13.765625 71.78125 18.9375 73 
Q 24.125 74.21875 28.421875 74.21875 
Q 39.75 74.21875 46.484375 68.546875 
Q 53.21875 62.890625 53.21875 53.421875 
Q 53.21875 48.921875 51.53125 44.890625 
Q 49.859375 40.875 45.40625 35.40625 
Q 44.1875 33.984375 37.640625 27.21875 
Q 31.109375 20.453125 19.1875 8.296875 
z
" id="DejaVuSans-50"/>
       <path d="M 31.78125 66.40625 
Q 24.171875 66.40625 20.328125 58.90625 
Q 16.5 51.421875 16.5 36.375 
Q 16.5 21.390625 20.328125 13.890625 
Q 24.171875 6.390625 31.78125 6.390625 
Q 39.453125 6.390625 43.28125 13.890625 
Q 47.125 21.390625 47.125 36.375 
Q 47.125 51.421875 43.28125 58.90625 
Q 39.453125 66.40625 31.78125 66.40625 
z
M 31.78125 74.21875 
Q 44.046875 74.21875 50.515625 64.515625 
Q 56.984375 54.828125 56.984375 36.375 
Q 56.984375 17.96875 50.515625 8.265625 
Q 44.046875 -1.421875 31.78125 -1.421875 
Q 19.53125 -1.421875 13.0625 8.265625 
Q 6.59375 17.96875 6.59375 36.375 
Q 6.59375 54.828125 13.0625 64.515625 
Q 19.53125 74.21875 31.78125 74.21875 
z
" id="DejaVuSans-48"/>
      </defs>
      <g style="fill:#262626;" transform="translate(32.23375 296.407167)scale(0.121 -0.121)">
       <use xlink:href="#DejaVuSans-50"/>
       <use x="63.623047" xlink:href="#DejaVuSans-48"/>
      </g>
     </g>
    </g>
    <g id="ytick_2">
     <g id="line2d_2">
      <path clip-path="url(#p1013ae0e98)" d="M 57.131 236.522251 
L 201.39225 236.522251 
" style="fill:none;stroke:#ffffff;stroke-linecap:round;"/>
     </g>
     <g id="text_6">
      <!-- 30 -->
      <defs>
       <path d="M 40.578125 39.3125 
Q 47.65625 37.796875 51.625 33 
Q 55.609375 28.21875 55.609375 21.1875 
Q 55.609375 10.40625 48.1875 4.484375 
Q 40.765625 -1.421875 27.09375 -1.421875 
Q 22.515625 -1.421875 17.65625 -0.515625 
Q 12.796875 0.390625 7.625 2.203125 
L 7.625 11.71875 
Q 11.71875 9.328125 16.59375 8.109375 
Q 21.484375 6.890625 26.8125 6.890625 
Q 36.078125 6.890625 40.9375 10.546875 
Q 45.796875 14.203125 45.796875 21.1875 
Q 45.796875 27.640625 41.28125 31.265625 
Q 36.765625 34.90625 28.71875 34.90625 
L 20.21875 34.90625 
L 20.21875 43.015625 
L 29.109375 43.015625 
Q 36.375 43.015625 40.234375 45.921875 
Q 44.09375 48.828125 44.09375 54.296875 
Q 44.09375 59.90625 40.109375 62.90625 
Q 36.140625 65.921875 28.71875 65.921875 
Q 24.65625 65.921875 20.015625 65.03125 
Q 15.375 64.15625 9.8125 62.3125 
L 9.8125 71.09375 
Q 15.4375 72.65625 20.34375 73.4375 
Q 25.25 74.21875 29.59375 74.21875 
Q 40.828125 74.21875 47.359375 69.109375 
Q 53.90625 64.015625 53.90625 55.328125 
Q 53.90625 49.265625 50.4375 45.09375 
Q 46.96875 40.921875 40.578125 39.3125 
z
" id="DejaVuSans-51"/>
      </defs>
      <g style="fill:#262626;" transform="translate(32.23375 241.119306)scale(0.121 -0.121)">
       <use xlink:href="#DejaVuSans-51"/>
       <use x="63.623047" xlink:href="#DejaVuSans-48"/>
      </g>
     </g>
    </g>
    <g id="ytick_3">
     <g id="line2d_3">
      <path clip-path="url(#p1013ae0e98)" d="M 57.131 181.234391 
L 201.39225 181.234391 
" style="fill:none;stroke:#ffffff;stroke-linecap:round;"/>
     </g>
     <g id="text_7">
      <!-- 40 -->
      <defs>
       <path d="M 37.796875 64.3125 
L 12.890625 25.390625 
L 37.796875 25.390625 
z
M 35.203125 72.90625 
L 47.609375 72.90625 
L 47.609375 25.390625 
L 58.015625 25.390625 
L 58.015625 17.1875 
L 47.609375 17.1875 
L 47.609375 0 
L 37.796875 0 
L 37.796875 17.1875 
L 4.890625 17.1875 
L 4.890625 26.703125 
z
" id="DejaVuSans-52"/>
      </defs>
      <g style="fill:#262626;" transform="translate(32.23375 185.831445)scale(0.121 -0.121)">
       <use xlink:href="#DejaVuSans-52"/>
       <use x="63.623047" xlink:href="#DejaVuSans-48"/>
      </g>
     </g>
    </g>
    <g id="ytick_4">
     <g id="line2d_4">
      <path clip-path="url(#p1013ae0e98)" d="M 57.131 125.94653 
L 201.39225 125.94653 
" style="fill:none;stroke:#ffffff;stroke-linecap:round;"/>
     </g>
     <g id="text_8">
      <!-- 50 -->
      <defs>
       <path d="M 10.796875 72.90625 
L 49.515625 72.90625 
L 49.515625 64.59375 
L 19.828125 64.59375 
L 19.828125 46.734375 
Q 21.96875 47.46875 24.109375 47.828125 
Q 26.265625 48.1875 28.421875 48.1875 
Q 40.625 48.1875 47.75 41.5 
Q 54.890625 34.8125 54.890625 23.390625 
Q 54.890625 11.625 47.5625 5.09375 
Q 40.234375 -1.421875 26.90625 -1.421875 
Q 22.3125 -1.421875 17.546875 -0.640625 
Q 12.796875 0.140625 7.71875 1.703125 
L 7.71875 11.625 
Q 12.109375 9.234375 16.796875 8.0625 
Q 21.484375 6.890625 26.703125 6.890625 
Q 35.15625 6.890625 40.078125 11.328125 
Q 45.015625 15.765625 45.015625 23.390625 
Q 45.015625 31 40.078125 35.4375 
Q 35.15625 39.890625 26.703125 39.890625 
Q 22.75 39.890625 18.8125 39.015625 
Q 14.890625 38.140625 10.796875 36.28125 
z
" id="DejaVuSans-53"/>
      </defs>
      <g style="fill:#262626;" transform="translate(32.23375 130.543584)scale(0.121 -0.121)">
       <use xlink:href="#DejaVuSans-53"/>
       <use x="63.623047" xlink:href="#DejaVuSans-48"/>
      </g>
     </g>
    </g>
    <g id="ytick_5">
     <g id="line2d_5">
      <path clip-path="url(#p1013ae0e98)" d="M 57.131 70.658669 
L 201.39225 70.658669 
" style="fill:none;stroke:#ffffff;stroke-linecap:round;"/>
     </g>
     <g id="text_9">
      <!-- 60 -->
      <defs>
       <path d="M 33.015625 40.375 
Q 26.375 40.375 22.484375 35.828125 
Q 18.609375 31.296875 18.609375 23.390625 
Q 18.609375 15.53125 22.484375 10.953125 
Q 26.375 6.390625 33.015625 6.390625 
Q 39.65625 6.390625 43.53125 10.953125 
Q 47.40625 15.53125 47.40625 23.390625 
Q 47.40625 31.296875 43.53125 35.828125 
Q 39.65625 40.375 33.015625 40.375 
z
M 52.59375 71.296875 
L 52.59375 62.3125 
Q 48.875 64.0625 45.09375 64.984375 
Q 41.3125 65.921875 37.59375 65.921875 
Q 27.828125 65.921875 22.671875 59.328125 
Q 17.53125 52.734375 16.796875 39.40625 
Q 19.671875 43.65625 24.015625 45.921875 
Q 28.375 48.1875 33.59375 48.1875 
Q 44.578125 48.1875 50.953125 41.515625 
Q 57.328125 34.859375 57.328125 23.390625 
Q 57.328125 12.15625 50.6875 5.359375 
Q 44.046875 -1.421875 33.015625 -1.421875 
Q 20.359375 -1.421875 13.671875 8.265625 
Q 6.984375 17.96875 6.984375 36.375 
Q 6.984375 53.65625 15.1875 63.9375 
Q 23.390625 74.21875 37.203125 74.21875 
Q 40.921875 74.21875 44.703125 73.484375 
Q 48.484375 72.75 52.59375 71.296875 
z
" id="DejaVuSans-54"/>
      </defs>
      <g style="fill:#262626;" transform="translate(32.23375 75.255723)scale(0.121 -0.121)">
       <use xlink:href="#DejaVuSans-54"/>
       <use x="63.623047" xlink:href="#DejaVuSans-48"/>
      </g>
     </g>
    </g>
    <g id="text_10">
     <!-- Hit rate (%) -->
     <defs>
      <path d="M 9.8125 72.90625 
L 19.671875 72.90625 
L 19.671875 43.015625 
L 55.515625 43.015625 
L 55.515625 72.90625 
L 65.375 72.90625 
L 65.375 0 
L 55.515625 0 
L 55.515625 34.71875 
L 19.671875 34.71875 
L 19.671875 0 
L 9.8125 0 
z
" id="DejaVuSans-72"/>
      <path d="M 41.109375 46.296875 
Q 39.59375 47.171875 37.8125 47.578125 
Q 36.03125 48 33.890625 48 
Q 26.265625 48 22.1875 43.046875 
Q 18.109375 38.09375 18.109375 28.8125 
L 18.109375 0 
L 9.078125 0 
L 9.078125 54.6875 
L 18.109375 54.6875 
L 18.109375 46.1875 
Q 20.953125 51.171875 25.484375 53.578125 
Q 30.03125 56 36.53125 56 
Q 37.453125 56 38.578125 55.875 
Q 39.703125 55.765625 41.0625 55.515625 
z
" id="DejaVuSans-114"/>
      <path d="M 31 75.875 
Q 24.46875 64.65625 21.28125 53.65625 
Q 18.109375 42.671875 18.109375 31.390625 
Q 18.109375 20.125 21.3125 9.0625 
Q 24.515625 -2 31 -13.1875 
L 23.1875 -13.1875 
Q 15.875 -1.703125 12.234375 9.375 
Q 8.59375 20.453125 8.59375 31.390625 
Q 8.59375 42.28125 12.203125 53.3125 
Q 15.828125 64.359375 23.1875 75.875 
z
" id="DejaVuSans-40"/>
      <path d="M 72.703125 32.078125 
Q 68.453125 32.078125 66.03125 28.46875 
Q 63.625 24.859375 63.625 18.40625 
Q 63.625 12.0625 66.03125 8.421875 
Q 68.453125 4.78125 72.703125 4.78125 
Q 76.859375 4.78125 79.265625 8.421875 
Q 81.6875 12.0625 81.6875 18.40625 
Q 81.6875 24.8125 79.265625 28.4375 
Q 76.859375 32.078125 72.703125 32.078125 
z
M 72.703125 38.28125 
Q 80.421875 38.28125 84.953125 32.90625 
Q 89.5 27.546875 89.5 18.40625 
Q 89.5 9.28125 84.9375 3.921875 
Q 80.375 -1.421875 72.703125 -1.421875 
Q 64.890625 -1.421875 60.34375 3.921875 
Q 55.8125 9.28125 55.8125 18.40625 
Q 55.8125 27.59375 60.375 32.9375 
Q 64.9375 38.28125 72.703125 38.28125 
z
M 22.3125 68.015625 
Q 18.109375 68.015625 15.6875 64.375 
Q 13.28125 60.75 13.28125 54.390625 
Q 13.28125 47.953125 15.671875 44.328125 
Q 18.0625 40.71875 22.3125 40.71875 
Q 26.5625 40.71875 28.96875 44.328125 
Q 31.390625 47.953125 31.390625 54.390625 
Q 31.390625 60.6875 28.953125 64.34375 
Q 26.515625 68.015625 22.3125 68.015625 
z
M 66.40625 74.21875 
L 74.21875 74.21875 
L 28.609375 -1.421875 
L 20.796875 -1.421875 
z
M 22.3125 74.21875 
Q 30.03125 74.21875 34.609375 68.875 
Q 39.203125 63.53125 39.203125 54.390625 
Q 39.203125 45.171875 34.640625 39.84375 
Q 30.078125 34.515625 22.3125 34.515625 
Q 14.546875 34.515625 10.03125 39.859375 
Q 5.515625 45.21875 5.515625 54.390625 
Q 5.515625 63.484375 10.046875 68.84375 
Q 14.59375 74.21875 22.3125 74.21875 
z
" id="DejaVuSans-37"/>
      <path d="M 8.015625 75.875 
L 15.828125 75.875 
Q 23.140625 64.359375 26.78125 53.3125 
Q 30.421875 42.28125 30.421875 31.390625 
Q 30.421875 20.453125 26.78125 9.375 
Q 23.140625 -1.703125 15.828125 -13.1875 
L 8.015625 -13.1875 
Q 14.5 -2 17.703125 9.0625 
Q 20.90625 20.125 20.90625 31.390625 
Q 20.90625 42.671875 17.703125 53.65625 
Q 14.5 64.65625 8.015625 75.875 
z
" id="DejaVuSans-41"/>
     </defs>
     <g style="fill:#262626;" transform="translate(25.488563 227.378844)rotate(-90)scale(0.132 -0.132)">
      <use xlink:href="#DejaVuSans-72"/>
      <use x="75.195312" xlink:href="#DejaVuSans-105"/>
      <use x="102.978516" xlink:href="#DejaVuSans-116"/>
      <use x="142.1875" xlink:href="#DejaVuSans-32"/>
      <use x="173.974609" xlink:href="#DejaVuSans-114"/>
      <use x="215.087891" xlink:href="#DejaVuSans-97"/>
      <use x="276.367188" xlink:href="#DejaVuSans-116"/>
      <use x="315.576172" xlink:href="#DejaVuSans-101"/>
      <use x="377.099609" xlink:href="#DejaVuSans-32"/>
      <use x="408.886719" xlink:href="#DejaVuSans-40"/>
      <use x="447.900391" xlink:href="#DejaVuSans-37"/>
      <use x="542.919922" xlink:href="#DejaVuSans-41"/>
     </g>
    </g>
   </g>
   <g id="PathCollection_1">
    <defs>
     <path d="M -0 4.242641 
L 2.545584 0 
L 0 -4.242641 
L -2.545584 -0 
z
" id="m06c8b46967" style="stroke:#176d9c;"/>
    </defs>
    <g clip-path="url(#p1013ae0e98)">
     <use style="fill:#176d9c;stroke:#176d9c;" x="81.174542" xlink:href="#m06c8b46967" y="313.925257"/>
     <use style="fill:#176d9c;stroke:#176d9c;" x="81.174542" xlink:href="#m06c8b46967" y="313.925257"/>
     <use style="fill:#176d9c;stroke:#176d9c;" x="81.174542" xlink:href="#m06c8b46967" y="175.705604"/>
     <use style="fill:#176d9c;stroke:#176d9c;" x="81.174542" xlink:href="#m06c8b46967" y="159.119246"/>
    </g>
   </g>
   <g id="PatchCollection_1">
    <path clip-path="url(#p1013ae0e98)" d="M 81.099406 308.396471 
L 81.249678 308.396471 
L 81.249678 181.234391 
L 81.099406 181.234391 
z
" style="fill:#ffffff;stroke:#ffffff;"/>
    <path clip-path="url(#p1013ae0e98)" d="M 81.02427 305.945231 
L 81.324814 305.945231 
L 81.324814 186.763177 
L 81.02427 186.763177 
z
" style="fill:#e2edf3;stroke:#ffffff;"/>
    <path clip-path="url(#p1013ae0e98)" d="M 80.873997 302.867684 
L 81.475086 302.867684 
L 81.475086 186.763177 
L 80.873997 186.763177 
z
" style="fill:#c5dae6;stroke:#ffffff;"/>
    <path clip-path="url(#p1013ae0e98)" d="M 80.573453 297.338898 
L 81.77563 297.338898 
L 81.77563 192.291963 
L 80.573453 192.291963 
z
" style="fill:#a8c8da;stroke:#ffffff;"/>
    <path clip-path="url(#p1013ae0e98)" d="M 79.972365 286.281326 
L 82.376719 286.281326 
L 82.376719 203.349535 
L 79.972365 203.349535 
z
" style="fill:#8bb6cd;stroke:#ffffff;"/>
    <path clip-path="url(#p1013ae0e98)" d="M 78.770188 280.015369 
L 83.578896 280.015369 
L 83.578896 208.878321 
L 78.770188 208.878321 
z
" style="fill:#6ea3c1;stroke:#ffffff;"/>
    <path clip-path="url(#p1013ae0e98)" d="M 76.365833 271.169311 
L 85.98325 271.169311 
L 85.98325 218.830136 
L 76.365833 218.830136 
z
" style="fill:#5091b4;stroke:#ffffff;"/>
    <path clip-path="url(#p1013ae0e98)" d="M 71.557125 264.166182 
L 90.791958 264.166182 
L 90.791958 225.464679 
L 71.557125 225.464679 
z
" style="fill:#337ea8;stroke:#ffffff;"/>
    <path clip-path="url(#p1013ae0e98)" d="M 61.939708 254.951538 
L 100.409375 254.951538 
L 100.409375 234.310737 
L 61.939708 234.310737 
z
" style="fill:#176d9c;stroke:#ffffff;"/>
   </g>
   <g id="PathCollection_2">
    <defs>
     <path d="M -0 4.242641 
L 2.545584 0 
L 0 -4.242641 
L -2.545584 -0 
z
" id="mc00bd36914" style="stroke:#c38820;"/>
    </defs>
    <g clip-path="url(#p1013ae0e98)">
     <use style="fill:#c38820;stroke:#c38820;" x="129.261625" xlink:href="#mc00bd36914" y="313.925257"/>
     <use style="fill:#c38820;stroke:#c38820;" x="129.261625" xlink:href="#mc00bd36914" y="313.925257"/>
     <use style="fill:#c38820;stroke:#c38820;" x="129.261625" xlink:href="#mc00bd36914" y="313.925257"/>
     <use style="fill:#c38820;stroke:#c38820;" x="129.261625" xlink:href="#mc00bd36914" y="164.648032"/>
     <use style="fill:#c38820;stroke:#c38820;" x="129.261625" xlink:href="#mc00bd36914" y="153.59046"/>
     <use style="fill:#c38820;stroke:#c38820;" x="129.261625" xlink:href="#mc00bd36914" y="164.648032"/>
    </g>
   </g>
   <g id="PatchCollection_2">
    <path clip-path="url(#p1013ae0e98)" d="M 129.186489 308.396471 
L 129.336761 308.396471 
L 129.336761 170.176818 
L 129.186489 170.176818 
z
" style="fill:#ffffff;stroke:#ffffff;"/>
    <path clip-path="url(#p1013ae0e98)" d="M 129.111353 302.16733 
L 129.411897 302.16733 
L 129.411897 172.628057 
L 129.111353 172.628057 
z
" style="fill:#f7f0e3;stroke:#ffffff;"/>
    <path clip-path="url(#p1013ae0e98)" d="M 128.961081 297.338898 
L 129.562169 297.338898 
L 129.562169 180.8765 
L 128.961081 180.8765 
z
" style="fill:#f0e1c7;stroke:#ffffff;"/>
    <path clip-path="url(#p1013ae0e98)" d="M 128.660536 291.810112 
L 129.862714 291.810112 
L 129.862714 186.763177 
L 128.660536 186.763177 
z
" style="fill:#e8d2ab;stroke:#ffffff;"/>
    <path clip-path="url(#p1013ae0e98)" d="M 128.059448 280.75254 
L 130.463802 280.75254 
L 130.463802 192.291963 
L 128.059448 192.291963 
z
" style="fill:#e1c38f;stroke:#ffffff;"/>
    <path clip-path="url(#p1013ae0e98)" d="M 126.857271 275.223754 
L 131.665979 275.223754 
L 131.665979 200.190229 
L 126.857271 200.190229 
z
" style="fill:#d9b473;stroke:#ffffff;"/>
    <path clip-path="url(#p1013ae0e98)" d="M 124.452917 266.535662 
L 134.070333 266.535662 
L 134.070333 208.878321 
L 124.452917 208.878321 
z
" style="fill:#d2a557;stroke:#ffffff;"/>
    <path clip-path="url(#p1013ae0e98)" d="M 119.644208 258.637396 
L 138.879042 258.637396 
L 138.879042 219.567307 
L 119.644208 219.567307 
z
" style="fill:#ca963b;stroke:#ffffff;"/>
    <path clip-path="url(#p1013ae0e98)" d="M 110.026792 249.791338 
L 148.496458 249.791338 
L 148.496458 228.413365 
L 110.026792 228.413365 
z
" style="fill:#c38820;stroke:#ffffff;"/>
   </g>
   <g id="PathCollection_3">
    <defs>
     <path d="M -0 4.242641 
L 2.545584 0 
L 0 -4.242641 
L -2.545584 -0 
z
" id="m21bb6c38cd" style="stroke:#158b6a;"/>
    </defs>
    <g clip-path="url(#p1013ae0e98)">
     <use style="fill:#158b6a;stroke:#158b6a;" x="177.348708" xlink:href="#m21bb6c38cd" y="308.396471"/>
     <use style="fill:#158b6a;stroke:#158b6a;" x="177.348708" xlink:href="#m21bb6c38cd" y="313.925257"/>
     <use style="fill:#158b6a;stroke:#158b6a;" x="177.348708" xlink:href="#m21bb6c38cd" y="313.925257"/>
     <use style="fill:#158b6a;stroke:#158b6a;" x="177.348708" xlink:href="#m21bb6c38cd" y="319.454043"/>
     <use style="fill:#158b6a;stroke:#158b6a;" x="177.348708" xlink:href="#m21bb6c38cd" y="131.475316"/>
     <use style="fill:#158b6a;stroke:#158b6a;" x="177.348708" xlink:href="#m21bb6c38cd" y="148.061674"/>
     <use style="fill:#158b6a;stroke:#158b6a;" x="177.348708" xlink:href="#m21bb6c38cd" y="148.061674"/>
     <use style="fill:#158b6a;stroke:#158b6a;" x="177.348708" xlink:href="#m21bb6c38cd" y="148.061674"/>
    </g>
   </g>
   <g id="PatchCollection_3">
    <path clip-path="url(#p1013ae0e98)" d="M 177.273572 304.471248 
L 177.423844 304.471248 
L 177.423844 151.986896 
L 177.273572 151.986896 
z
" style="fill:#ffffff;stroke:#ffffff;"/>
    <path clip-path="url(#p1013ae0e98)" d="M 177.198436 297.338898 
L 177.49898 297.338898 
L 177.49898 164.648032 
L 177.198436 164.648032 
z
" style="fill:#e2f0ec;stroke:#ffffff;"/>
    <path clip-path="url(#p1013ae0e98)" d="M 177.048164 291.810112 
L 177.649253 291.810112 
L 177.649253 175.705604 
L 177.048164 175.705604 
z
" style="fill:#c4e2da;stroke:#ffffff;"/>
    <path clip-path="url(#p1013ae0e98)" d="M 176.74762 286.281326 
L 177.949797 286.281326 
L 177.949797 181.234391 
L 176.74762 181.234391 
z
" style="fill:#a7d3c7;stroke:#ffffff;"/>
    <path clip-path="url(#p1013ae0e98)" d="M 176.146531 280.75254 
L 178.550885 280.75254 
L 178.550885 192.291963 
L 176.146531 192.291963 
z
" style="fill:#8ac5b4;stroke:#ffffff;"/>
    <path clip-path="url(#p1013ae0e98)" d="M 174.944354 269.694968 
L 179.753062 269.694968 
L 179.753062 197.820749 
L 174.944354 197.820749 
z
" style="fill:#6cb6a2;stroke:#ffffff;"/>
    <path clip-path="url(#p1013ae0e98)" d="M 172.54 263.060425 
L 182.157417 263.060425 
L 182.157417 206.508841 
L 172.54 206.508841 
z
" style="fill:#4fa78f;stroke:#ffffff;"/>
    <path clip-path="url(#p1013ae0e98)" d="M 167.731292 253.10861 
L 186.966125 253.10861 
L 186.966125 214.959986 
L 167.731292 214.959986 
z
" style="fill:#32997c;stroke:#ffffff;"/>
    <path clip-path="url(#p1013ae0e98)" d="M 158.113875 244.631138 
L 196.583542 244.631138 
L 196.583542 225.464679 
L 158.113875 225.464679 
z
" style="fill:#158b6a;stroke:#ffffff;"/>
   </g>
   <g id="line2d_6">
    <path clip-path="url(#p1013ae0e98)" d="M 61.939708 245.04198 
L 100.409375 245.04198 
" style="fill:none;stroke:#262626;stroke-linecap:round;stroke-opacity:0.45;stroke-width:1.5;"/>
   </g>
   <g id="line2d_7">
    <path clip-path="url(#p1013ae0e98)" d="M 110.026792 238.733766 
L 148.496458 238.733766 
" style="fill:none;stroke:#262626;stroke-linecap:round;stroke-opacity:0.45;stroke-width:1.5;"/>
   </g>
   <g id="line2d_8">
    <path clip-path="url(#p1013ae0e98)" d="M 158.113875 234.942598 
L 196.583542 234.942598 
" style="fill:none;stroke:#262626;stroke-linecap:round;stroke-opacity:0.45;stroke-width:1.5;"/>
   </g>
   <g id="patch_3">
    <path d="M 57.131 334.744 
L 57.131 43.2 
" style="fill:none;stroke:#ffffff;stroke-linecap:square;stroke-linejoin:miter;stroke-width:1.25;"/>
   </g>
   <g id="patch_4">
    <path d="M 57.131 334.744 
L 201.39225 334.744 
" style="fill:none;stroke:#ffffff;stroke-linecap:square;stroke-linejoin:miter;stroke-width:1.25;"/>
   </g>
   <g id="text_11">
    <!-- clusters = 4 -->
    <defs>
     <path d="M 48.78125 52.59375 
L 48.78125 44.1875 
Q 44.96875 46.296875 41.140625 47.34375 
Q 37.3125 48.390625 33.40625 48.390625 
Q 24.65625 48.390625 19.8125 42.84375 
Q 14.984375 37.3125 14.984375 27.296875 
Q 14.984375 17.28125 19.8125 11.734375 
Q 24.65625 6.203125 33.40625 6.203125 
Q 37.3125 6.203125 41.140625 7.25 
Q 44.96875 8.296875 48.78125 10.40625 
L 48.78125 2.09375 
Q 45.015625 0.34375 40.984375 -0.53125 
Q 36.96875 -1.421875 32.421875 -1.421875 
Q 20.0625 -1.421875 12.78125 6.34375 
Q 5.515625 14.109375 5.515625 27.296875 
Q 5.515625 40.671875 12.859375 48.328125 
Q 20.21875 56 33.015625 56 
Q 37.15625 56 41.109375 55.140625 
Q 45.0625 54.296875 48.78125 52.59375 
z
" id="DejaVuSans-99"/>
     <path d="M 9.421875 75.984375 
L 18.40625 75.984375 
L 18.40625 0 
L 9.421875 0 
z
" id="DejaVuSans-108"/>
     <path d="M 10.59375 45.40625 
L 73.1875 45.40625 
L 73.1875 37.203125 
L 10.59375 37.203125 
z
M 10.59375 25.484375 
L 73.1875 25.484375 
L 73.1875 17.1875 
L 10.59375 17.1875 
z
" id="DejaVuSans-61"/>
    </defs>
    <g style="fill:#262626;" transform="translate(89.453313 37.2)scale(0.132 -0.132)">
     <use xlink:href="#DejaVuSans-99"/>
     <use x="54.980469" xlink:href="#DejaVuSans-108"/>
     <use x="82.763672" xlink:href="#DejaVuSans-117"/>
     <use x="146.142578" xlink:href="#DejaVuSans-115"/>
     <use x="198.242188" xlink:href="#DejaVuSans-116"/>
     <use x="237.451172" xlink:href="#DejaVuSans-101"/>
     <use x="298.974609" xlink:href="#DejaVuSans-114"/>
     <use x="340.087891" xlink:href="#DejaVuSans-115"/>
     <use x="392.1875" xlink:href="#DejaVuSans-32"/>
     <use x="423.974609" xlink:href="#DejaVuSans-61"/>
     <use x="507.763672" xlink:href="#DejaVuSans-32"/>
     <use x="539.550781" xlink:href="#DejaVuSans-52"/>
    </g>
   </g>
  </g>
  <g id="axes_2">
   <g id="patch_5">
    <path d="M 215.64825 334.744 
L 359.9095 334.744 
L 359.9095 43.2 
L 215.64825 43.2 
z
" style="fill:#eaeaf2;"/>
   </g>
   <g id="matplotlib.axis_3">
    <g id="xtick_4">
     <g id="text_12">
      <!--   kmeans -->
      <g style="fill:#262626;" transform="translate(243.030635 399.559906)rotate(-90)scale(0.121 -0.121)">
       <use xlink:href="#DejaVuSans-32"/>
       <use x="31.787109" xlink:href="#DejaVuSans-32"/>
       <use x="63.574219" xlink:href="#DejaVuSans-107"/>
       <use x="121.484375" xlink:href="#DejaVuSans-109"/>
       <use x="218.896484" xlink:href="#DejaVuSans-101"/>
       <use x="280.419922" xlink:href="#DejaVuSans-97"/>
       <use x="341.699219" xlink:href="#DejaVuSans-110"/>
       <use x="405.078125" xlink:href="#DejaVuSans-115"/>
      </g>
     </g>
    </g>
    <g id="xtick_5">
     <g id="text_13">
      <!--    metis -->
      <g style="fill:#262626;" transform="translate(291.117719 389.420484)rotate(-90)scale(0.121 -0.121)">
       <use xlink:href="#DejaVuSans-32"/>
       <use x="31.787109" xlink:href="#DejaVuSans-32"/>
       <use x="63.574219" xlink:href="#DejaVuSans-32"/>
       <use x="95.361328" xlink:href="#DejaVuSans-109"/>
       <use x="192.773438" xlink:href="#DejaVuSans-101"/>
       <use x="254.296875" xlink:href="#DejaVuSans-116"/>
       <use x="293.505859" xlink:href="#DejaVuSans-105"/>
       <use x="321.289062" xlink:href="#DejaVuSans-115"/>
      </g>
     </g>
    </g>
    <g id="xtick_6">
     <g id="text_14">
      <!--      hub -->
      <g style="fill:#262626;" transform="translate(339.204802 386.490016)rotate(-90)scale(0.121 -0.121)">
       <use xlink:href="#DejaVuSans-32"/>
       <use x="31.787109" xlink:href="#DejaVuSans-32"/>
       <use x="63.574219" xlink:href="#DejaVuSans-32"/>
       <use x="95.361328" xlink:href="#DejaVuSans-32"/>
       <use x="127.148438" xlink:href="#DejaVuSans-32"/>
       <use x="158.935547" xlink:href="#DejaVuSans-104"/>
       <use x="222.314453" xlink:href="#DejaVuSans-117"/>
       <use x="285.693359" xlink:href="#DejaVuSans-98"/>
      </g>
     </g>
    </g>
    <g id="text_15">
     <!-- Method -->
     <g style="fill:#262626;" transform="translate(263.02475 413.589844)scale(0.132 -0.132)">
      <use xlink:href="#DejaVuSans-77"/>
      <use x="86.279297" xlink:href="#DejaVuSans-101"/>
      <use x="147.802734" xlink:href="#DejaVuSans-116"/>
      <use x="187.011719" xlink:href="#DejaVuSans-104"/>
      <use x="250.390625" xlink:href="#DejaVuSans-111"/>
      <use x="311.572266" xlink:href="#DejaVuSans-100"/>
     </g>
    </g>
   </g>
   <g id="matplotlib.axis_4">
    <g id="ytick_6">
     <g id="line2d_9">
      <path clip-path="url(#p8330f3514a)" d="M 215.64825 291.810112 
L 359.9095 291.810112 
" style="fill:none;stroke:#ffffff;stroke-linecap:round;"/>
     </g>
    </g>
    <g id="ytick_7">
     <g id="line2d_10">
      <path clip-path="url(#p8330f3514a)" d="M 215.64825 236.522251 
L 359.9095 236.522251 
" style="fill:none;stroke:#ffffff;stroke-linecap:round;"/>
     </g>
    </g>
    <g id="ytick_8">
     <g id="line2d_11">
      <path clip-path="url(#p8330f3514a)" d="M 215.64825 181.234391 
L 359.9095 181.234391 
" style="fill:none;stroke:#ffffff;stroke-linecap:round;"/>
     </g>
    </g>
    <g id="ytick_9">
     <g id="line2d_12">
      <path clip-path="url(#p8330f3514a)" d="M 215.64825 125.94653 
L 359.9095 125.94653 
" style="fill:none;stroke:#ffffff;stroke-linecap:round;"/>
     </g>
    </g>
    <g id="ytick_10">
     <g id="line2d_13">
      <path clip-path="url(#p8330f3514a)" d="M 215.64825 70.658669 
L 359.9095 70.658669 
" style="fill:none;stroke:#ffffff;stroke-linecap:round;"/>
     </g>
    </g>
   </g>
   <g id="PathCollection_4">
    <g clip-path="url(#p8330f3514a)">
     <use style="fill:#176d9c;stroke:#176d9c;" x="239.691792" xlink:href="#m06c8b46967" y="131.475316"/>
     <use style="fill:#176d9c;stroke:#176d9c;" x="239.691792" xlink:href="#m06c8b46967" y="131.475316"/>
     <use style="fill:#176d9c;stroke:#176d9c;" x="239.691792" xlink:href="#m06c8b46967" y="137.004102"/>
     <use style="fill:#176d9c;stroke:#176d9c;" x="239.691792" xlink:href="#m06c8b46967" y="131.475316"/>
    </g>
   </g>
   <g id="PatchCollection_4">
    <path clip-path="url(#p8330f3514a)" d="M 239.616656 291.810112 
L 239.766928 291.810112 
L 239.766928 138.229721 
L 239.616656 138.229721 
z
" style="fill:#ffffff;stroke:#ffffff;"/>
    <path clip-path="url(#p8330f3514a)" d="M 239.54152 280.75254 
L 239.842064 280.75254 
L 239.842064 148.061674 
L 239.54152 148.061674 
z
" style="fill:#e2edf3;stroke:#ffffff;"/>
    <path clip-path="url(#p8330f3514a)" d="M 239.391247 279.172887 
L 239.992336 279.172887 
L 239.992336 159.119246 
L 239.391247 159.119246 
z
" style="fill:#c5dae6;stroke:#ffffff;"/>
    <path clip-path="url(#p8330f3514a)" d="M 239.090703 269.694968 
L 240.29288 269.694968 
L 240.29288 164.648032 
L 239.090703 164.648032 
z
" style="fill:#a8c8da;stroke:#ffffff;"/>
    <path clip-path="url(#p8330f3514a)" d="M 238.489615 265.271939 
L 240.893969 265.271939 
L 240.893969 175.705604 
L 238.489615 175.705604 
z
" style="fill:#8bb6cd;stroke:#ffffff;"/>
    <path clip-path="url(#p8330f3514a)" d="M 237.287438 258.637396 
L 242.096146 258.637396 
L 242.096146 186.763177 
L 237.287438 186.763177 
z
" style="fill:#6ea3c1;stroke:#ffffff;"/>
    <path clip-path="url(#p8330f3514a)" d="M 234.883083 252.002852 
L 244.5005 252.002852 
L 244.5005 192.291963 
L 234.883083 192.291963 
z
" style="fill:#5091b4;stroke:#ffffff;"/>
    <path clip-path="url(#p8330f3514a)" d="M 230.074375 242.051037 
L 249.309208 242.051037 
L 249.309208 200.190229 
L 230.074375 200.190229 
z
" style="fill:#337ea8;stroke:#ffffff;"/>
    <path clip-path="url(#p8330f3514a)" d="M 220.456958 232.836394 
L 258.926625 232.836394 
L 258.926625 210.72125 
L 220.456958 210.72125 
z
" style="fill:#176d9c;stroke:#ffffff;"/>
   </g>
   <g id="PathCollection_5">
    <g clip-path="url(#p8330f3514a)">
     <use style="fill:#c38820;stroke:#c38820;" x="287.778875" xlink:href="#mc00bd36914" y="297.338898"/>
     <use style="fill:#c38820;stroke:#c38820;" x="287.778875" xlink:href="#mc00bd36914" y="308.396471"/>
     <use style="fill:#c38820;stroke:#c38820;" x="287.778875" xlink:href="#mc00bd36914" y="302.867684"/>
     <use style="fill:#c38820;stroke:#c38820;" x="287.778875" xlink:href="#mc00bd36914" y="302.867684"/>
     <use style="fill:#c38820;stroke:#c38820;" x="287.778875" xlink:href="#mc00bd36914" y="142.532888"/>
     <use style="fill:#c38820;stroke:#c38820;" x="287.778875" xlink:href="#mc00bd36914" y="142.532888"/>
    </g>
   </g>
   <g id="PatchCollection_5">
    <path clip-path="url(#p8330f3514a)" d="M 287.703739 296.113279 
L 287.854011 296.113279 
L 287.854011 148.061674 
L 287.703739 148.061674 
z
" style="fill:#ffffff;stroke:#ffffff;"/>
    <path clip-path="url(#p8330f3514a)" d="M 287.628603 286.281326 
L 287.929147 286.281326 
L 287.929147 153.59046 
L 287.628603 153.59046 
z
" style="fill:#f7f0e3;stroke:#ffffff;"/>
    <path clip-path="url(#p8330f3514a)" d="M 287.478331 280.75254 
L 288.079419 280.75254 
L 288.079419 159.119246 
L 287.478331 159.119246 
z
" style="fill:#f0e1c7;stroke:#ffffff;"/>
    <path clip-path="url(#p8330f3514a)" d="M 287.177786 276.085159 
L 288.379964 276.085159 
L 288.379964 170.176818 
L 287.177786 170.176818 
z
" style="fill:#e8d2ab;stroke:#ffffff;"/>
    <path clip-path="url(#p8330f3514a)" d="M 286.576698 269.694968 
L 288.981052 269.694968 
L 288.981052 175.705604 
L 286.576698 175.705604 
z
" style="fill:#e1c38f;stroke:#ffffff;"/>
    <path clip-path="url(#p8330f3514a)" d="M 285.374521 262.991315 
L 290.183229 262.991315 
L 290.183229 184.393697 
L 285.374521 184.393697 
z
" style="fill:#d9b473;stroke:#ffffff;"/>
    <path clip-path="url(#p8330f3514a)" d="M 282.970167 253.10861 
L 292.587583 253.10861 
L 292.587583 192.291963 
L 282.970167 192.291963 
z
" style="fill:#d2a557;stroke:#ffffff;"/>
    <path clip-path="url(#p8330f3514a)" d="M 278.161458 243.156795 
L 297.396292 243.156795 
L 297.396292 203.349535 
L 278.161458 203.349535 
z
" style="fill:#ca963b;stroke:#ffffff;"/>
    <path clip-path="url(#p8330f3514a)" d="M 268.544042 234.942598 
L 307.013708 234.942598 
L 307.013708 212.281928 
L 268.544042 212.281928 
z
" style="fill:#c38820;stroke:#ffffff;"/>
   </g>
   <g id="PathCollection_6">
    <g clip-path="url(#p8330f3514a)">
     <use style="fill:#158b6a;stroke:#158b6a;" x="335.865958" xlink:href="#m21bb6c38cd" y="308.396471"/>
     <use style="fill:#158b6a;stroke:#158b6a;" x="335.865958" xlink:href="#m21bb6c38cd" y="286.281326"/>
     <use style="fill:#158b6a;stroke:#158b6a;" x="335.865958" xlink:href="#m21bb6c38cd" y="308.396471"/>
     <use style="fill:#158b6a;stroke:#158b6a;" x="335.865958" xlink:href="#m21bb6c38cd" y="291.810112"/>
     <use style="fill:#158b6a;stroke:#158b6a;" x="335.865958" xlink:href="#m21bb6c38cd" y="148.061674"/>
     <use style="fill:#158b6a;stroke:#158b6a;" x="335.865958" xlink:href="#m21bb6c38cd" y="142.532888"/>
     <use style="fill:#158b6a;stroke:#158b6a;" x="335.865958" xlink:href="#m21bb6c38cd" y="131.475316"/>
     <use style="fill:#158b6a;stroke:#158b6a;" x="335.865958" xlink:href="#m21bb6c38cd" y="137.004102"/>
    </g>
   </g>
   <g id="PatchCollection_6">
    <path clip-path="url(#p8330f3514a)" d="M 335.790822 286.106238 
L 335.941094 286.106238 
L 335.941094 149.287294 
L 335.790822 149.287294 
z
" style="fill:#ffffff;stroke:#ffffff;"/>
    <path clip-path="url(#p8330f3514a)" d="M 335.715686 280.75254 
L 336.01623 280.75254 
L 336.01623 159.119246 
L 335.715686 159.119246 
z
" style="fill:#e2f0ec;stroke:#ffffff;"/>
    <path clip-path="url(#p8330f3514a)" d="M 335.565414 275.223754 
L 336.166503 275.223754 
L 336.166503 159.119246 
L 335.565414 159.119246 
z
" style="fill:#c4e2da;stroke:#ffffff;"/>
    <path clip-path="url(#p8330f3514a)" d="M 335.26487 269.694968 
L 336.467047 269.694968 
L 336.467047 164.648032 
L 335.26487 164.648032 
z
" style="fill:#a7d3c7;stroke:#ffffff;"/>
    <path clip-path="url(#p8330f3514a)" d="M 334.663781 264.166182 
L 337.068135 264.166182 
L 337.068135 172.102021 
L 334.663781 172.102021 
z
" style="fill:#8ac5b4;stroke:#ffffff;"/>
    <path clip-path="url(#p8330f3514a)" d="M 333.461604 253.898436 
L 338.270313 253.898436 
L 338.270313 181.234391 
L 333.461604 181.234391 
z
" style="fill:#6cb6a2;stroke:#ffffff;"/>
    <path clip-path="url(#p8330f3514a)" d="M 331.05725 247.579824 
L 340.674667 247.579824 
L 340.674667 187.553003 
L 331.05725 187.553003 
z
" style="fill:#4fa78f;stroke:#ffffff;"/>
    <path clip-path="url(#p8330f3514a)" d="M 326.248542 238.733766 
L 345.483375 238.733766 
L 345.483375 197.030922 
L 326.248542 197.030922 
z
" style="fill:#32997c;stroke:#ffffff;"/>
    <path clip-path="url(#p8330f3514a)" d="M 316.631125 229.887708 
L 355.100792 229.887708 
L 355.100792 205.561049 
L 316.631125 205.561049 
z
" style="fill:#158b6a;stroke:#ffffff;"/>
   </g>
   <g id="line2d_14">
    <path clip-path="url(#p8330f3514a)" d="M 220.456958 222.305373 
L 258.926625 222.305373 
" style="fill:none;stroke:#262626;stroke-linecap:round;stroke-opacity:0.45;stroke-width:1.5;"/>
   </g>
   <g id="line2d_15">
    <path clip-path="url(#p8330f3514a)" d="M 268.544042 224.358922 
L 307.013708 224.358922 
" style="fill:none;stroke:#262626;stroke-linecap:round;stroke-opacity:0.45;stroke-width:1.5;"/>
   </g>
   <g id="line2d_16">
    <path clip-path="url(#p8330f3514a)" d="M 316.631125 216.618621 
L 355.100792 216.618621 
" style="fill:none;stroke:#262626;stroke-linecap:round;stroke-opacity:0.45;stroke-width:1.5;"/>
   </g>
   <g id="patch_6">
    <path d="M 215.64825 334.744 
L 215.64825 43.2 
" style="fill:none;stroke:#ffffff;stroke-linecap:square;stroke-linejoin:miter;stroke-width:1.25;"/>
   </g>
   <g id="patch_7">
    <path d="M 215.64825 334.744 
L 359.9095 334.744 
" style="fill:none;stroke:#ffffff;stroke-linecap:square;stroke-linejoin:miter;stroke-width:1.25;"/>
   </g>
   <g id="text_16">
    <!-- clusters = 8 -->
    <defs>
     <path d="M 31.78125 34.625 
Q 24.75 34.625 20.71875 30.859375 
Q 16.703125 27.09375 16.703125 20.515625 
Q 16.703125 13.921875 20.71875 10.15625 
Q 24.75 6.390625 31.78125 6.390625 
Q 38.8125 6.390625 42.859375 10.171875 
Q 46.921875 13.96875 46.921875 20.515625 
Q 46.921875 27.09375 42.890625 30.859375 
Q 38.875 34.625 31.78125 34.625 
z
M 21.921875 38.8125 
Q 15.578125 40.375 12.03125 44.71875 
Q 8.5 49.078125 8.5 55.328125 
Q 8.5 64.0625 14.71875 69.140625 
Q 20.953125 74.21875 31.78125 74.21875 
Q 42.671875 74.21875 48.875 69.140625 
Q 55.078125 64.0625 55.078125 55.328125 
Q 55.078125 49.078125 51.53125 44.71875 
Q 48 40.375 41.703125 38.8125 
Q 48.828125 37.15625 52.796875 32.3125 
Q 56.78125 27.484375 56.78125 20.515625 
Q 56.78125 9.90625 50.3125 4.234375 
Q 43.84375 -1.421875 31.78125 -1.421875 
Q 19.734375 -1.421875 13.25 4.234375 
Q 6.78125 9.90625 6.78125 20.515625 
Q 6.78125 27.484375 10.78125 32.3125 
Q 14.796875 37.15625 21.921875 38.8125 
z
M 18.3125 54.390625 
Q 18.3125 48.734375 21.84375 45.5625 
Q 25.390625 42.390625 31.78125 42.390625 
Q 38.140625 42.390625 41.71875 45.5625 
Q 45.3125 48.734375 45.3125 54.390625 
Q 45.3125 60.0625 41.71875 63.234375 
Q 38.140625 66.40625 31.78125 66.40625 
Q 25.390625 66.40625 21.84375 63.234375 
Q 18.3125 60.0625 18.3125 54.390625 
z
" id="DejaVuSans-56"/>
    </defs>
    <g style="fill:#262626;" transform="translate(247.970563 37.2)scale(0.132 -0.132)">
     <use xlink:href="#DejaVuSans-99"/>
     <use x="54.980469" xlink:href="#DejaVuSans-108"/>
     <use x="82.763672" xlink:href="#DejaVuSans-117"/>
     <use x="146.142578" xlink:href="#DejaVuSans-115"/>
     <use x="198.242188" xlink:href="#DejaVuSans-116"/>
     <use x="237.451172" xlink:href="#DejaVuSans-101"/>
     <use x="298.974609" xlink:href="#DejaVuSans-114"/>
     <use x="340.087891" xlink:href="#DejaVuSans-115"/>
     <use x="392.1875" xlink:href="#DejaVuSans-32"/>
     <use x="423.974609" xlink:href="#DejaVuSans-61"/>
     <use x="507.763672" xlink:href="#DejaVuSans-32"/>
     <use x="539.550781" xlink:href="#DejaVuSans-56"/>
    </g>
   </g>
  </g>
  <g id="axes_3">
   <g id="patch_8">
    <path d="M 374.1655 334.744 
L 518.42675 334.744 
L 518.42675 43.2 
L 374.1655 43.2 
z
" style="fill:#eaeaf2;"/>
   </g>
   <g id="matplotlib.axis_5">
    <g id="xtick_7">
     <g id="text_17">
      <!--   kmeans -->
      <g style="fill:#262626;" transform="translate(401.547885 399.559906)rotate(-90)scale(0.121 -0.121)">
       <use xlink:href="#DejaVuSans-32"/>
       <use x="31.787109" xlink:href="#DejaVuSans-32"/>
       <use x="63.574219" xlink:href="#DejaVuSans-107"/>
       <use x="121.484375" xlink:href="#DejaVuSans-109"/>
       <use x="218.896484" xlink:href="#DejaVuSans-101"/>
       <use x="280.419922" xlink:href="#DejaVuSans-97"/>
       <use x="341.699219" xlink:href="#DejaVuSans-110"/>
       <use x="405.078125" xlink:href="#DejaVuSans-115"/>
      </g>
     </g>
    </g>
    <g id="xtick_8">
     <g id="text_18">
      <!--    metis -->
      <g style="fill:#262626;" transform="translate(449.634969 389.420484)rotate(-90)scale(0.121 -0.121)">
       <use xlink:href="#DejaVuSans-32"/>
       <use x="31.787109" xlink:href="#DejaVuSans-32"/>
       <use x="63.574219" xlink:href="#DejaVuSans-32"/>
       <use x="95.361328" xlink:href="#DejaVuSans-109"/>
       <use x="192.773438" xlink:href="#DejaVuSans-101"/>
       <use x="254.296875" xlink:href="#DejaVuSans-116"/>
       <use x="293.505859" xlink:href="#DejaVuSans-105"/>
       <use x="321.289062" xlink:href="#DejaVuSans-115"/>
      </g>
     </g>
    </g>
    <g id="xtick_9">
     <g id="text_19">
      <!--      hub -->
      <g style="fill:#262626;" transform="translate(497.722052 386.490016)rotate(-90)scale(0.121 -0.121)">
       <use xlink:href="#DejaVuSans-32"/>
       <use x="31.787109" xlink:href="#DejaVuSans-32"/>
       <use x="63.574219" xlink:href="#DejaVuSans-32"/>
       <use x="95.361328" xlink:href="#DejaVuSans-32"/>
       <use x="127.148438" xlink:href="#DejaVuSans-32"/>
       <use x="158.935547" xlink:href="#DejaVuSans-104"/>
       <use x="222.314453" xlink:href="#DejaVuSans-117"/>
       <use x="285.693359" xlink:href="#DejaVuSans-98"/>
      </g>
     </g>
    </g>
    <g id="text_20">
     <!-- Method -->
     <g style="fill:#262626;" transform="translate(421.542 413.589844)scale(0.132 -0.132)">
      <use xlink:href="#DejaVuSans-77"/>
      <use x="86.279297" xlink:href="#DejaVuSans-101"/>
      <use x="147.802734" xlink:href="#DejaVuSans-116"/>
      <use x="187.011719" xlink:href="#DejaVuSans-104"/>
      <use x="250.390625" xlink:href="#DejaVuSans-111"/>
      <use x="311.572266" xlink:href="#DejaVuSans-100"/>
     </g>
    </g>
   </g>
   <g id="matplotlib.axis_6">
    <g id="ytick_11">
     <g id="line2d_17">
      <path clip-path="url(#pdc0ed90baa)" d="M 374.1655 291.810112 
L 518.42675 291.810112 
" style="fill:none;stroke:#ffffff;stroke-linecap:round;"/>
     </g>
    </g>
    <g id="ytick_12">
     <g id="line2d_18">
      <path clip-path="url(#pdc0ed90baa)" d="M 374.1655 236.522251 
L 518.42675 236.522251 
" style="fill:none;stroke:#ffffff;stroke-linecap:round;"/>
     </g>
    </g>
    <g id="ytick_13">
     <g id="line2d_19">
      <path clip-path="url(#pdc0ed90baa)" d="M 374.1655 181.234391 
L 518.42675 181.234391 
" style="fill:none;stroke:#ffffff;stroke-linecap:round;"/>
     </g>
    </g>
    <g id="ytick_14">
     <g id="line2d_20">
      <path clip-path="url(#pdc0ed90baa)" d="M 374.1655 125.94653 
L 518.42675 125.94653 
" style="fill:none;stroke:#ffffff;stroke-linecap:round;"/>
     </g>
    </g>
    <g id="ytick_15">
     <g id="line2d_21">
      <path clip-path="url(#pdc0ed90baa)" d="M 374.1655 70.658669 
L 518.42675 70.658669 
" style="fill:none;stroke:#ffffff;stroke-linecap:round;"/>
     </g>
    </g>
   </g>
   <g id="PathCollection_7">
    <g clip-path="url(#pdc0ed90baa)">
     <use style="fill:#176d9c;stroke:#176d9c;" x="398.209042" xlink:href="#m06c8b46967" y="291.810112"/>
     <use style="fill:#176d9c;stroke:#176d9c;" x="398.209042" xlink:href="#m06c8b46967" y="286.281326"/>
     <use style="fill:#176d9c;stroke:#176d9c;" x="398.209042" xlink:href="#m06c8b46967" y="286.281326"/>
     <use style="fill:#176d9c;stroke:#176d9c;" x="398.209042" xlink:href="#m06c8b46967" y="103.831385"/>
     <use style="fill:#176d9c;stroke:#176d9c;" x="398.209042" xlink:href="#m06c8b46967" y="131.475316"/>
     <use style="fill:#176d9c;stroke:#176d9c;" x="398.209042" xlink:href="#m06c8b46967" y="137.004102"/>
     <use style="fill:#176d9c;stroke:#176d9c;" x="398.209042" xlink:href="#m06c8b46967" y="137.004102"/>
    </g>
   </g>
   <g id="PatchCollection_7">
    <path clip-path="url(#pdc0ed90baa)" d="M 398.133906 280.75254 
L 398.284178 280.75254 
L 398.284178 138.229721 
L 398.133906 138.229721 
z
" style="fill:#ffffff;stroke:#ffffff;"/>
    <path clip-path="url(#pdc0ed90baa)" d="M 398.05877 280.75254 
L 398.359314 280.75254 
L 398.359314 144.984127 
L 398.05877 144.984127 
z
" style="fill:#e2edf3;stroke:#ffffff;"/>
    <path clip-path="url(#pdc0ed90baa)" d="M 397.908497 275.223754 
L 398.509586 275.223754 
L 398.509586 153.59046 
L 397.908497 153.59046 
z
" style="fill:#c5dae6;stroke:#ffffff;"/>
    <path clip-path="url(#pdc0ed90baa)" d="M 397.607953 264.166182 
L 398.81013 264.166182 
L 398.81013 159.119246 
L 397.607953 159.119246 
z
" style="fill:#a8c8da;stroke:#ffffff;"/>
    <path clip-path="url(#pdc0ed90baa)" d="M 397.006865 258.637396 
L 399.411219 258.637396 
L 399.411219 164.648032 
L 397.006865 164.648032 
z
" style="fill:#8bb6cd;stroke:#ffffff;"/>
    <path clip-path="url(#pdc0ed90baa)" d="M 395.804688 251.884378 
L 400.613396 251.884378 
L 400.613396 175.705604 
L 395.804688 175.705604 
z
" style="fill:#6ea3c1;stroke:#ffffff;"/>
    <path clip-path="url(#pdc0ed90baa)" d="M 393.400333 242.051037 
L 403.01775 242.051037 
L 403.01775 181.234391 
L 393.400333 181.234391 
z
" style="fill:#5091b4;stroke:#ffffff;"/>
    <path clip-path="url(#pdc0ed90baa)" d="M 388.591625 234.310737 
L 407.826458 234.310737 
L 407.826458 192.291963 
L 388.591625 192.291963 
z
" style="fill:#337ea8;stroke:#ffffff;"/>
    <path clip-path="url(#pdc0ed90baa)" d="M 378.974208 225.464679 
L 417.443875 225.464679 
L 417.443875 203.349535 
L 378.974208 203.349535 
z
" style="fill:#176d9c;stroke:#ffffff;"/>
   </g>
   <g id="PathCollection_8">
    <g clip-path="url(#pdc0ed90baa)">
     <use style="fill:#c38820;stroke:#c38820;" x="446.296125" xlink:href="#mc00bd36914" y="269.694968"/>
     <use style="fill:#c38820;stroke:#c38820;" x="446.296125" xlink:href="#mc00bd36914" y="275.223754"/>
     <use style="fill:#c38820;stroke:#c38820;" x="446.296125" xlink:href="#mc00bd36914" y="275.223754"/>
     <use style="fill:#c38820;stroke:#c38820;" x="446.296125" xlink:href="#mc00bd36914" y="266.535662"/>
     <use style="fill:#c38820;stroke:#c38820;" x="446.296125" xlink:href="#mc00bd36914" y="120.417744"/>
     <use style="fill:#c38820;stroke:#c38820;" x="446.296125" xlink:href="#mc00bd36914" y="120.417744"/>
     <use style="fill:#c38820;stroke:#c38820;" x="446.296125" xlink:href="#mc00bd36914" y="120.417744"/>
     <use style="fill:#c38820;stroke:#c38820;" x="446.296125" xlink:href="#mc00bd36914" y="114.888957"/>
    </g>
   </g>
   <g id="PatchCollection_8">
    <path clip-path="url(#pdc0ed90baa)" d="M 446.220989 266.010396 
L 446.371261 266.010396 
L 446.371261 121.643363 
L 446.220989 121.643363 
z
" style="fill:#ffffff;stroke:#ffffff;"/>
    <path clip-path="url(#pdc0ed90baa)" d="M 446.145853 258.637396 
L 446.446397 258.637396 
L 446.446397 128.047592 
L 446.145853 128.047592 
z
" style="fill:#f7f0e3;stroke:#ffffff;"/>
    <path clip-path="url(#pdc0ed90baa)" d="M 445.995581 253.10861 
L 446.596669 253.10861 
L 446.596669 136.377794 
L 445.995581 136.377794 
z
" style="fill:#f0e1c7;stroke:#ffffff;"/>
    <path clip-path="url(#pdc0ed90baa)" d="M 445.695036 248.08087 
L 446.897214 248.08087 
L 446.897214 142.532888 
L 445.695036 142.532888 
z
" style="fill:#e8d2ab;stroke:#ffffff;"/>
    <path clip-path="url(#pdc0ed90baa)" d="M 445.093948 242.051037 
L 447.498302 242.051037 
L 447.498302 148.061674 
L 445.093948 148.061674 
z
" style="fill:#e1c38f;stroke:#ffffff;"/>
    <path clip-path="url(#pdc0ed90baa)" d="M 443.891771 236.522251 
L 448.700479 236.522251 
L 448.700479 159.119246 
L 443.891771 159.119246 
z
" style="fill:#d9b473;stroke:#ffffff;"/>
    <path clip-path="url(#pdc0ed90baa)" d="M 441.487417 225.464679 
L 451.104833 225.464679 
L 451.104833 165.753789 
L 441.487417 165.753789 
z
" style="fill:#d2a557;stroke:#ffffff;"/>
    <path clip-path="url(#pdc0ed90baa)" d="M 436.678708 219.146067 
L 455.913542 219.146067 
L 455.913542 175.705604 
L 436.678708 175.705604 
z
" style="fill:#ca963b;stroke:#ffffff;"/>
    <path clip-path="url(#pdc0ed90baa)" d="M 427.061292 208.878321 
L 465.530958 208.878321 
L 465.530958 185.657419 
L 427.061292 185.657419 
z
" style="fill:#c38820;stroke:#ffffff;"/>
   </g>
   <g id="PathCollection_9">
    <g clip-path="url(#pdc0ed90baa)">
     <use style="fill:#158b6a;stroke:#158b6a;" x="494.383208" xlink:href="#m21bb6c38cd" y="264.166182"/>
     <use style="fill:#158b6a;stroke:#158b6a;" x="494.383208" xlink:href="#m21bb6c38cd" y="264.166182"/>
     <use style="fill:#158b6a;stroke:#158b6a;" x="494.383208" xlink:href="#m21bb6c38cd" y="92.773813"/>
     <use style="fill:#158b6a;stroke:#158b6a;" x="494.383208" xlink:href="#m21bb6c38cd" y="109.360171"/>
     <use style="fill:#158b6a;stroke:#158b6a;" x="494.383208" xlink:href="#m21bb6c38cd" y="109.360171"/>
     <use style="fill:#158b6a;stroke:#158b6a;" x="494.383208" xlink:href="#m21bb6c38cd" y="109.360171"/>
    </g>
   </g>
   <g id="PatchCollection_9">
    <path clip-path="url(#pdc0ed90baa)" d="M 494.308072 258.637396 
L 494.458344 258.637396 
L 494.458344 111.811411 
L 494.308072 111.811411 
z
" style="fill:#ffffff;stroke:#ffffff;"/>
    <path clip-path="url(#pdc0ed90baa)" d="M 494.232936 253.10861 
L 494.53348 253.10861 
L 494.53348 120.417744 
L 494.232936 120.417744 
z
" style="fill:#e2f0ec;stroke:#ffffff;"/>
    <path clip-path="url(#pdc0ed90baa)" d="M 494.082664 247.937714 
L 494.683753 247.937714 
L 494.683753 131.475316 
L 494.082664 131.475316 
z
" style="fill:#c4e2da;stroke:#ffffff;"/>
    <path clip-path="url(#pdc0ed90baa)" d="M 493.78212 242.051037 
L 494.984297 242.051037 
L 494.984297 137.004102 
L 493.78212 137.004102 
z
" style="fill:#a7d3c7;stroke:#ffffff;"/>
    <path clip-path="url(#pdc0ed90baa)" d="M 493.181031 236.522251 
L 495.585385 236.522251 
L 495.585385 144.704911 
L 493.181031 144.704911 
z
" style="fill:#8ac5b4;stroke:#ffffff;"/>
    <path clip-path="url(#pdc0ed90baa)" d="M 491.978854 229.887708 
L 496.787563 229.887708 
L 496.787563 153.59046 
L 491.978854 153.59046 
z
" style="fill:#6cb6a2;stroke:#ffffff;"/>
    <path clip-path="url(#pdc0ed90baa)" d="M 489.5745 221.04165 
L 499.191917 221.04165 
L 499.191917 164.648032 
L 489.5745 164.648032 
z
" style="fill:#4fa78f;stroke:#ffffff;"/>
    <path clip-path="url(#pdc0ed90baa)" d="M 484.765792 214.407107 
L 504.000625 214.407107 
L 504.000625 171.756472 
L 484.765792 171.756472 
z
" style="fill:#32997c;stroke:#ffffff;"/>
    <path clip-path="url(#pdc0ed90baa)" d="M 475.148375 203.902413 
L 513.618042 203.902413 
L 513.618042 181.234391 
L 475.148375 181.234391 
z
" style="fill:#158b6a;stroke:#ffffff;"/>
   </g>
   <g id="line2d_22">
    <path clip-path="url(#pdc0ed90baa)" d="M 378.974208 214.407107 
L 417.443875 214.407107 
" style="fill:none;stroke:#262626;stroke-linecap:round;stroke-opacity:0.45;stroke-width:1.5;"/>
   </g>
   <g id="line2d_23">
    <path clip-path="url(#pdc0ed90baa)" d="M 427.061292 197.820749 
L 465.530958 197.820749 
" style="fill:none;stroke:#262626;stroke-linecap:round;stroke-opacity:0.45;stroke-width:1.5;"/>
   </g>
   <g id="line2d_24">
    <path clip-path="url(#pdc0ed90baa)" d="M 475.148375 193.029134 
L 513.618042 193.029134 
" style="fill:none;stroke:#262626;stroke-linecap:round;stroke-opacity:0.45;stroke-width:1.5;"/>
   </g>
   <g id="patch_9">
    <path d="M 374.1655 334.744 
L 374.1655 43.2 
" style="fill:none;stroke:#ffffff;stroke-linecap:square;stroke-linejoin:miter;stroke-width:1.25;"/>
   </g>
   <g id="patch_10">
    <path d="M 374.1655 334.744 
L 518.42675 334.744 
" style="fill:none;stroke:#ffffff;stroke-linecap:square;stroke-linejoin:miter;stroke-width:1.25;"/>
   </g>
   <g id="text_21">
    <!-- clusters = 16 -->
    <defs>
     <path d="M 12.40625 8.296875 
L 28.515625 8.296875 
L 28.515625 63.921875 
L 10.984375 60.40625 
L 10.984375 69.390625 
L 28.421875 72.90625 
L 38.28125 72.90625 
L 38.28125 8.296875 
L 54.390625 8.296875 
L 54.390625 0 
L 12.40625 0 
z
" id="DejaVuSans-49"/>
    </defs>
    <g style="fill:#262626;" transform="translate(402.288563 37.2)scale(0.132 -0.132)">
     <use xlink:href="#DejaVuSans-99"/>
     <use x="54.980469" xlink:href="#DejaVuSans-108"/>
     <use x="82.763672" xlink:href="#DejaVuSans-117"/>
     <use x="146.142578" xlink:href="#DejaVuSans-115"/>
     <use x="198.242188" xlink:href="#DejaVuSans-116"/>
     <use x="237.451172" xlink:href="#DejaVuSans-101"/>
     <use x="298.974609" xlink:href="#DejaVuSans-114"/>
     <use x="340.087891" xlink:href="#DejaVuSans-115"/>
     <use x="392.1875" xlink:href="#DejaVuSans-32"/>
     <use x="423.974609" xlink:href="#DejaVuSans-61"/>
     <use x="507.763672" xlink:href="#DejaVuSans-32"/>
     <use x="539.550781" xlink:href="#DejaVuSans-49"/>
     <use x="603.173828" xlink:href="#DejaVuSans-54"/>
    </g>
   </g>
  </g>
  <g id="axes_4">
   <g id="patch_11">
    <path d="M 532.68275 334.744 
L 676.944 334.744 
L 676.944 43.2 
L 532.68275 43.2 
z
" style="fill:#eaeaf2;"/>
   </g>
   <g id="matplotlib.axis_7">
    <g id="xtick_10">
     <g id="text_22">
      <!--   kmeans -->
      <g style="fill:#262626;" transform="translate(560.065135 399.559906)rotate(-90)scale(0.121 -0.121)">
       <use xlink:href="#DejaVuSans-32"/>
       <use x="31.787109" xlink:href="#DejaVuSans-32"/>
       <use x="63.574219" xlink:href="#DejaVuSans-107"/>
       <use x="121.484375" xlink:href="#DejaVuSans-109"/>
       <use x="218.896484" xlink:href="#DejaVuSans-101"/>
       <use x="280.419922" xlink:href="#DejaVuSans-97"/>
       <use x="341.699219" xlink:href="#DejaVuSans-110"/>
       <use x="405.078125" xlink:href="#DejaVuSans-115"/>
      </g>
     </g>
    </g>
    <g id="xtick_11">
     <g id="text_23">
      <!--    metis -->
      <g style="fill:#262626;" transform="translate(608.152219 389.420484)rotate(-90)scale(0.121 -0.121)">
       <use xlink:href="#DejaVuSans-32"/>
       <use x="31.787109" xlink:href="#DejaVuSans-32"/>
       <use x="63.574219" xlink:href="#DejaVuSans-32"/>
       <use x="95.361328" xlink:href="#DejaVuSans-109"/>
       <use x="192.773438" xlink:href="#DejaVuSans-101"/>
       <use x="254.296875" xlink:href="#DejaVuSans-116"/>
       <use x="293.505859" xlink:href="#DejaVuSans-105"/>
       <use x="321.289062" xlink:href="#DejaVuSans-115"/>
      </g>
     </g>
    </g>
    <g id="xtick_12">
     <g id="text_24">
      <!--      hub -->
      <g style="fill:#262626;" transform="translate(656.239302 386.490016)rotate(-90)scale(0.121 -0.121)">
       <use xlink:href="#DejaVuSans-32"/>
       <use x="31.787109" xlink:href="#DejaVuSans-32"/>
       <use x="63.574219" xlink:href="#DejaVuSans-32"/>
       <use x="95.361328" xlink:href="#DejaVuSans-32"/>
       <use x="127.148438" xlink:href="#DejaVuSans-32"/>
       <use x="158.935547" xlink:href="#DejaVuSans-104"/>
       <use x="222.314453" xlink:href="#DejaVuSans-117"/>
       <use x="285.693359" xlink:href="#DejaVuSans-98"/>
      </g>
     </g>
    </g>
    <g id="text_25">
     <!-- Method -->
     <g style="fill:#262626;" transform="translate(580.05925 413.589844)scale(0.132 -0.132)">
      <use xlink:href="#DejaVuSans-77"/>
      <use x="86.279297" xlink:href="#DejaVuSans-101"/>
      <use x="147.802734" xlink:href="#DejaVuSans-116"/>
      <use x="187.011719" xlink:href="#DejaVuSans-104"/>
      <use x="250.390625" xlink:href="#DejaVuSans-111"/>
      <use x="311.572266" xlink:href="#DejaVuSans-100"/>
     </g>
    </g>
   </g>
   <g id="matplotlib.axis_8">
    <g id="ytick_16">
     <g id="line2d_25">
      <path clip-path="url(#p1298bf0fda)" d="M 532.68275 291.810112 
L 676.944 291.810112 
" style="fill:none;stroke:#ffffff;stroke-linecap:round;"/>
     </g>
    </g>
    <g id="ytick_17">
     <g id="line2d_26">
      <path clip-path="url(#p1298bf0fda)" d="M 532.68275 236.522251 
L 676.944 236.522251 
" style="fill:none;stroke:#ffffff;stroke-linecap:round;"/>
     </g>
    </g>
    <g id="ytick_18">
     <g id="line2d_27">
      <path clip-path="url(#p1298bf0fda)" d="M 532.68275 181.234391 
L 676.944 181.234391 
" style="fill:none;stroke:#ffffff;stroke-linecap:round;"/>
     </g>
    </g>
    <g id="ytick_19">
     <g id="line2d_28">
      <path clip-path="url(#p1298bf0fda)" d="M 532.68275 125.94653 
L 676.944 125.94653 
" style="fill:none;stroke:#ffffff;stroke-linecap:round;"/>
     </g>
    </g>
    <g id="ytick_20">
     <g id="line2d_29">
      <path clip-path="url(#p1298bf0fda)" d="M 532.68275 70.658669 
L 676.944 70.658669 
" style="fill:none;stroke:#ffffff;stroke-linecap:round;"/>
     </g>
    </g>
   </g>
   <g id="PathCollection_10">
    <g clip-path="url(#p1298bf0fda)">
     <use style="fill:#176d9c;stroke:#176d9c;" x="556.726292" xlink:href="#m06c8b46967" y="280.75254"/>
     <use style="fill:#176d9c;stroke:#176d9c;" x="556.726292" xlink:href="#m06c8b46967" y="269.694968"/>
     <use style="fill:#176d9c;stroke:#176d9c;" x="556.726292" xlink:href="#m06c8b46967" y="269.694968"/>
     <use style="fill:#176d9c;stroke:#176d9c;" x="556.726292" xlink:href="#m06c8b46967" y="269.694968"/>
     <use style="fill:#176d9c;stroke:#176d9c;" x="556.726292" xlink:href="#m06c8b46967" y="131.475316"/>
     <use style="fill:#176d9c;stroke:#176d9c;" x="556.726292" xlink:href="#m06c8b46967" y="120.417744"/>
     <use style="fill:#176d9c;stroke:#176d9c;" x="556.726292" xlink:href="#m06c8b46967" y="109.360171"/>
    </g>
   </g>
   <g id="PatchCollection_10">
    <path clip-path="url(#p1298bf0fda)" d="M 556.651156 268.469348 
L 556.801428 268.469348 
L 556.801428 137.004102 
L 556.651156 137.004102 
z
" style="fill:#ffffff;stroke:#ffffff;"/>
    <path clip-path="url(#p1298bf0fda)" d="M 556.57602 264.166182 
L 556.876564 264.166182 
L 556.876564 137.004102 
L 556.57602 137.004102 
z
" style="fill:#e2edf3;stroke:#ffffff;"/>
    <path clip-path="url(#p1298bf0fda)" d="M 556.425747 258.637396 
L 557.026836 258.637396 
L 557.026836 141.283975 
L 556.425747 141.283975 
z
" style="fill:#c5dae6;stroke:#ffffff;"/>
    <path clip-path="url(#p1298bf0fda)" d="M 556.125203 247.579824 
L 557.32738 247.579824 
L 557.32738 142.532888 
L 556.125203 142.532888 
z
" style="fill:#a8c8da;stroke:#ffffff;"/>
    <path clip-path="url(#p1298bf0fda)" d="M 555.524115 242.552084 
L 557.928469 242.552084 
L 557.928469 152.800633 
L 555.524115 152.800633 
z
" style="fill:#8bb6cd;stroke:#ffffff;"/>
    <path clip-path="url(#p1298bf0fda)" d="M 554.321938 236.522251 
L 559.130646 236.522251 
L 559.130646 159.119246 
L 554.321938 159.119246 
z
" style="fill:#6ea3c1;stroke:#ffffff;"/>
    <path clip-path="url(#p1298bf0fda)" d="M 551.917583 228.623986 
L 561.535 228.623986 
L 561.535 170.176818 
L 551.917583 170.176818 
z
" style="fill:#5091b4;stroke:#ffffff;"/>
    <path clip-path="url(#p1298bf0fda)" d="M 547.108875 219.935893 
L 566.343708 219.935893 
L 566.343708 178.075084 
L 547.108875 178.075084 
z
" style="fill:#337ea8;stroke:#ffffff;"/>
    <path clip-path="url(#p1298bf0fda)" d="M 537.491458 211.089835 
L 575.961125 211.089835 
L 575.961125 187.553003 
L 537.491458 187.553003 
z
" style="fill:#176d9c;stroke:#ffffff;"/>
   </g>
   <g id="PathCollection_11">
    <g clip-path="url(#p1298bf0fda)">
     <use style="fill:#c38820;stroke:#c38820;" x="604.813375" xlink:href="#mc00bd36914" y="264.166182"/>
     <use style="fill:#c38820;stroke:#c38820;" x="604.813375" xlink:href="#mc00bd36914" y="253.10861"/>
     <use style="fill:#c38820;stroke:#c38820;" x="604.813375" xlink:href="#mc00bd36914" y="258.637396"/>
     <use style="fill:#c38820;stroke:#c38820;" x="604.813375" xlink:href="#mc00bd36914" y="103.831385"/>
     <use style="fill:#c38820;stroke:#c38820;" x="604.813375" xlink:href="#mc00bd36914" y="70.658669"/>
     <use style="fill:#c38820;stroke:#c38820;" x="604.813375" xlink:href="#mc00bd36914" y="103.831385"/>
    </g>
   </g>
   <g id="PatchCollection_11">
    <path clip-path="url(#p1298bf0fda)" d="M 604.738239 247.579824 
L 604.888511 247.579824 
L 604.888511 109.360171 
L 604.738239 109.360171 
z
" style="fill:#ffffff;stroke:#ffffff;"/>
    <path clip-path="url(#p1298bf0fda)" d="M 604.663103 247.579824 
L 604.963647 247.579824 
L 604.963647 114.888957 
L 604.663103 114.888957 
z
" style="fill:#f7f0e3;stroke:#ffffff;"/>
    <path clip-path="url(#p1298bf0fda)" d="M 604.512831 241.350683 
L 605.113919 241.350683 
L 605.113919 119.16883 
L 604.512831 119.16883 
z
" style="fill:#f0e1c7;stroke:#ffffff;"/>
    <path clip-path="url(#p1298bf0fda)" d="M 604.212286 230.993465 
L 605.414464 230.993465 
L 605.414464 124.944437 
L 604.212286 124.944437 
z
" style="fill:#e8d2ab;stroke:#ffffff;"/>
    <path clip-path="url(#p1298bf0fda)" d="M 603.611198 225.464679 
L 606.015552 225.464679 
L 606.015552 131.475316 
L 603.611198 131.475316 
z
" style="fill:#e1c38f;stroke:#ffffff;"/>
    <path clip-path="url(#p1298bf0fda)" d="M 602.409021 214.407107 
L 607.217729 214.407107 
L 607.217729 137.004102 
L 602.409021 137.004102 
z
" style="fill:#d9b473;stroke:#ffffff;"/>
    <path clip-path="url(#p1298bf0fda)" d="M 600.004667 207.772564 
L 609.622083 207.772564 
L 609.622083 143.381951 
L 600.004667 143.381951 
z
" style="fill:#d2a557;stroke:#ffffff;"/>
    <path clip-path="url(#p1298bf0fda)" d="M 595.195958 197.820749 
L 614.430792 197.820749 
L 614.430792 153.59046 
L 595.195958 153.59046 
z
" style="fill:#ca963b;stroke:#ffffff;"/>
    <path clip-path="url(#p1298bf0fda)" d="M 585.578542 186.763177 
L 624.048208 186.763177 
L 624.048208 164.648032 
L 585.578542 164.648032 
z
" style="fill:#c38820;stroke:#ffffff;"/>
   </g>
   <g id="PathCollection_12">
    <g clip-path="url(#p1298bf0fda)">
     <use style="fill:#158b6a;stroke:#158b6a;" x="652.900458" xlink:href="#m21bb6c38cd" y="242.051037"/>
     <use style="fill:#158b6a;stroke:#158b6a;" x="652.900458" xlink:href="#m21bb6c38cd" y="241.261211"/>
     <use style="fill:#158b6a;stroke:#158b6a;" x="652.900458" xlink:href="#m21bb6c38cd" y="250.73913"/>
     <use style="fill:#158b6a;stroke:#158b6a;" x="652.900458" xlink:href="#m21bb6c38cd" y="76.187455"/>
     <use style="fill:#158b6a;stroke:#158b6a;" x="652.900458" xlink:href="#m21bb6c38cd" y="59.601097"/>
    </g>
   </g>
   <g id="PatchCollection_12">
    <path clip-path="url(#p1298bf0fda)" d="M 652.825322 230.993465 
L 652.975594 230.993465 
L 652.975594 87.245027 
L 652.825322 87.245027 
z
" style="fill:#ffffff;stroke:#ffffff;"/>
    <path clip-path="url(#p1298bf0fda)" d="M 652.750186 225.464679 
L 653.05073 225.464679 
L 653.05073 92.773813 
L 652.750186 92.773813 
z
" style="fill:#e2f0ec;stroke:#ffffff;"/>
    <path clip-path="url(#p1298bf0fda)" d="M 652.599914 219.935893 
L 653.201003 219.935893 
L 653.201003 92.773813 
L 652.599914 92.773813 
z
" style="fill:#c4e2da;stroke:#ffffff;"/>
    <path clip-path="url(#p1298bf0fda)" d="M 652.29937 214.407107 
L 653.501547 214.407107 
L 653.501547 103.831385 
L 652.29937 103.831385 
z
" style="fill:#a7d3c7;stroke:#ffffff;"/>
    <path clip-path="url(#p1298bf0fda)" d="M 651.698281 208.878321 
L 654.102635 208.878321 
L 654.102635 109.360171 
L 651.698281 109.360171 
z
" style="fill:#8ac5b4;stroke:#ffffff;"/>
    <path clip-path="url(#p1298bf0fda)" d="M 650.496104 197.820749 
L 655.304813 197.820749 
L 655.304813 120.452298 
L 650.496104 120.452298 
z
" style="fill:#6cb6a2;stroke:#ffffff;"/>
    <path clip-path="url(#p1298bf0fda)" d="M 648.09175 190.080448 
L 657.709167 190.080448 
L 657.709167 131.475316 
L 648.09175 131.475316 
z
" style="fill:#4fa78f;stroke:#ffffff;"/>
    <path clip-path="url(#p1298bf0fda)" d="M 643.283042 181.234391 
L 662.517875 181.234391 
L 662.517875 139.952788 
L 643.283042 139.952788 
z
" style="fill:#32997c;stroke:#ffffff;"/>
    <path clip-path="url(#p1298bf0fda)" d="M 633.665625 171.756472 
L 672.135292 171.756472 
L 672.135292 148.061674 
L 633.665625 148.061674 
z
" style="fill:#158b6a;stroke:#ffffff;"/>
   </g>
   <g id="line2d_30">
    <path clip-path="url(#p1298bf0fda)" d="M 537.491458 198.963033 
L 575.961125 198.963033 
" style="fill:none;stroke:#262626;stroke-linecap:round;stroke-opacity:0.45;stroke-width:1.5;"/>
   </g>
   <g id="line2d_31">
    <path clip-path="url(#p1298bf0fda)" d="M 585.578542 175.705604 
L 624.048208 175.705604 
" style="fill:none;stroke:#262626;stroke-linecap:round;stroke-opacity:0.45;stroke-width:1.5;"/>
   </g>
   <g id="line2d_32">
    <path clip-path="url(#p1298bf0fda)" d="M 633.665625 160.593589 
L 672.135292 160.593589 
" style="fill:none;stroke:#262626;stroke-linecap:round;stroke-opacity:0.45;stroke-width:1.5;"/>
   </g>
   <g id="patch_12">
    <path d="M 532.68275 334.744 
L 532.68275 43.2 
" style="fill:none;stroke:#ffffff;stroke-linecap:square;stroke-linejoin:miter;stroke-width:1.25;"/>
   </g>
   <g id="patch_13">
    <path d="M 532.68275 334.744 
L 676.944 334.744 
" style="fill:none;stroke:#ffffff;stroke-linecap:square;stroke-linejoin:miter;stroke-width:1.25;"/>
   </g>
   <g id="text_26">
    <!-- clusters = 32 -->
    <g style="fill:#262626;" transform="translate(560.805813 37.2)scale(0.132 -0.132)">
     <use xlink:href="#DejaVuSans-99"/>
     <use x="54.980469" xlink:href="#DejaVuSans-108"/>
     <use x="82.763672" xlink:href="#DejaVuSans-117"/>
     <use x="146.142578" xlink:href="#DejaVuSans-115"/>
     <use x="198.242188" xlink:href="#DejaVuSans-116"/>
     <use x="237.451172" xlink:href="#DejaVuSans-101"/>
     <use x="298.974609" xlink:href="#DejaVuSans-114"/>
     <use x="340.087891" xlink:href="#DejaVuSans-115"/>
     <use x="392.1875" xlink:href="#DejaVuSans-32"/>
     <use x="423.974609" xlink:href="#DejaVuSans-61"/>
     <use x="507.763672" xlink:href="#DejaVuSans-32"/>
     <use x="539.550781" xlink:href="#DejaVuSans-51"/>
     <use x="603.173828" xlink:href="#DejaVuSans-50"/>
    </g>
   </g>
  </g>
  <g id="text_27">
   <!-- Warm cache hit rates (higher is better) -->
   <defs>
    <path d="M 3.328125 72.90625 
L 13.28125 72.90625 
L 28.609375 11.28125 
L 43.890625 72.90625 
L 54.984375 72.90625 
L 70.3125 11.28125 
L 85.59375 72.90625 
L 95.609375 72.90625 
L 77.296875 0 
L 64.890625 0 
L 49.515625 63.28125 
L 33.984375 0 
L 21.578125 0 
z
" id="DejaVuSans-87"/>
    <path d="M 45.40625 27.984375 
Q 45.40625 37.75 41.375 43.109375 
Q 37.359375 48.484375 30.078125 48.484375 
Q 22.859375 48.484375 18.828125 43.109375 
Q 14.796875 37.75 14.796875 27.984375 
Q 14.796875 18.265625 18.828125 12.890625 
Q 22.859375 7.515625 30.078125 7.515625 
Q 37.359375 7.515625 41.375 12.890625 
Q 45.40625 18.265625 45.40625 27.984375 
z
M 54.390625 6.78125 
Q 54.390625 -7.171875 48.1875 -13.984375 
Q 42 -20.796875 29.203125 -20.796875 
Q 24.46875 -20.796875 20.265625 -20.09375 
Q 16.0625 -19.390625 12.109375 -17.921875 
L 12.109375 -9.1875 
Q 16.0625 -11.328125 19.921875 -12.34375 
Q 23.78125 -13.375 27.78125 -13.375 
Q 36.625 -13.375 41.015625 -8.765625 
Q 45.40625 -4.15625 45.40625 5.171875 
L 45.40625 9.625 
Q 42.625 4.78125 38.28125 2.390625 
Q 33.9375 0 27.875 0 
Q 17.828125 0 11.671875 7.65625 
Q 5.515625 15.328125 5.515625 27.984375 
Q 5.515625 40.671875 11.671875 48.328125 
Q 17.828125 56 27.875 56 
Q 33.9375 56 38.28125 53.609375 
Q 42.625 51.21875 45.40625 46.390625 
L 45.40625 54.6875 
L 54.390625 54.6875 
z
" id="DejaVuSans-103"/>
   </defs>
   <g style="fill:#262626;" transform="translate(190.715738 20.675925)scale(0.1584 -0.1584)">
    <use xlink:href="#DejaVuSans-87"/>
    <use x="98.783203" xlink:href="#DejaVuSans-97"/>
    <use x="160.0625" xlink:href="#DejaVuSans-114"/>
    <use x="201.160156" xlink:href="#DejaVuSans-109"/>
    <use x="298.572266" xlink:href="#DejaVuSans-32"/>
    <use x="330.359375" xlink:href="#DejaVuSans-99"/>
    <use x="385.339844" xlink:href="#DejaVuSans-97"/>
    <use x="446.619141" xlink:href="#DejaVuSans-99"/>
    <use x="501.599609" xlink:href="#DejaVuSans-104"/>
    <use x="564.978516" xlink:href="#DejaVuSans-101"/>
    <use x="626.501953" xlink:href="#DejaVuSans-32"/>
    <use x="658.289062" xlink:href="#DejaVuSans-104"/>
    <use x="721.667969" xlink:href="#DejaVuSans-105"/>
    <use x="749.451172" xlink:href="#DejaVuSans-116"/>
    <use x="788.660156" xlink:href="#DejaVuSans-32"/>
    <use x="820.447266" xlink:href="#DejaVuSans-114"/>
    <use x="861.560547" xlink:href="#DejaVuSans-97"/>
    <use x="922.839844" xlink:href="#DejaVuSans-116"/>
    <use x="962.048828" xlink:href="#DejaVuSans-101"/>
    <use x="1023.572266" xlink:href="#DejaVuSans-115"/>
    <use x="1075.671875" xlink:href="#DejaVuSans-32"/>
    <use x="1107.458984" xlink:href="#DejaVuSans-40"/>
    <use x="1146.472656" xlink:href="#DejaVuSans-104"/>
    <use x="1209.851562" xlink:href="#DejaVuSans-105"/>
    <use x="1237.634766" xlink:href="#DejaVuSans-103"/>
    <use x="1301.111328" xlink:href="#DejaVuSans-104"/>
    <use x="1364.490234" xlink:href="#DejaVuSans-101"/>
    <use x="1426.013672" xlink:href="#DejaVuSans-114"/>
    <use x="1467.126953" xlink:href="#DejaVuSans-32"/>
    <use x="1498.914062" xlink:href="#DejaVuSans-105"/>
    <use x="1526.697266" xlink:href="#DejaVuSans-115"/>
    <use x="1578.796875" xlink:href="#DejaVuSans-32"/>
    <use x="1610.583984" xlink:href="#DejaVuSans-98"/>
    <use x="1674.060547" xlink:href="#DejaVuSans-101"/>
    <use x="1735.583984" xlink:href="#DejaVuSans-116"/>
    <use x="1774.792969" xlink:href="#DejaVuSans-116"/>
    <use x="1814.001953" xlink:href="#DejaVuSans-101"/>
    <use x="1875.525391" xlink:href="#DejaVuSans-114"/>
    <use x="1916.638672" xlink:href="#DejaVuSans-41"/>
   </g>
  </g>
 </g>
 <defs>
  <clipPath id="p1013ae0e98">
   <rect height="291.544" width="144.26125" x="57.131" y="43.2"/>
  </clipPath>
  <clipPath id="p8330f3514a">
   <rect height="291.544" width="144.26125" x="215.64825" y="43.2"/>
  </clipPath>
  <clipPath id="pdc0ed90baa">
   <rect height="291.544" width="144.26125" x="374.1655" y="43.2"/>
  </clipPath>
  <clipPath id="p1298bf0fda">
   <rect height="291.544" width="144.26125" x="532.68275" y="43.2"/>
  </clipPath>
 </defs>
</svg>
