<?xml version="1.0" encoding="utf-8" standalone="no"?>
<!DOCTYPE svg PUBLIC "-//W3C//DTD SVG 1.1//EN"
  "http://www.w3.org/Graphics/SVG/1.1/DTD/svg11.dtd">
<!-- Created with matplotlib (https://matplotlib.org/) -->
<svg height="432pt" version="1.1" viewBox="0 0 432 432" width="432pt" xmlns="http://www.w3.org/2000/svg" xmlns:xlink="http://www.w3.org/1999/xlink">
 <defs>
  <style type="text/css">
*{stroke-linecap:butt;stroke-linejoin:round;}
  </style>
 </defs>
 <g id="figure_1">
  <g id="patch_1">
   <path d="M 0 432 
L 432 432 
L 432 0 
L 0 0 
z
" style="fill:#ffffff;"/>
  </g>
  <g id="axes_1">
   <g id="patch_2">
    <path d="M 57.131 377.244 
L 404.769 377.244 
L 404.769 31.256 
L 57.131 31.256 
z
" style="fill:#eaeaf2;"/>
   </g>
   <g id="matplotlib.axis_1">
    <g id="xtick_1">
     <g id="text_1">
      <!-- 4 -->
      <defs>
       <path d="M 37.796875 64.3125 
L 12.890625 25.390625 
L 37.796875 25.390625 
z
M 35.203125 72.90625 
L 47.609375 72.90625 
L 47.609375 25.390625 
L 58.015625 25.390625 
L 58.015625 17.1875 
L 47.609375 17.1875 
L 47.609375 0 
L 37.796875 0 
L 37.796875 17.1875 
L 4.890625 17.1875 
L 4.890625 26.703125 
z
" id="DejaVuSans-52"/>
      </defs>
      <g style="fill:#262626;" transform="translate(96.736438 395.938109)scale(0.121 -0.121)">
       <use xlink:href="#DejaVuSans-52"/>
      </g>
     </g>
    </g>
    <g id="xtick_2">
     <g id="text_2">
      <!-- 8 -->
      <defs>
       <path d="M 31.78125 34.625 
Q 24.75 34.625 20.71875 30.859375 
Q 16.703125 27.09375 16.703125 20.515625 
Q 16.703125 13.921875 20.71875 10.15625 
Q 24.75 6.390625 31.78125 6.390625 
Q 38.8125 6.390625 42.859375 10.171875 
Q 46.921875 13.96875 46.921875 20.515625 
Q 46.921875 27.09375 42.890625 30.859375 
Q 38.875 34.625 31.78125 34.625 
z
M 21.921875 38.8125 
Q 15.578125 40.375 12.03125 44.71875 
Q 8.5 49.078125 8.5 55.328125 
Q 8.5 64.0625 14.71875 69.140625 
Q 20.953125 74.21875 31.78125 74.21875 
Q 42.671875 74.21875 48.875 69.140625 
Q 55.078125 64.0625 55.078125 55.328125 
Q 55.078125 49.078125 51.53125 44.71875 
Q 48 40.375 41.703125 38.8125 
Q 48.828125 37.15625 52.796875 32.3125 
Q 56.78125 27.484375 56.78125 20.515625 
Q 56.78125 9.90625 50.3125 4.234375 
Q 43.84375 -1.421875 31.78125 -1.421875 
Q 19.734375 -1.421875 13.25 4.234375 
Q 6.78125 9.90625 6.78125 20.515625 
Q 6.78125 27.484375 10.78125 32.3125 
Q 14.796875 37.15625 21.921875 38.8125 
z
M 18.3125 54.390625 
Q 18.3125 48.734375 21.84375 45.5625 
Q 25.390625 42.390625 31.78125 42.390625 
Q 38.140625 42.390625 41.71875 45.5625 
Q 45.3125 48.734375 45.3125 54.390625 
Q 45.3125 60.0625 41.71875 63.234375 
Q 38.140625 66.40625 31.78125 66.40625 
Q 25.390625 66.40625 21.84375 63.234375 
Q 18.3125 60.0625 18.3125 54.390625 
z
" id="DejaVuSans-56"/>
      </defs>
      <g style="fill:#262626;" transform="translate(183.645938 395.938109)scale(0.121 -0.121)">
       <use xlink:href="#DejaVuSans-56"/>
      </g>
     </g>
    </g>
    <g id="xtick_3">
     <g id="text_3">
      <!-- 16 -->
      <defs>
       <path d="M 12.40625 8.296875 
L 28.515625 8.296875 
L 28.515625 63.921875 
L 10.984375 60.40625 
L 10.984375 69.390625 
L 28.421875 72.90625 
L 38.28125 72.90625 
L 38.28125 8.296875 
L 54.390625 8.296875 
L 54.390625 0 
L 12.40625 0 
z
" id="DejaVuSans-49"/>
       <path d="M 33.015625 40.375 
Q 26.375 40.375 22.484375 35.828125 
Q 18.609375 31.296875 18.609375 23.390625 
Q 18.609375 15.53125 22.484375 10.953125 
Q 26.375 6.390625 33.015625 6.390625 
Q 39.65625 6.390625 43.53125 10.953125 
Q 47.40625 15.53125 47.40625 23.390625 
Q 47.40625 31.296875 43.53125 35.828125 
Q 39.65625 40.375 33.015625 40.375 
z
M 52.59375 71.296875 
L 52.59375 62.3125 
Q 48.875 64.0625 45.09375 64.984375 
Q 41.3125 65.921875 37.59375 65.921875 
Q 27.828125 65.921875 22.671875 59.328125 
Q 17.53125 52.734375 16.796875 39.40625 
Q 19.671875 43.65625 24.015625 45.921875 
Q 28.375 48.1875 33.59375 48.1875 
Q 44.578125 48.1875 50.953125 41.515625 
Q 57.328125 34.859375 57.328125 23.390625 
Q 57.328125 12.15625 50.6875 5.359375 
Q 44.046875 -1.421875 33.015625 -1.421875 
Q 20.359375 -1.421875 13.671875 8.265625 
Q 6.984375 17.96875 6.984375 36.375 
Q 6.984375 53.65625 15.1875 63.9375 
Q 23.390625 74.21875 37.203125 74.21875 
Q 40.921875 74.21875 44.703125 73.484375 
Q 48.484375 72.75 52.59375 71.296875 
z
" id="DejaVuSans-54"/>
      </defs>
      <g style="fill:#262626;" transform="translate(266.706125 395.938109)scale(0.121 -0.121)">
       <use xlink:href="#DejaVuSans-49"/>
       <use x="63.623047" xlink:href="#DejaVuSans-54"/>
      </g>
     </g>
    </g>
    <g id="xtick_4">
     <g id="text_4">
      <!-- 32 -->
      <defs>
       <path d="M 40.578125 39.3125 
Q 47.65625 37.796875 51.625 33 
Q 55.609375 28.21875 55.609375 21.1875 
Q 55.609375 10.40625 48.1875 4.484375 
Q 40.765625 -1.421875 27.09375 -1.421875 
Q 22.515625 -1.421875 17.65625 -0.515625 
Q 12.796875 0.390625 7.625 2.203125 
L 7.625 11.71875 
Q 11.71875 9.328125 16.59375 8.109375 
Q 21.484375 6.890625 26.8125 6.890625 
Q 36.078125 6.890625 40.9375 10.546875 
Q 45.796875 14.203125 45.796875 21.1875 
Q 45.796875 27.640625 41.28125 31.265625 
Q 36.765625 34.90625 28.71875 34.90625 
L 20.21875 34.90625 
L 20.21875 43.015625 
L 29.109375 43.015625 
Q 36.375 43.015625 40.234375 45.921875 
Q 44.09375 48.828125 44.09375 54.296875 
Q 44.09375 59.90625 40.109375 62.90625 
Q 36.140625 65.921875 28.71875 65.921875 
Q 24.65625 65.921875 20.015625 65.03125 
Q 15.375 64.15625 9.8125 62.3125 
L 9.8125 71.09375 
Q 15.4375 72.65625 20.34375 73.4375 
Q 25.25 74.21875 29.59375 74.21875 
Q 40.828125 74.21875 47.359375 69.109375 
Q 53.90625 64.015625 53.90625 55.328125 
Q 53.90625 49.265625 50.4375 45.09375 
Q 46.96875 40.921875 40.578125 39.3125 
z
" id="DejaVuSans-51"/>
       <path d="M 19.1875 8.296875 
L 53.609375 8.296875 
L 53.609375 0 
L 7.328125 0 
L 7.328125 8.296875 
Q 12.9375 14.109375 22.625 23.890625 
Q 32.328125 33.6875 34.8125 36.53125 
Q 39.546875 41.84375 41.421875 45.53125 
Q 43.3125 49.21875 43.3125 52.78125 
Q 43.3125 58.59375 39.234375 62.25 
Q 35.15625 65.921875 28.609375 65.921875 
Q 23.96875 65.921875 18.8125 64.3125 
Q 13.671875 62.703125 7.8125 59.421875 
L 7.8125 69.390625 
Q 13.765625 71.78125 18.9375 73 
Q 24.125 74.21875 28.421875 74.21875 
Q 39.75 74.21875 46.484375 68.546875 
Q 53.21875 62.890625 53.21875 53.421875 
Q 53.21875 48.921875 51.53125 44.890625 
Q 49.859375 40.875 45.40625 35.40625 
Q 44.1875 33.984375 37.640625 27.21875 
Q 31.109375 20.453125 19.1875 8.296875 
z
" id="DejaVuSans-50"/>
      </defs>
      <g style="fill:#262626;" transform="translate(353.615625 395.938109)scale(0.121 -0.121)">
       <use xlink:href="#DejaVuSans-51"/>
       <use x="63.623047" xlink:href="#DejaVuSans-50"/>
      </g>
     </g>
    </g>
    <g id="text_5">
     <!-- clusters -->
     <defs>
      <path d="M 48.78125 52.59375 
L 48.78125 44.1875 
Q 44.96875 46.296875 41.140625 47.34375 
Q 37.3125 48.390625 33.40625 48.390625 
Q 24.65625 48.390625 19.8125 42.84375 
Q 14.984375 37.3125 14.984375 27.296875 
Q 14.984375 17.28125 19.8125 11.734375 
Q 24.65625 6.203125 33.40625 6.203125 
Q 37.3125 6.203125 41.140625 7.25 
Q 44.96875 8.296875 48.78125 10.40625 
L 48.78125 2.09375 
Q 45.015625 0.34375 40.984375 -0.53125 
Q 36.96875 -1.421875 32.421875 -1.421875 
Q 20.0625 -1.421875 12.78125 6.34375 
Q 5.515625 14.109375 5.515625 27.296875 
Q 5.515625 40.671875 12.859375 48.328125 
Q 20.21875 56 33.015625 56 
Q 37.15625 56 41.109375 55.140625 
Q 45.0625 54.296875 48.78125 52.59375 
z
" id="DejaVuSans-99"/>
      <path d="M 9.421875 75.984375 
L 18.40625 75.984375 
L 18.40625 0 
L 9.421875 0 
z
" id="DejaVuSans-108"/>
      <path d="M 8.5 21.578125 
L 8.5 54.6875 
L 17.484375 54.6875 
L 17.484375 21.921875 
Q 17.484375 14.15625 20.5 10.265625 
Q 23.53125 6.390625 29.59375 6.390625 
Q 36.859375 6.390625 41.078125 11.03125 
Q 45.3125 15.671875 45.3125 23.6875 
L 45.3125 54.6875 
L 54.296875 54.6875 
L 54.296875 0 
L 45.3125 0 
L 45.3125 8.40625 
Q 42.046875 3.421875 37.71875 1 
Q 33.40625 -1.421875 27.6875 -1.421875 
Q 18.265625 -1.421875 13.375 4.4375 
Q 8.5 10.296875 8.5 21.578125 
z
M 31.109375 56 
z
" id="DejaVuSans-117"/>
      <path d="M 44.28125 53.078125 
L 44.28125 44.578125 
Q 40.484375 46.53125 36.375 47.5 
Q 32.28125 48.484375 27.875 48.484375 
Q 21.1875 48.484375 17.84375 46.4375 
Q 14.5 44.390625 14.5 40.28125 
Q 14.5 37.15625 16.890625 35.375 
Q 19.28125 33.59375 26.515625 31.984375 
L 29.59375 31.296875 
Q 39.15625 29.25 43.1875 25.515625 
Q 47.21875 21.78125 47.21875 15.09375 
Q 47.21875 7.46875 41.1875 3.015625 
Q 35.15625 -1.421875 24.609375 -1.421875 
Q 20.21875 -1.421875 15.453125 -0.5625 
Q 10.6875 0.296875 5.421875 2 
L 5.421875 11.28125 
Q 10.40625 8.6875 15.234375 7.390625 
Q 20.0625 6.109375 24.8125 6.109375 
Q 31.15625 6.109375 34.5625 8.28125 
Q 37.984375 10.453125 37.984375 14.40625 
Q 37.984375 18.0625 35.515625 20.015625 
Q 33.0625 21.96875 24.703125 23.78125 
L 21.578125 24.515625 
Q 13.234375 26.265625 9.515625 29.90625 
Q 5.8125 33.546875 5.8125 39.890625 
Q 5.8125 47.609375 11.28125 51.796875 
Q 16.75 56 26.8125 56 
Q 31.78125 56 36.171875 55.265625 
Q 40.578125 54.546875 44.28125 53.078125 
z
" id="DejaVuSans-115"/>
      <path d="M 18.3125 70.21875 
L 18.3125 54.6875 
L 36.8125 54.6875 
L 36.8125 47.703125 
L 18.3125 47.703125 
L 18.3125 18.015625 
Q 18.3125 11.328125 20.140625 9.421875 
Q 21.96875 7.515625 27.59375 7.515625 
L 36.8125 7.515625 
L 36.8125 0 
L 27.59375 0 
Q 17.1875 0 13.234375 3.875 
Q 9.28125 7.765625 9.28125 18.015625 
L 9.28125 47.703125 
L 2.6875 47.703125 
L 2.6875 54.6875 
L 9.28125 54.6875 
L 9.28125 70.21875 
z
" id="DejaVuSans-116"/>
      <path d="M 56.203125 29.59375 
L 56.203125 25.203125 
L 14.890625 25.203125 
Q 15.484375 15.921875 20.484375 11.0625 
Q 25.484375 6.203125 34.421875 6.203125 
Q 39.59375 6.203125 44.453125 7.46875 
Q 49.3125 8.734375 54.109375 11.28125 
L 54.109375 2.78125 
Q 49.265625 0.734375 44.1875 -0.34375 
Q 39.109375 -1.421875 33.890625 -1.421875 
Q 20.796875 -1.421875 13.15625 6.1875 
Q 5.515625 13.8125 5.515625 26.8125 
Q 5.515625 40.234375 12.765625 48.109375 
Q 20.015625 56 32.328125 56 
Q 43.359375 56 49.78125 48.890625 
Q 56.203125 41.796875 56.203125 29.59375 
z
M 47.21875 32.234375 
Q 47.125 39.59375 43.09375 43.984375 
Q 39.0625 48.390625 32.421875 48.390625 
Q 24.90625 48.390625 20.390625 44.140625 
Q 15.875 39.890625 15.1875 32.171875 
z
" id="DejaVuSans-101"/>
      <path d="M 41.109375 46.296875 
Q 39.59375 47.171875 37.8125 47.578125 
Q 36.03125 48 33.890625 48 
Q 26.265625 48 22.1875 43.046875 
Q 18.109375 38.09375 18.109375 28.8125 
L 18.109375 0 
L 9.078125 0 
L 9.078125 54.6875 
L 18.109375 54.6875 
L 18.109375 46.1875 
Q 20.953125 51.171875 25.484375 53.578125 
Q 30.03125 56 36.53125 56 
Q 37.453125 56 38.578125 55.875 
Q 39.703125 55.765625 41.0625 55.515625 
z
" id="DejaVuSans-114"/>
     </defs>
     <g style="fill:#262626;" transform="translate(205.066656 412.484469)scale(0.132 -0.132)">
      <use xlink:href="#DejaVuSans-99"/>
      <use x="54.980469" xlink:href="#DejaVuSans-108"/>
      <use x="82.763672" xlink:href="#DejaVuSans-117"/>
      <use x="146.142578" xlink:href="#DejaVuSans-115"/>
      <use x="198.242188" xlink:href="#DejaVuSans-116"/>
      <use x="237.451172" xlink:href="#DejaVuSans-101"/>
      <use x="298.974609" xlink:href="#DejaVuSans-114"/>
      <use x="340.087891" xlink:href="#DejaVuSans-115"/>
     </g>
    </g>
   </g>
   <g id="matplotlib.axis_2">
    <g id="ytick_1">
     <g id="line2d_1">
      <path clip-path="url(#p87215ac819)" d="M 57.131 358.269259 
L 404.769 358.269259 
" style="fill:none;stroke:#ffffff;stroke-linecap:round;"/>
     </g>
     <g id="text_6">
      <!-- 0 -->
      <defs>
       <path d="M 31.78125 66.40625 
Q 24.171875 66.40625 20.328125 58.90625 
Q 16.5 51.421875 16.5 36.375 
Q 16.5 21.390625 20.328125 13.890625 
Q 24.171875 6.390625 31.78125 6.390625 
Q 39.453125 6.390625 43.28125 13.890625 
Q 47.125 21.390625 47.125 36.375 
Q 47.125 51.421875 43.28125 58.90625 
Q 39.453125 66.40625 31.78125 66.40625 
z
M 31.78125 74.21875 
Q 44.046875 74.21875 50.515625 64.515625 
Q 56.984375 54.828125 56.984375 36.375 
Q 56.984375 17.96875 50.515625 8.265625 
Q 44.046875 -1.421875 31.78125 -1.421875 
Q 19.53125 -1.421875 13.0625 8.265625 
Q 6.59375 17.96875 6.59375 36.375 
Q 6.59375 54.828125 13.0625 64.515625 
Q 19.53125 74.21875 31.78125 74.21875 
z
" id="DejaVuSans-48"/>
      </defs>
      <g style="fill:#262626;" transform="translate(39.932375 362.866313)scale(0.121 -0.121)">
       <use xlink:href="#DejaVuSans-48"/>
      </g>
     </g>
    </g>
    <g id="ytick_2">
     <g id="line2d_2">
      <path clip-path="url(#p87215ac819)" d="M 57.131 291.898079 
L 404.769 291.898079 
" style="fill:none;stroke:#ffffff;stroke-linecap:round;"/>
     </g>
     <g id="text_7">
      <!-- 20 -->
      <g style="fill:#262626;" transform="translate(32.23375 296.495134)scale(0.121 -0.121)">
       <use xlink:href="#DejaVuSans-50"/>
       <use x="63.623047" xlink:href="#DejaVuSans-48"/>
      </g>
     </g>
    </g>
    <g id="ytick_3">
     <g id="line2d_3">
      <path clip-path="url(#p87215ac819)" d="M 57.131 225.526899 
L 404.769 225.526899 
" style="fill:none;stroke:#ffffff;stroke-linecap:round;"/>
     </g>
     <g id="text_8">
      <!-- 40 -->
      <g style="fill:#262626;" transform="translate(32.23375 230.123954)scale(0.121 -0.121)">
       <use xlink:href="#DejaVuSans-52"/>
       <use x="63.623047" xlink:href="#DejaVuSans-48"/>
      </g>
     </g>
    </g>
    <g id="ytick_4">
     <g id="line2d_4">
      <path clip-path="url(#p87215ac819)" d="M 57.131 159.155719 
L 404.769 159.155719 
" style="fill:none;stroke:#ffffff;stroke-linecap:round;"/>
     </g>
     <g id="text_9">
      <!-- 60 -->
      <g style="fill:#262626;" transform="translate(32.23375 163.752774)scale(0.121 -0.121)">
       <use xlink:href="#DejaVuSans-54"/>
       <use x="63.623047" xlink:href="#DejaVuSans-48"/>
      </g>
     </g>
    </g>
    <g id="ytick_5">
     <g id="line2d_5">
      <path clip-path="url(#p87215ac819)" d="M 57.131 92.78454 
L 404.769 92.78454 
" style="fill:none;stroke:#ffffff;stroke-linecap:round;"/>
     </g>
     <g id="text_10">
      <!-- 80 -->
      <g style="fill:#262626;" transform="translate(32.23375 97.381594)scale(0.121 -0.121)">
       <use xlink:href="#DejaVuSans-56"/>
       <use x="63.623047" xlink:href="#DejaVuSans-48"/>
      </g>
     </g>
    </g>
    <g id="text_11">
     <!-- Relative downloaded data (%) -->
     <defs>
      <path d="M 44.390625 34.1875 
Q 47.5625 33.109375 50.5625 29.59375 
Q 53.5625 26.078125 56.59375 19.921875 
L 66.609375 0 
L 56 0 
L 46.6875 18.703125 
Q 43.0625 26.03125 39.671875 28.421875 
Q 36.28125 30.8125 30.421875 30.8125 
L 19.671875 30.8125 
L 19.671875 0 
L 9.8125 0 
L 9.8125 72.90625 
L 32.078125 72.90625 
Q 44.578125 72.90625 50.734375 67.671875 
Q 56.890625 62.453125 56.890625 51.90625 
Q 56.890625 45.015625 53.6875 40.46875 
Q 50.484375 35.9375 44.390625 34.1875 
z
M 19.671875 64.796875 
L 19.671875 38.921875 
L 32.078125 38.921875 
Q 39.203125 38.921875 42.84375 42.21875 
Q 46.484375 45.515625 46.484375 51.90625 
Q 46.484375 58.296875 42.84375 61.546875 
Q 39.203125 64.796875 32.078125 64.796875 
z
" id="DejaVuSans-82"/>
      <path d="M 34.28125 27.484375 
Q 23.390625 27.484375 19.1875 25 
Q 14.984375 22.515625 14.984375 16.5 
Q 14.984375 11.71875 18.140625 8.90625 
Q 21.296875 6.109375 26.703125 6.109375 
Q 34.1875 6.109375 38.703125 11.40625 
Q 43.21875 16.703125 43.21875 25.484375 
L 43.21875 27.484375 
z
M 52.203125 31.203125 
L 52.203125 0 
L 43.21875 0 
L 43.21875 8.296875 
Q 40.140625 3.328125 35.546875 0.953125 
Q 30.953125 -1.421875 24.3125 -1.421875 
Q 15.921875 -1.421875 10.953125 3.296875 
Q 6 8.015625 6 15.921875 
Q 6 25.140625 12.171875 29.828125 
Q 18.359375 34.515625 30.609375 34.515625 
L 43.21875 34.515625 
L 43.21875 35.40625 
Q 43.21875 41.609375 39.140625 45 
Q 35.0625 48.390625 27.6875 48.390625 
Q 23 48.390625 18.546875 47.265625 
Q 14.109375 46.140625 10.015625 43.890625 
L 10.015625 52.203125 
Q 14.9375 54.109375 19.578125 55.046875 
Q 24.21875 56 28.609375 56 
Q 40.484375 56 46.34375 49.84375 
Q 52.203125 43.703125 52.203125 31.203125 
z
" id="DejaVuSans-97"/>
      <path d="M 9.421875 54.6875 
L 18.40625 54.6875 
L 18.40625 0 
L 9.421875 0 
z
M 9.421875 75.984375 
L 18.40625 75.984375 
L 18.40625 64.59375 
L 9.421875 64.59375 
z
" id="DejaVuSans-105"/>
      <path d="M 2.984375 54.6875 
L 12.5 54.6875 
L 29.59375 8.796875 
L 46.6875 54.6875 
L 56.203125 54.6875 
L 35.6875 0 
L 23.484375 0 
z
" id="DejaVuSans-118"/>
      <path id="DejaVuSans-32"/>
      <path d="M 45.40625 46.390625 
L 45.40625 75.984375 
L 54.390625 75.984375 
L 54.390625 0 
L 45.40625 0 
L 45.40625 8.203125 
Q 42.578125 3.328125 38.25 0.953125 
Q 33.9375 -1.421875 27.875 -1.421875 
Q 17.96875 -1.421875 11.734375 6.484375 
Q 5.515625 14.40625 5.515625 27.296875 
Q 5.515625 40.1875 11.734375 48.09375 
Q 17.96875 56 27.875 56 
Q 33.9375 56 38.25 53.625 
Q 42.578125 51.265625 45.40625 46.390625 
z
M 14.796875 27.296875 
Q 14.796875 17.390625 18.875 11.75 
Q 22.953125 6.109375 30.078125 6.109375 
Q 37.203125 6.109375 41.296875 11.75 
Q 45.40625 17.390625 45.40625 27.296875 
Q 45.40625 37.203125 41.296875 42.84375 
Q 37.203125 48.484375 30.078125 48.484375 
Q 22.953125 48.484375 18.875 42.84375 
Q 14.796875 37.203125 14.796875 27.296875 
z
" id="DejaVuSans-100"/>
      <path d="M 30.609375 48.390625 
Q 23.390625 48.390625 19.1875 42.75 
Q 14.984375 37.109375 14.984375 27.296875 
Q 14.984375 17.484375 19.15625 11.84375 
Q 23.34375 6.203125 30.609375 6.203125 
Q 37.796875 6.203125 41.984375 11.859375 
Q 46.1875 17.53125 46.1875 27.296875 
Q 46.1875 37.015625 41.984375 42.703125 
Q 37.796875 48.390625 30.609375 48.390625 
z
M 30.609375 56 
Q 42.328125 56 49.015625 48.375 
Q 55.71875 40.765625 55.71875 27.296875 
Q 55.71875 13.875 49.015625 6.21875 
Q 42.328125 -1.421875 30.609375 -1.421875 
Q 18.84375 -1.421875 12.171875 6.21875 
Q 5.515625 13.875 5.515625 27.296875 
Q 5.515625 40.765625 12.171875 48.375 
Q 18.84375 56 30.609375 56 
z
" id="DejaVuSans-111"/>
      <path d="M 4.203125 54.6875 
L 13.1875 54.6875 
L 24.421875 12.015625 
L 35.59375 54.6875 
L 46.1875 54.6875 
L 57.421875 12.015625 
L 68.609375 54.6875 
L 77.59375 54.6875 
L 63.28125 0 
L 52.6875 0 
L 40.921875 44.828125 
L 29.109375 0 
L 18.5 0 
z
" id="DejaVuSans-119"/>
      <path d="M 54.890625 33.015625 
L 54.890625 0 
L 45.90625 0 
L 45.90625 32.71875 
Q 45.90625 40.484375 42.875 44.328125 
Q 39.84375 48.1875 33.796875 48.1875 
Q 26.515625 48.1875 22.3125 43.546875 
Q 18.109375 38.921875 18.109375 30.90625 
L 18.109375 0 
L 9.078125 0 
L 9.078125 54.6875 
L 18.109375 54.6875 
L 18.109375 46.1875 
Q 21.34375 51.125 25.703125 53.5625 
Q 30.078125 56 35.796875 56 
Q 45.21875 56 50.046875 50.171875 
Q 54.890625 44.34375 54.890625 33.015625 
z
" id="DejaVuSans-110"/>
      <path d="M 31 75.875 
Q 24.46875 64.65625 21.28125 53.65625 
Q 18.109375 42.671875 18.109375 31.390625 
Q 18.109375 20.125 21.3125 9.0625 
Q 24.515625 -2 31 -13.1875 
L 23.1875 -13.1875 
Q 15.875 -1.703125 12.234375 9.375 
Q 8.59375 20.453125 8.59375 31.390625 
Q 8.59375 42.28125 12.203125 53.3125 
Q 15.828125 64.359375 23.1875 75.875 
z
" id="DejaVuSans-40"/>
      <path d="M 72.703125 32.078125 
Q 68.453125 32.078125 66.03125 28.46875 
Q 63.625 24.859375 63.625 18.40625 
Q 63.625 12.0625 66.03125 8.421875 
Q 68.453125 4.78125 72.703125 4.78125 
Q 76.859375 4.78125 79.265625 8.421875 
Q 81.6875 12.0625 81.6875 18.40625 
Q 81.6875 24.8125 79.265625 28.4375 
Q 76.859375 32.078125 72.703125 32.078125 
z
M 72.703125 38.28125 
Q 80.421875 38.28125 84.953125 32.90625 
Q 89.5 27.546875 89.5 18.40625 
Q 89.5 9.28125 84.9375 3.921875 
Q 80.375 -1.421875 72.703125 -1.421875 
Q 64.890625 -1.421875 60.34375 3.921875 
Q 55.8125 9.28125 55.8125 18.40625 
Q 55.8125 27.59375 60.375 32.9375 
Q 64.9375 38.28125 72.703125 38.28125 
z
M 22.3125 68.015625 
Q 18.109375 68.015625 15.6875 64.375 
Q 13.28125 60.75 13.28125 54.390625 
Q 13.28125 47.953125 15.671875 44.328125 
Q 18.0625 40.71875 22.3125 40.71875 
Q 26.5625 40.71875 28.96875 44.328125 
Q 31.390625 47.953125 31.390625 54.390625 
Q 31.390625 60.6875 28.953125 64.34375 
Q 26.515625 68.015625 22.3125 68.015625 
z
M 66.40625 74.21875 
L 74.21875 74.21875 
L 28.609375 -1.421875 
L 20.796875 -1.421875 
z
M 22.3125 74.21875 
Q 30.03125 74.21875 34.609375 68.875 
Q 39.203125 63.53125 39.203125 54.390625 
Q 39.203125 45.171875 34.640625 39.84375 
Q 30.078125 34.515625 22.3125 34.515625 
Q 14.546875 34.515625 10.03125 39.859375 
Q 5.515625 45.21875 5.515625 54.390625 
Q 5.515625 63.484375 10.046875 68.84375 
Q 14.59375 74.21875 22.3125 74.21875 
z
" id="DejaVuSans-37"/>
      <path d="M 8.015625 75.875 
L 15.828125 75.875 
Q 23.140625 64.359375 26.78125 53.3125 
Q 30.421875 42.28125 30.421875 31.390625 
Q 30.421875 20.453125 26.78125 9.375 
Q 23.140625 -1.703125 15.828125 -13.1875 
L 8.015625 -13.1875 
Q 14.5 -2 17.703125 9.0625 
Q 20.90625 20.125 20.90625 31.390625 
Q 20.90625 42.671875 17.703125 53.65625 
Q 14.5 64.65625 8.015625 75.875 
z
" id="DejaVuSans-41"/>
     </defs>
     <g style="fill:#262626;" transform="translate(25.488563 303.905875)rotate(-90)scale(0.132 -0.132)">
      <use xlink:href="#DejaVuSans-82"/>
      <use x="69.419922" xlink:href="#DejaVuSans-101"/>
      <use x="130.943359" xlink:href="#DejaVuSans-108"/>
      <use x="158.726562" xlink:href="#DejaVuSans-97"/>
      <use x="220.005859" xlink:href="#DejaVuSans-116"/>
      <use x="259.214844" xlink:href="#DejaVuSans-105"/>
      <use x="286.998047" xlink:href="#DejaVuSans-118"/>
      <use x="346.177734" xlink:href="#DejaVuSans-101"/>
      <use x="407.701172" xlink:href="#DejaVuSans-32"/>
      <use x="439.488281" xlink:href="#DejaVuSans-100"/>
      <use x="502.964844" xlink:href="#DejaVuSans-111"/>
      <use x="564.146484" xlink:href="#DejaVuSans-119"/>
      <use x="645.933594" xlink:href="#DejaVuSans-110"/>
      <use x="709.3125" xlink:href="#DejaVuSans-108"/>
      <use x="737.095703" xlink:href="#DejaVuSans-111"/>
      <use x="798.277344" xlink:href="#DejaVuSans-97"/>
      <use x="859.556641" xlink:href="#DejaVuSans-100"/>
      <use x="923.033203" xlink:href="#DejaVuSans-101"/>
      <use x="984.556641" xlink:href="#DejaVuSans-100"/>
      <use x="1048.033203" xlink:href="#DejaVuSans-32"/>
      <use x="1079.820312" xlink:href="#DejaVuSans-100"/>
      <use x="1143.296875" xlink:href="#DejaVuSans-97"/>
      <use x="1204.576172" xlink:href="#DejaVuSans-116"/>
      <use x="1243.785156" xlink:href="#DejaVuSans-97"/>
      <use x="1305.064453" xlink:href="#DejaVuSans-32"/>
      <use x="1336.851562" xlink:href="#DejaVuSans-40"/>
      <use x="1375.865234" xlink:href="#DejaVuSans-37"/>
      <use x="1470.884766" xlink:href="#DejaVuSans-41"/>
     </g>
    </g>
   </g>
   <g id="PathCollection_1">
    <defs>
     <path d="M -0 4.242641 
L 2.545584 0 
L 0 -4.242641 
L -2.545584 -0 
z
" id="m90a279c17e" style="stroke:#176d9c;"/>
    </defs>
    <g clip-path="url(#p87215ac819)">
     <use style="fill:#176d9c;stroke:#176d9c;" x="100.58575" xlink:href="#m90a279c17e" y="340.08711"/>
     <use style="fill:#176d9c;stroke:#176d9c;" x="100.58575" xlink:href="#m90a279c17e" y="345.212787"/>
     <use style="fill:#176d9c;stroke:#176d9c;" x="100.58575" xlink:href="#m90a279c17e" y="47.196985"/>
     <use style="fill:#176d9c;stroke:#176d9c;" x="100.58575" xlink:href="#m90a279c17e" y="48.74408"/>
    </g>
   </g>
   <g id="PatchCollection_1">
    <path clip-path="url(#p87215ac819)" d="M 100.449954 329.961053 
L 100.721546 329.961053 
L 100.721546 52.400008 
L 100.449954 52.400008 
z
" style="fill:#ffffff;stroke:#ffffff;"/>
    <path clip-path="url(#p87215ac819)" d="M 100.314158 328.414242 
L 100.857342 328.414242 
L 100.857342 53.925321 
L 100.314158 53.925321 
z
" style="fill:#e2edf3;stroke:#ffffff;"/>
    <path clip-path="url(#p87215ac819)" d="M 100.042566 324.218898 
L 101.128934 324.218898 
L 101.128934 70.6326 
L 100.042566 70.6326 
z
" style="fill:#c5dae6;stroke:#ffffff;"/>
    <path clip-path="url(#p87215ac819)" d="M 99.499381 323.185474 
L 101.672119 323.185474 
L 101.672119 86.946282 
L 99.499381 86.946282 
z
" style="fill:#a8c8da;stroke:#ffffff;"/>
    <path clip-path="url(#p87215ac819)" d="M 98.413013 320.986434 
L 102.758488 320.986434 
L 102.758488 96.802323 
L 98.413013 96.802323 
z
" style="fill:#8bb6cd;stroke:#ffffff;"/>
    <path clip-path="url(#p87215ac819)" d="M 96.240275 318.191787 
L 104.931225 318.191787 
L 104.931225 104.392922 
L 96.240275 104.392922 
z
" style="fill:#6ea3c1;stroke:#ffffff;"/>
    <path clip-path="url(#p87215ac819)" d="M 91.8948 311.420361 
L 109.2767 311.420361 
L 109.2767 116.618965 
L 91.8948 116.618965 
z
" style="fill:#5091b4;stroke:#ffffff;"/>
    <path clip-path="url(#p87215ac819)" d="M 83.20385 293.092167 
L 117.96765 293.092167 
L 117.96765 132.749006 
L 83.20385 132.749006 
z
" style="fill:#337ea8;stroke:#ffffff;"/>
    <path clip-path="url(#p87215ac819)" d="M 65.82195 257.515112 
L 135.34955 257.515112 
L 135.34955 155.605674 
L 65.82195 155.605674 
z
" style="fill:#176d9c;stroke:#ffffff;"/>
   </g>
   <g id="PathCollection_2">
    <defs>
     <path d="M -0 4.242641 
L 2.545584 0 
L 0 -4.242641 
L -2.545584 -0 
z
" id="m1e04d48fee" style="stroke:#c38820;"/>
    </defs>
    <g clip-path="url(#p87215ac819)">
     <use style="fill:#c38820;stroke:#c38820;" x="187.49525" xlink:href="#m1e04d48fee" y="351.825499"/>
     <use style="fill:#c38820;stroke:#c38820;" x="187.49525" xlink:href="#m1e04d48fee" y="351.756764"/>
     <use style="fill:#c38820;stroke:#c38820;" x="187.49525" xlink:href="#m1e04d48fee" y="119.478915"/>
     <use style="fill:#c38820;stroke:#c38820;" x="187.49525" xlink:href="#m1e04d48fee" y="118.117268"/>
    </g>
   </g>
   <g id="PatchCollection_2">
    <path clip-path="url(#p87215ac819)" d="M 187.359454 351.17952 
L 187.631046 351.17952 
L 187.631046 125.377609 
L 187.359454 125.377609 
z
" style="fill:#ffffff;stroke:#ffffff;"/>
    <path clip-path="url(#p87215ac819)" d="M 187.223658 350.958819 
L 187.766842 350.958819 
L 187.766842 127.019066 
L 187.223658 127.019066 
z
" style="fill:#f7f0e3;stroke:#ffffff;"/>
    <path clip-path="url(#p87215ac819)" d="M 186.952066 350.752132 
L 188.038434 350.752132 
L 188.038434 131.006653 
L 186.952066 131.006653 
z
" style="fill:#f0e1c7;stroke:#ffffff;"/>
    <path clip-path="url(#p87215ac819)" d="M 186.408881 349.330072 
L 188.581619 349.330072 
L 188.581619 138.386271 
L 186.408881 138.386271 
z
" style="fill:#e8d2ab;stroke:#ffffff;"/>
    <path clip-path="url(#p87215ac819)" d="M 185.322513 339.024647 
L 189.667988 339.024647 
L 189.667988 146.062393 
L 185.322513 146.062393 
z
" style="fill:#e1c38f;stroke:#ffffff;"/>
    <path clip-path="url(#p87215ac819)" d="M 183.149775 332.271485 
L 191.840725 332.271485 
L 191.840725 157.684976 
L 183.149775 157.684976 
z
" style="fill:#d9b473;stroke:#ffffff;"/>
    <path clip-path="url(#p87215ac819)" d="M 178.8043 326.851497 
L 196.1862 326.851497 
L 196.1862 172.28695 
L 178.8043 172.28695 
z
" style="fill:#d2a557;stroke:#ffffff;"/>
    <path clip-path="url(#p87215ac819)" d="M 170.11335 318.886258 
L 204.87715 318.886258 
L 204.87715 193.987603 
L 170.11335 193.987603 
z
" style="fill:#ca963b;stroke:#ffffff;"/>
    <path clip-path="url(#p87215ac819)" d="M 152.73145 307.946813 
L 222.25905 307.946813 
L 222.25905 222.806956 
L 152.73145 222.806956 
z
" style="fill:#c38820;stroke:#ffffff;"/>
   </g>
   <g id="PathCollection_3">
    <defs>
     <path d="M -0 4.242641 
L 2.545584 0 
L 0 -4.242641 
L -2.545584 -0 
z
" id="m6434d2e860" style="stroke:#158b6a;"/>
    </defs>
    <g clip-path="url(#p87215ac819)">
     <use style="fill:#158b6a;stroke:#158b6a;" x="274.40475" xlink:href="#m6434d2e860" y="355.996657"/>
     <use style="fill:#158b6a;stroke:#158b6a;" x="274.40475" xlink:href="#m6434d2e860" y="355.978059"/>
     <use style="fill:#158b6a;stroke:#158b6a;" x="274.40475" xlink:href="#m6434d2e860" y="151.620027"/>
     <use style="fill:#158b6a;stroke:#158b6a;" x="274.40475" xlink:href="#m6434d2e860" y="153.800653"/>
    </g>
   </g>
   <g id="PatchCollection_3">
    <path clip-path="url(#p87215ac819)" d="M 274.268954 355.059927 
L 274.540546 355.059927 
L 274.540546 154.38697 
L 274.268954 154.38697 
z
" style="fill:#ffffff;stroke:#ffffff;"/>
    <path clip-path="url(#p87215ac819)" d="M 274.133158 353.229937 
L 274.676342 353.229937 
L 274.676342 159.497886 
L 274.133158 159.497886 
z
" style="fill:#e2f0ec;stroke:#ffffff;"/>
    <path clip-path="url(#p87215ac819)" d="M 273.861566 352.293338 
L 274.947934 352.293338 
L 274.947934 166.937885 
L 273.861566 166.937885 
z
" style="fill:#c4e2da;stroke:#ffffff;"/>
    <path clip-path="url(#p87215ac819)" d="M 273.318381 351.353719 
L 275.491119 351.353719 
L 275.491119 173.664294 
L 273.318381 173.664294 
z
" style="fill:#a7d3c7;stroke:#ffffff;"/>
    <path clip-path="url(#p87215ac819)" d="M 272.232013 349.786511 
L 276.577488 349.786511 
L 276.577488 185.247803 
L 272.232013 185.247803 
z
" style="fill:#8ac5b4;stroke:#ffffff;"/>
    <path clip-path="url(#p87215ac819)" d="M 270.059275 346.747188 
L 278.750225 346.747188 
L 278.750225 195.237455 
L 270.059275 195.237455 
z
" style="fill:#6cb6a2;stroke:#ffffff;"/>
    <path clip-path="url(#p87215ac819)" d="M 265.7138 342.945944 
L 283.0957 342.945944 
L 283.0957 210.631244 
L 265.7138 210.631244 
z
" style="fill:#4fa78f;stroke:#ffffff;"/>
    <path clip-path="url(#p87215ac819)" d="M 257.02285 336.983589 
L 291.78665 336.983589 
L 291.78665 229.074898 
L 257.02285 229.074898 
z
" style="fill:#32997c;stroke:#ffffff;"/>
    <path clip-path="url(#p87215ac819)" d="M 239.64095 326.414317 
L 309.16855 326.414317 
L 309.16855 260.385723 
L 239.64095 260.385723 
z
" style="fill:#158b6a;stroke:#ffffff;"/>
   </g>
   <g id="PathCollection_4">
    <defs>
     <path d="M -0 4.242641 
L 2.545584 0 
L 0 -4.242641 
L -2.545584 -0 
z
" id="mb15460ffc9" style="stroke:#ba611b;"/>
    </defs>
    <g clip-path="url(#p87215ac819)">
     <use style="fill:#ba611b;stroke:#ba611b;" x="361.31425" xlink:href="#mb15460ffc9" y="357.032418"/>
     <use style="fill:#ba611b;stroke:#ba611b;" x="361.31425" xlink:href="#mb15460ffc9" y="356.904262"/>
     <use style="fill:#ba611b;stroke:#ba611b;" x="361.31425" xlink:href="#mb15460ffc9" y="177.434845"/>
     <use style="fill:#ba611b;stroke:#ba611b;" x="361.31425" xlink:href="#mb15460ffc9" y="181.225785"/>
    </g>
   </g>
   <g id="PatchCollection_4">
    <path clip-path="url(#p87215ac819)" d="M 361.178454 356.722691 
L 361.450046 356.722691 
L 361.450046 181.613818 
L 361.178454 181.613818 
z
" style="fill:#ffffff;stroke:#ffffff;"/>
    <path clip-path="url(#p87215ac819)" d="M 361.042658 356.241175 
L 361.585842 356.241175 
L 361.585842 182.404257 
L 361.042658 182.404257 
z
" style="fill:#f6ebe2;stroke:#ffffff;"/>
    <path clip-path="url(#p87215ac819)" d="M 360.771066 355.714599 
L 361.857434 355.714599 
L 361.857434 192.315308 
L 360.771066 192.315308 
z
" style="fill:#eed7c6;stroke:#ffffff;"/>
    <path clip-path="url(#p87215ac819)" d="M 360.227881 355.254552 
L 362.400619 355.254552 
L 362.400619 198.811032 
L 360.227881 198.811032 
z
" style="fill:#e5c4a9;stroke:#ffffff;"/>
    <path clip-path="url(#p87215ac819)" d="M 359.141513 354.130567 
L 363.486988 354.130567 
L 363.486988 205.700711 
L 359.141513 205.700711 
z
" style="fill:#ddb08c;stroke:#ffffff;"/>
    <path clip-path="url(#p87215ac819)" d="M 356.968775 352.451107 
L 365.659725 352.451107 
L 365.659725 220.383034 
L 356.968775 220.383034 
z
" style="fill:#d49c70;stroke:#ffffff;"/>
    <path clip-path="url(#p87215ac819)" d="M 352.6233 349.815651 
L 370.0052 349.815651 
L 370.0052 237.263718 
L 352.6233 237.263718 
z
" style="fill:#cb8853;stroke:#ffffff;"/>
    <path clip-path="url(#p87215ac819)" d="M 343.93235 345.067192 
L 378.69615 345.067192 
L 378.69615 256.078226 
L 343.93235 256.078226 
z
" style="fill:#c37436;stroke:#ffffff;"/>
    <path clip-path="url(#p87215ac819)" d="M 326.55045 336.959939 
L 396.07805 336.959939 
L 396.07805 284.5277 
L 326.55045 284.5277 
z
" style="fill:#ba611b;stroke:#ffffff;"/>
   </g>
   <g id="line2d_6">
    <path clip-path="url(#p87215ac819)" d="M 65.82195 208.52882 
L 135.34955 208.52882 
" style="fill:none;stroke:#262626;stroke-linecap:round;stroke-opacity:0.45;stroke-width:1.5;"/>
   </g>
   <g id="line2d_7">
    <path clip-path="url(#p87215ac819)" d="M 152.73145 273.172877 
L 222.25905 273.172877 
" style="fill:none;stroke:#262626;stroke-linecap:round;stroke-opacity:0.45;stroke-width:1.5;"/>
   </g>
   <g id="line2d_8">
    <path clip-path="url(#p87215ac819)" d="M 239.64095 302.701963 
L 309.16855 302.701963 
" style="fill:none;stroke:#262626;stroke-linecap:round;stroke-opacity:0.45;stroke-width:1.5;"/>
   </g>
   <g id="line2d_9">
    <path clip-path="url(#p87215ac819)" d="M 326.55045 318.968009 
L 396.07805 318.968009 
" style="fill:none;stroke:#262626;stroke-linecap:round;stroke-opacity:0.45;stroke-width:1.5;"/>
   </g>
   <g id="patch_3">
    <path d="M 57.131 377.244 
L 57.131 31.256 
" style="fill:none;stroke:#ffffff;stroke-linecap:square;stroke-linejoin:miter;stroke-width:1.25;"/>
   </g>
   <g id="patch_4">
    <path d="M 57.131 377.244 
L 404.769 377.244 
" style="fill:none;stroke:#ffffff;stroke-linecap:square;stroke-linejoin:miter;stroke-width:1.25;"/>
   </g>
   <g id="text_12">
    <!-- Downloaded data relative to baseline (lower is better) -->
    <defs>
     <path d="M 19.671875 64.796875 
L 19.671875 8.109375 
L 31.59375 8.109375 
Q 46.6875 8.109375 53.6875 14.9375 
Q 60.6875 21.78125 60.6875 36.53125 
Q 60.6875 51.171875 53.6875 57.984375 
Q 46.6875 64.796875 31.59375 64.796875 
z
M 9.8125 72.90625 
L 30.078125 72.90625 
Q 51.265625 72.90625 61.171875 64.09375 
Q 71.09375 55.28125 71.09375 36.53125 
Q 71.09375 17.671875 61.125 8.828125 
Q 51.171875 0 30.078125 0 
L 9.8125 0 
z
" id="DejaVuSans-68"/>
     <path d="M 48.6875 27.296875 
Q 48.6875 37.203125 44.609375 42.84375 
Q 40.53125 48.484375 33.40625 48.484375 
Q 26.265625 48.484375 22.1875 42.84375 
Q 18.109375 37.203125 18.109375 27.296875 
Q 18.109375 17.390625 22.1875 11.75 
Q 26.265625 6.109375 33.40625 6.109375 
Q 40.53125 6.109375 44.609375 11.75 
Q 48.6875 17.390625 48.6875 27.296875 
z
M 18.109375 46.390625 
Q 20.953125 51.265625 25.265625 53.625 
Q 29.59375 56 35.59375 56 
Q 45.5625 56 51.78125 48.09375 
Q 58.015625 40.1875 58.015625 27.296875 
Q 58.015625 14.40625 51.78125 6.484375 
Q 45.5625 -1.421875 35.59375 -1.421875 
Q 29.59375 -1.421875 25.265625 0.953125 
Q 20.953125 3.328125 18.109375 8.203125 
L 18.109375 0 
L 9.078125 0 
L 9.078125 75.984375 
L 18.109375 75.984375 
z
" id="DejaVuSans-98"/>
    </defs>
    <g style="fill:#262626;" transform="translate(52.367406 25.256)scale(0.132 -0.132)">
     <use xlink:href="#DejaVuSans-68"/>
     <use x="77.001953" xlink:href="#DejaVuSans-111"/>
     <use x="138.183594" xlink:href="#DejaVuSans-119"/>
     <use x="219.970703" xlink:href="#DejaVuSans-110"/>
     <use x="283.349609" xlink:href="#DejaVuSans-108"/>
     <use x="311.132812" xlink:href="#DejaVuSans-111"/>
     <use x="372.314453" xlink:href="#DejaVuSans-97"/>
     <use x="433.59375" xlink:href="#DejaVuSans-100"/>
     <use x="497.070312" xlink:href="#DejaVuSans-101"/>
     <use x="558.59375" xlink:href="#DejaVuSans-100"/>
     <use x="622.070312" xlink:href="#DejaVuSans-32"/>
     <use x="653.857422" xlink:href="#DejaVuSans-100"/>
     <use x="717.333984" xlink:href="#DejaVuSans-97"/>
     <use x="778.613281" xlink:href="#DejaVuSans-116"/>
     <use x="817.822266" xlink:href="#DejaVuSans-97"/>
     <use x="879.101562" xlink:href="#DejaVuSans-32"/>
     <use x="910.888672" xlink:href="#DejaVuSans-114"/>
     <use x="951.970703" xlink:href="#DejaVuSans-101"/>
     <use x="1013.494141" xlink:href="#DejaVuSans-108"/>
     <use x="1041.277344" xlink:href="#DejaVuSans-97"/>
     <use x="1102.556641" xlink:href="#DejaVuSans-116"/>
     <use x="1141.765625" xlink:href="#DejaVuSans-105"/>
     <use x="1169.548828" xlink:href="#DejaVuSans-118"/>
     <use x="1228.728516" xlink:href="#DejaVuSans-101"/>
     <use x="1290.251953" xlink:href="#DejaVuSans-32"/>
     <use x="1322.039062" xlink:href="#DejaVuSans-116"/>
     <use x="1361.248047" xlink:href="#DejaVuSans-111"/>
     <use x="1422.429688" xlink:href="#DejaVuSans-32"/>
     <use x="1454.216797" xlink:href="#DejaVuSans-98"/>
     <use x="1517.693359" xlink:href="#DejaVuSans-97"/>
     <use x="1578.972656" xlink:href="#DejaVuSans-115"/>
     <use x="1631.072266" xlink:href="#DejaVuSans-101"/>
     <use x="1692.595703" xlink:href="#DejaVuSans-108"/>
     <use x="1720.378906" xlink:href="#DejaVuSans-105"/>
     <use x="1748.162109" xlink:href="#DejaVuSans-110"/>
     <use x="1811.541016" xlink:href="#DejaVuSans-101"/>
     <use x="1873.064453" xlink:href="#DejaVuSans-32"/>
     <use x="1904.851562" xlink:href="#DejaVuSans-40"/>
     <use x="1943.865234" xlink:href="#DejaVuSans-108"/>
     <use x="1971.648438" xlink:href="#DejaVuSans-111"/>
     <use x="2032.830078" xlink:href="#DejaVuSans-119"/>
     <use x="2114.617188" xlink:href="#DejaVuSans-101"/>
     <use x="2176.140625" xlink:href="#DejaVuSans-114"/>
     <use x="2217.253906" xlink:href="#DejaVuSans-32"/>
     <use x="2249.041016" xlink:href="#DejaVuSans-105"/>
     <use x="2276.824219" xlink:href="#DejaVuSans-115"/>
     <use x="2328.923828" xlink:href="#DejaVuSans-32"/>
     <use x="2360.710938" xlink:href="#DejaVuSans-98"/>
     <use x="2424.1875" xlink:href="#DejaVuSans-101"/>
     <use x="2485.710938" xlink:href="#DejaVuSans-116"/>
     <use x="2524.919922" xlink:href="#DejaVuSans-116"/>
     <use x="2564.128906" xlink:href="#DejaVuSans-101"/>
     <use x="2625.652344" xlink:href="#DejaVuSans-114"/>
     <use x="2666.765625" xlink:href="#DejaVuSans-41"/>
    </g>
   </g>
  </g>
 </g>
 <defs>
  <clipPath id="p87215ac819">
   <rect height="345.988" width="347.638" x="57.131" y="31.256"/>
  </clipPath>
 </defs>
</svg>
