<svg version="1.1" viewBox="0.0 0.0 378.56692913385825 327.84776902887137" fill="none" stroke="none" stroke-linecap="square" stroke-miterlimit="10" xmlns:xlink="http://www.w3.org/1999/xlink" xmlns="http://www.w3.org/2000/svg"><clipPath id="p.0"><path d="m0 0l378.56693 0l0 327.84778l-378.56693 0l0 -327.84778z" clip-rule="nonzero"/></clipPath><g clip-path="url(#p.0)"><path fill="#000000" fill-opacity="0.0" d="m0 0l378.56693 0l0 327.84778l-378.56693 0z" fill-rule="evenodd"/><path fill="#000000" fill-opacity="0.0" d="m0 0l86.04724 0l0 54.330708l-86.04724 0z" fill-rule="evenodd"/><path stroke="#000000" stroke-width="1.0" stroke-linejoin="round" stroke-linecap="butt" d="m0 0l86.04724 0l0 54.330708l-86.04724 0z" fill-rule="evenodd"/><path fill="#000000" d="m20.177635 34.08535l5.125 -13.359375l1.90625 0l5.46875 13.359375l-2.015625 0l-1.546875 -4.046875l-5.59375 0l-1.46875 4.046875l-1.875 0zm3.859375 -5.484375l4.53125 0l-1.40625 -3.703125q-0.625 -1.6875 -0.9375 -2.765625q-0.265625 1.28125 -0.71875 2.546875l-1.46875 3.921875zm10.052948 5.484375l0 -13.359375l5.046875 0q1.328125 0 2.03125 0.125q0.96875 0.171875 1.640625 0.640625q0.671875 0.453125 1.078125 1.28125q0.40625 0.828125 0.40625 1.828125q0 1.703125 -1.09375 2.890625q-1.078125 1.171875 -3.921875 1.171875l-3.421875 0l0 5.421875l-1.765625 0zm1.765625 -7.0l3.453125 0q1.71875 0 2.4375 -0.640625q0.71875 -0.640625 0.71875 -1.796875q0 -0.84375 -0.421875 -1.4375q-0.421875 -0.59375 -1.125 -0.78125q-0.4375 -0.125 -1.640625 -0.125l-3.421875 0l0 4.78125zm10.974823 7.0l0 -13.359375l1.765625 0l0 13.359375l-1.765625 0zm15.585358 0l-1.640625 0l0 -10.453125q-0.59375 0.5625 -1.5625 1.140625q-0.953125 0.5625 -1.71875 0.84375l0 -1.59375q1.375 -0.640625 2.40625 -1.5625q1.03125 -0.921875 1.453125 -1.78125l1.0625 0l0 13.40625z" fill-rule="nonzero"/><path fill="#000000" fill-opacity="0.0" d="m97.19423 0l86.04724 0l0 54.330708l-86.04724 0z" fill-rule="evenodd"/><path stroke="#000000" stroke-width="1.0" stroke-linejoin="round" stroke-linecap="butt" d="m97.19423 0l86.04724 0l0 54.330708l-86.04724 0z" fill-rule="evenodd"/><path fill="#000000" d="m117.371864 34.08535l5.125 -13.359375l1.90625 0l5.4687424 13.359375l-2.0156174 0l-1.546875 -4.046875l-5.59375 0l-1.46875 4.046875l-1.875 0zm3.859375 -5.484375l4.53125 0l-1.40625 -3.703125q-0.625 -1.6875 -0.9375 -2.765625q-0.265625 1.28125 -0.71875 2.546875l-1.46875 3.921875zm10.05294 5.484375l0 -13.359375l5.046875 0q1.328125 0 2.03125 0.125q0.96875 0.171875 1.640625 0.640625q0.671875 0.453125 1.078125 1.28125q0.40625 0.828125 0.40625 1.828125q0 1.703125 -1.09375 2.890625q-1.078125 1.171875 -3.921875 1.171875l-3.421875 0l0 5.421875l-1.765625 0zm1.765625 -7.0l3.453125 0q1.71875 0 2.4375 -0.640625q0.71875 -0.640625 0.71875 -1.796875q0 -0.84375 -0.421875 -1.4375q-0.421875 -0.59375 -1.125 -0.78125q-0.4375 -0.125 -1.640625 -0.125l-3.421875 0l0 4.78125zm10.974823 7.0l0 -13.359375l1.765625 0l0 13.359375l-1.765625 0zm18.022858 -1.578125l0 1.578125l-8.828125 0q-0.015625 -0.59375 0.1875 -1.140625q0.34375 -0.90625 1.078125 -1.78125q0.75 -0.875 2.15625 -2.015625q2.171875 -1.78125 2.9375 -2.828125q0.765625 -1.046875 0.765625 -1.96875q0 -0.984375 -0.703125 -1.640625q-0.6875 -0.671875 -1.8125 -0.671875q-1.1875 0 -1.90625 0.71875q-0.703125 0.703125 -0.703125 1.953125l-1.6875 -0.171875q0.171875 -1.890625 1.296875 -2.875q1.140625 -0.984375 3.03125 -0.984375q1.921875 0 3.046875 1.0625q1.125 1.0625 1.125 2.640625q0 0.796875 -0.328125 1.578125q-0.328125 0.78125 -1.09375 1.640625q-0.75 0.84375 -2.53125 2.34375q-1.46875 1.234375 -1.890625 1.6875q-0.421875 0.4375 -0.6875 0.875l6.546875 0z" fill-rule="nonzero"/><path fill="#000000" fill-opacity="0.0" d="m194.38846 0l86.04724 0l0 54.330708l-86.04724 0z" fill-rule="evenodd"/><path stroke="#000000" stroke-width="1.0" stroke-linejoin="round" stroke-linecap="butt" d="m194.38846 0l86.04724 0l0 54.330708l-86.04724 0z" fill-rule="evenodd"/><path fill="#000000" d="m214.56609 34.08535l5.125 -13.359375l1.90625 0l5.46875 13.359375l-2.015625 0l-1.546875 -4.046875l-5.59375 0l-1.46875 4.046875l-1.875 0zm3.859375 -5.484375l4.53125 0l-1.40625 -3.703125q-0.625 -1.6875 -0.9375 -2.765625q-0.265625 1.28125 -0.71875 2.546875l-1.46875 3.921875zm10.052948 5.484375l0 -13.359375l5.046875 0q1.328125 0 2.03125 0.125q0.96875 0.171875 1.640625 0.640625q0.671875 0.453125 1.078125 1.28125q0.40625 0.828125 0.40625 1.828125q0 1.703125 -1.09375 2.890625q-1.078125 1.171875 -3.921875 1.171875l-3.421875 0l0 5.421875l-1.765625 0zm1.765625 -7.0l3.453125 0q1.71875 0 2.4375 -0.640625q0.71875 -0.640625 0.71875 -1.796875q0 -0.84375 -0.421875 -1.4375q-0.421875 -0.59375 -1.125 -0.78125q-0.4375 -0.125 -1.640625 -0.125l-3.421875 0l0 4.78125zm10.974823 7.0l0 -13.359375l1.765625 0l0 13.359375l-1.765625 0zm9.413483 -3.53125l1.640625 -0.21875q0.28125 1.40625 0.953125 2.015625q0.6875 0.609375 1.65625 0.609375q1.1562653 0 1.9531403 -0.796875q0.796875 -0.796875 0.796875 -1.984375q0 -1.125 -0.734375 -1.859375q-0.734375 -0.734375 -1.8750153 -0.734375q-0.46875 0 -1.15625 0.171875l0.1875 -1.4375q0.15625 0.015625 0.265625 0.015625q1.046875 0 1.8750153 -0.546875q0.84375 -0.546875 0.84375 -1.671875q0 -0.90625 -0.609375 -1.5q-0.60939026 -0.59375 -1.5781403 -0.59375q-0.953125 0 -1.59375 0.609375q-0.640625 0.59375 -0.8125 1.796875l-1.640625 -0.296875q0.296875 -1.640625 1.359375 -2.546875q1.0625 -0.90625 2.65625 -0.90625q1.09375 0 2.0000153 0.46875q0.921875 0.46875 1.40625 1.28125q0.5 0.8125 0.5 1.71875q0 0.859375 -0.46875 1.578125q-0.46875 0.703125 -1.375 1.125q1.1875 0.28125 1.84375 1.140625q0.65625 0.859375 0.65625 2.15625q0 1.734375 -1.28125 2.953125q-1.265625 1.21875 -3.2187653 1.21875q-1.765625 0 -2.921875 -1.046875q-1.15625 -1.046875 -1.328125 -2.71875z" fill-rule="nonzero"/><path fill="#000000" fill-opacity="0.0" d="m291.58267 0l86.04724 0l0 54.330708l-86.04724 0z" fill-rule="evenodd"/><path stroke="#000000" stroke-width="1.0" stroke-linejoin="round" stroke-linecap="butt" d="m291.58267 0l86.04724 0l0 54.330708l-86.04724 0z" fill-rule="evenodd"/><path fill="#000000" d="m311.7603 34.08535l5.125 -13.359375l1.90625 0l5.46875 13.359375l-2.015625 0l-1.546875 -4.046875l-5.59375 0l-1.46875 4.046875l-1.875 0zm3.859375 -5.484375l4.53125 0l-1.40625 -3.703125q-0.625 -1.6875 -0.9375 -2.765625q-0.265625 1.28125 -0.71875 2.546875l-1.46875 3.921875zm10.052948 5.484375l0 -13.359375l5.046875 0q1.328125 0 2.03125 0.125q0.96875 0.171875 1.640625 0.640625q0.671875 0.453125 1.078125 1.28125q0.40625 0.828125 0.40625 1.828125q0 1.703125 -1.09375 2.890625q-1.078125 1.171875 -3.921875 1.171875l-3.421875 0l0 5.421875l-1.765625 0zm1.765625 -7.0l3.453125 0q1.71875 0 2.4375 -0.640625q0.71875 -0.640625 0.71875 -1.796875q0 -0.84375 -0.421875 -1.4375q-0.421875 -0.59375 -1.125 -0.78125q-0.4375 -0.125 -1.640625 -0.125l-3.421875 0l0 4.78125zm10.974823 7.0l0 -13.359375l1.765625 0l0 13.359375l-1.765625 0zm14.663483 0l0 -3.203125l-5.796875 0l0 -1.5l6.09375 -8.65625l1.34375 0l0 8.65625l1.796875 0l0 1.5l-1.796875 0l0 3.203125l-1.640625 0zm0 -4.703125l0 -6.015625l-4.1875 6.015625l4.1875 0z" fill-rule="nonzero"/><path fill="#000000" fill-opacity="0.0" d="m0 273.063l86.04724 0l0 54.33072l-86.04724 0z" fill-rule="evenodd"/><path stroke="#000000" stroke-width="1.0" stroke-linejoin="round" stroke-linecap="butt" d="m0 273.063l86.04724 0l0 54.33072l-86.04724 0z" fill-rule="evenodd"/><path fill="#000000" d="m18.058128 301.91397l0 -1.578125l5.65625 0l0 4.953125q-1.296875 1.046875 -2.6875 1.578125q-1.375 0.515625 -2.84375 0.515625q-1.96875 0 -3.578125 -0.84375q-1.609375 -0.84375 -2.421875 -2.4375q-0.8125 -1.59375 -0.8125 -3.5625q0 -1.953125 0.8125 -3.640625q0.8125 -1.6875 2.34375 -2.5q1.53125 -0.828125 3.515625 -0.828125q1.453125 0 2.625 0.46875q1.171875 0.46875 1.828125 1.3125q0.671875 0.828125 1.015625 2.171875l-1.59375 0.4375q-0.296875 -1.015625 -0.75 -1.59375q-0.4375 -0.59375 -1.265625 -0.9375q-0.828125 -0.34375 -1.84375 -0.34375q-1.203125 0 -2.09375 0.375q-0.890625 0.359375 -1.4375 0.96875q-0.53125 0.59375 -0.828125 1.3125q-0.515625 1.234375 -0.515625 2.6875q0 1.78125 0.609375 2.984375q0.625 1.203125 1.796875 1.796875q1.171875 0.578125 2.5 0.578125q1.140625 0 2.234375 -0.4375q1.09375 -0.453125 1.65625 -0.953125l0 -2.484375l-3.921875 0zm11.667679 5.234375l0 -11.78125l-4.40625 0l0 -1.578125l10.578125 0l0 1.578125l-4.40625 0l0 11.78125l-1.765625 0zm8.083481 0l0 -13.359375l9.015625 0l0 1.578125l-7.25 0l0 4.140625l6.265625 0l0 1.578125l-6.265625 0l0 6.0625l-1.765625 0zm10.708481 -4.296875l1.65625 -0.140625q0.125 1.0 0.546875 1.640625q0.4375 0.640625 1.34375 1.046875q0.921875 0.390625 2.0625 0.390625q1.0 0 1.78125 -0.296875q0.78125 -0.296875 1.15625 -0.8125q0.375 -0.53125 0.375 -1.15625q0 -0.625 -0.375 -1.09375q-0.359375 -0.46875 -1.1875 -0.796875q-0.546875 -0.203125 -2.390625 -0.640625q-1.828125 -0.453125 -2.5625 -0.84375q-0.96875 -0.5 -1.4375 -1.234375q-0.46875 -0.75 -0.46875 -1.671875q0 -1.0 0.578125 -1.875q0.578125 -0.890625 1.671875 -1.34375q1.109375 -0.453125 2.453125 -0.453125q1.484375 0 2.609375 0.484375q1.140625 0.46875 1.75 1.40625q0.609375 0.921875 0.65625 2.09375l-1.6875 0.125q-0.140625 -1.265625 -0.9375 -1.90625q-0.78125 -0.65625 -2.3125 -0.65625q-1.609375 0 -2.34375 0.59375q-0.734375 0.59375 -0.734375 1.421875q0 0.71875 0.53125 1.171875q0.5 0.46875 2.65625 0.96875q2.15625 0.484375 2.953125 0.84375q1.171875 0.53125 1.71875 1.359375q0.5625 0.828125 0.5625 1.90625q0 1.0625 -0.609375 2.015625q-0.609375 0.9375 -1.75 1.46875q-1.140625 0.515625 -2.578125 0.515625q-1.8125 0 -3.046875 -0.53125q-1.21875 -0.53125 -1.921875 -1.59375q-0.6875 -1.0625 -0.71875 -2.40625zm23.736252 4.296875l-1.640625 0l0 -10.453125q-0.59375 0.5625 -1.5625 1.140625q-0.953125 0.5625 -1.71875 0.84375l0 -1.59375q1.375 -0.640625 2.40625 -1.5625q1.03125 -0.921875 1.453125 -1.78125l1.0625 0l0 13.40625z" fill-rule="nonzero"/><path fill="#000000" fill-opacity="0.0" d="m97.19423 273.063l86.04724 0l0 54.33072l-86.04724 0z" fill-rule="evenodd"/><path stroke="#000000" stroke-width="1.0" stroke-linejoin="round" stroke-linecap="butt" d="m97.19423 273.063l86.04724 0l0 54.33072l-86.04724 0z" fill-rule="evenodd"/><path fill="#000000" d="m115.25236 301.91397l0 -1.578125l5.65625 0l0 4.953125q-1.296875 1.046875 -2.6875 1.578125q-1.375 0.515625 -2.84375 0.515625q-1.96875 0 -3.578125 -0.84375q-1.609375 -0.84375 -2.421875 -2.4375q-0.8125 -1.59375 -0.8125 -3.5625q0 -1.953125 0.8125 -3.640625q0.8125 -1.6875 2.34375 -2.5q1.53125 -0.828125 3.515625 -0.828125q1.453125 0 2.625 0.46875q1.171875 0.46875 1.828125 1.3125q0.671875 0.828125 1.015625 2.171875l-1.59375 0.4375q-0.296875 -1.015625 -0.75 -1.59375q-0.4375 -0.59375 -1.265625 -0.9375q-0.828125 -0.34375 -1.84375 -0.34375q-1.203125 0 -2.09375 0.375q-0.890625 0.359375 -1.4375 0.96875q-0.53125 0.59375 -0.828125 1.3125q-0.515625 1.234375 -0.515625 2.6875q0 1.78125 0.609375 2.984375q0.625 1.203125 1.796875 1.796875q1.171875 0.578125 2.5 0.578125q1.140625 0 2.234375 -0.4375q1.09375 -0.453125 1.65625 -0.953125l0 -2.484375l-3.921875 0zm11.667679 5.234375l0 -11.78125l-4.40625 0l0 -1.578125l10.578117 0l0 1.578125l-4.40625 0l0 11.78125l-1.7656174 0zm8.083473 0l0 -13.359375l9.015625 0l0 1.578125l-7.25 0l0 4.140625l6.265625 0l0 1.578125l-6.265625 0l0 6.0625l-1.765625 0zm10.708481 -4.296875l1.65625 -0.140625q0.125 1.0 0.546875 1.640625q0.4375 0.640625 1.34375 1.046875q0.921875 0.390625 2.0625 0.390625q1.0 0 1.78125 -0.296875q0.78125 -0.296875 1.15625 -0.8125q0.375 -0.53125 0.375 -1.15625q0 -0.625 -0.375 -1.09375q-0.359375 -0.46875 -1.1875 -0.796875q-0.546875 -0.203125 -2.390625 -0.640625q-1.828125 -0.453125 -2.5625 -0.84375q-0.96875 -0.5 -1.4375 -1.234375q-0.46875 -0.75 -0.46875 -1.671875q0 -1.0 0.578125 -1.875q0.578125 -0.890625 1.671875 -1.34375q1.109375 -0.453125 2.453125 -0.453125q1.484375 0 2.609375 0.484375q1.140625 0.46875 1.75 1.40625q0.609375 0.921875 0.65625 2.09375l-1.6875 0.125q-0.140625 -1.265625 -0.9375 -1.90625q-0.78125 -0.65625 -2.3125 -0.65625q-1.609375 0 -2.34375 0.59375q-0.734375 0.59375 -0.734375 1.421875q0 0.71875 0.53125 1.171875q0.5 0.46875 2.65625 0.96875q2.15625 0.484375 2.953125 0.84375q1.171875 0.53125 1.71875 1.359375q0.5625 0.828125 0.5625 1.90625q0 1.0625 -0.609375 2.015625q-0.609375 0.9375 -1.75 1.46875q-1.140625 0.515625 -2.578125 0.515625q-1.8125 0 -3.046875 -0.53125q-1.21875 -0.53125 -1.921875 -1.59375q-0.6875 -1.0625 -0.71875 -2.40625zm26.173752 2.71875l0 1.578125l-8.828125 0q-0.015625 -0.59375 0.1875 -1.140625q0.34375 -0.90625 1.078125 -1.78125q0.75 -0.875 2.15625 -2.015625q2.171875 -1.78125 2.9375 -2.828125q0.765625 -1.046875 0.765625 -1.96875q0 -0.984375 -0.703125 -1.640625q-0.6875 -0.671875 -1.8125 -0.671875q-1.1875 0 -1.90625 0.71875q-0.703125 0.703125 -0.703125 1.953125l-1.6875 -0.171875q0.171875 -1.890625 1.296875 -2.875q1.140625 -0.984375 3.03125 -0.984375q1.921875 0 3.046875 1.0625q1.125 1.0625 1.125 2.640625q0 0.796875 -0.328125 1.578125q-0.328125 0.78125 -1.09375 1.640625q-0.75 0.84375 -2.53125 2.34375q-1.46875 1.234375 -1.890625 1.6875q-0.421875 0.4375 -0.6875 0.875l6.546875 0z" fill-rule="nonzero"/><path fill="#000000" fill-opacity="0.0" d="m194.38846 273.063l86.04724 0l0 54.33072l-86.04724 0z" fill-rule="evenodd"/><path stroke="#000000" stroke-width="1.0" stroke-linejoin="round" stroke-linecap="butt" d="m194.38846 273.063l86.04724 0l0 54.33072l-86.04724 0z" fill-rule="evenodd"/><path fill="#000000" d="m212.44658 301.91397l0 -1.578125l5.65625 0l0 4.953125q-1.296875 1.046875 -2.6875 1.578125q-1.375 0.515625 -2.84375 0.515625q-1.96875 0 -3.578125 -0.84375q-1.609375 -0.84375 -2.421875 -2.4375q-0.8125 -1.59375 -0.8125 -3.5625q0 -1.953125 0.8125 -3.640625q0.8125 -1.6875 2.34375 -2.5q1.53125 -0.828125 3.515625 -0.828125q1.453125 0 2.625 0.46875q1.171875 0.46875 1.828125 1.3125q0.671875 0.828125 1.015625 2.171875l-1.59375 0.4375q-0.296875 -1.015625 -0.75 -1.59375q-0.4375 -0.59375 -1.265625 -0.9375q-0.828125 -0.34375 -1.84375 -0.34375q-1.203125 0 -2.09375 0.375q-0.890625 0.359375 -1.4375 0.96875q-0.53125 0.59375 -0.828125 1.3125q-0.515625 1.234375 -0.515625 2.6875q0 1.78125 0.609375 2.984375q0.625 1.203125 1.796875 1.796875q1.171875 0.578125 2.5 0.578125q1.140625 0 2.234375 -0.4375q1.09375 -0.453125 1.65625 -0.953125l0 -2.484375l-3.921875 0zm11.667679 5.234375l0 -11.78125l-4.40625 0l0 -1.578125l10.578125 0l0 1.578125l-4.40625 0l0 11.78125l-1.765625 0zm8.083481 0l0 -13.359375l9.015625 0l0 1.578125l-7.25 0l0 4.140625l6.265625 0l0 1.578125l-6.265625 0l0 6.0625l-1.765625 0zm10.708481 -4.296875l1.65625 -0.140625q0.125 1.0 0.546875 1.640625q0.4375 0.640625 1.34375 1.046875q0.921875 0.390625 2.0625 0.390625q1.0 0 1.78125 -0.296875q0.78125 -0.296875 1.15625 -0.8125q0.375 -0.53125 0.375 -1.15625q0 -0.625 -0.375 -1.09375q-0.359375 -0.46875 -1.1875 -0.796875q-0.546875 -0.203125 -2.390625 -0.640625q-1.828125 -0.453125 -2.5625 -0.84375q-0.96875 -0.5 -1.4375 -1.234375q-0.46875 -0.75 -0.46875 -1.671875q0 -1.0 0.578125 -1.875q0.578125 -0.890625 1.671875 -1.34375q1.109375 -0.453125 2.453125 -0.453125q1.484375 0 2.609375 0.484375q1.140625 0.46875 1.75 1.40625q0.609375 0.921875 0.65625 2.09375l-1.6875 0.125q-0.140625 -1.265625 -0.9375 -1.90625q-0.78125 -0.65625 -2.3125 -0.65625q-1.609375 0 -2.34375 0.59375q-0.734375 0.59375 -0.734375 1.421875q0 0.71875 0.53125 1.171875q0.5 0.46875 2.65625 0.96875q2.15625 0.484375 2.953125 0.84375q1.171875 0.53125 1.71875 1.359375q0.5625 0.828125 0.5625 1.90625q0 1.0625 -0.609375 2.015625q-0.609375 0.9375 -1.75 1.46875q-1.140625 0.515625 -2.578125 0.515625q-1.8125 0 -3.046875 -0.53125q-1.21875 -0.53125 -1.921875 -1.59375q-0.6875 -1.0625 -0.71875 -2.40625zm17.564392 0.765625l1.640625 -0.21875q0.28125 1.40625 0.953125 2.015625q0.6875 0.609375 1.65625 0.609375q1.15625 0 1.953125 -0.796875q0.796875 -0.796875 0.796875 -1.984375q0 -1.125 -0.734375 -1.859375q-0.734375 -0.734375 -1.875 -0.734375q-0.46875 0 -1.15625 0.171875l0.1875 -1.4375q0.15625 0.015625 0.265625 0.015625q1.046875 0 1.875 -0.546875q0.84375 -0.546875 0.84375 -1.671875q0 -0.90625 -0.609375 -1.5q-0.609375 -0.59375 -1.578125 -0.59375q-0.953125 0 -1.59375 0.609375q-0.640625 0.59375 -0.8125 1.796875l-1.640625 -0.296875q0.296875 -1.640625 1.359375 -2.546875q1.0625 -0.90625 2.65625 -0.90625q1.09375 0 2.0 0.46875q0.921875 0.46875 1.40625 1.28125q0.5 0.8125 0.5 1.71875q0 0.859375 -0.46875 1.578125q-0.46875 0.703125 -1.375 1.125q1.1875 0.28125 1.84375 1.140625q0.65625 0.859375 0.65625 2.15625q0 1.734375 -1.28125 2.953125q-1.265625 1.21875 -3.21875 1.21875q-1.765625 0 -2.921875 -1.046875q-1.15625 -1.046875 -1.328125 -2.71875z" fill-rule="nonzero"/><path fill="#000000" fill-opacity="0.0" d="m291.58267 273.063l86.04724 0l0 54.33072l-86.04724 0z" fill-rule="evenodd"/><path stroke="#000000" stroke-width="1.0" stroke-linejoin="round" stroke-linecap="butt" d="m291.58267 273.063l86.04724 0l0 54.33072l-86.04724 0z" fill-rule="evenodd"/><path fill="#000000" d="m309.6408 301.91397l0 -1.578125l5.65625 0l0 4.953125q-1.296875 1.046875 -2.6875 1.578125q-1.375 0.515625 -2.84375 0.515625q-1.96875 0 -3.578125 -0.84375q-1.609375 -0.84375 -2.421875 -2.4375q-0.8125 -1.59375 -0.8125 -3.5625q0 -1.953125 0.8125 -3.640625q0.8125 -1.6875 2.34375 -2.5q1.53125 -0.828125 3.515625 -0.828125q1.453125 0 2.625 0.46875q1.171875 0.46875 1.828125 1.3125q0.671875 0.828125 1.015625 2.171875l-1.59375 0.4375q-0.296875 -1.015625 -0.75 -1.59375q-0.4375 -0.59375 -1.265625 -0.9375q-0.828125 -0.34375 -1.84375 -0.34375q-1.203125 0 -2.09375 0.375q-0.890625 0.359375 -1.4375 0.96875q-0.53125 0.59375 -0.828125 1.3125q-0.515625 1.234375 -0.515625 2.6875q0 1.78125 0.609375 2.984375q0.625 1.203125 1.796875 1.796875q1.171875 0.578125 2.5 0.578125q1.140625 0 2.234375 -0.4375q1.09375 -0.453125 1.65625 -0.953125l0 -2.484375l-3.921875 0zm11.667664 5.234375l0 -11.78125l-4.40625 0l0 -1.578125l10.578125 0l0 1.578125l-4.40625 0l0 11.78125l-1.765625 0zm8.083496 0l0 -13.359375l9.015625 0l0 1.578125l-7.25 0l0 4.140625l6.265625 0l0 1.578125l-6.265625 0l0 6.0625l-1.765625 0zm10.708466 -4.296875l1.65625 -0.140625q0.125 1.0 0.546875 1.640625q0.4375 0.640625 1.34375 1.046875q0.921875 0.390625 2.0625 0.390625q1.0 0 1.78125 -0.296875q0.78125 -0.296875 1.15625 -0.8125q0.375 -0.53125 0.375 -1.15625q0 -0.625 -0.375 -1.09375q-0.359375 -0.46875 -1.1875 -0.796875q-0.546875 -0.203125 -2.390625 -0.640625q-1.828125 -0.453125 -2.5625 -0.84375q-0.96875 -0.5 -1.4375 -1.234375q-0.46875 -0.75 -0.46875 -1.671875q0 -1.0 0.578125 -1.875q0.578125 -0.890625 1.671875 -1.34375q1.109375 -0.453125 2.453125 -0.453125q1.484375 0 2.609375 0.484375q1.140625 0.46875 1.75 1.40625q0.609375 0.921875 0.65625 2.09375l-1.6875 0.125q-0.140625 -1.265625 -0.9375 -1.90625q-0.78125 -0.65625 -2.3125 -0.65625q-1.609375 0 -2.34375 0.59375q-0.734375 0.59375 -0.734375 1.421875q0 0.71875 0.53125 1.171875q0.5 0.46875 2.65625 0.96875q2.15625 0.484375 2.953125 0.84375q1.171875 0.53125 1.71875 1.359375q0.5625 0.828125 0.5625 1.90625q0 1.0625 -0.609375 2.015625q-0.609375 0.9375 -1.75 1.46875q-1.140625 0.515625 -2.578125 0.515625q-1.8125 0 -3.046875 -0.53125q-1.21875 -0.53125 -1.921875 -1.59375q-0.6875 -1.0625 -0.71875 -2.40625zm22.814392 4.296875l0 -3.203125l-5.796875 0l0 -1.5l6.09375 -8.65625l1.34375 0l0 8.65625l1.796875 0l0 1.5l-1.796875 0l0 3.203125l-1.640625 0zm0 -4.703125l0 -6.015625l-4.1875 6.015625l4.1875 0z" fill-rule="nonzero"/><path fill="#000000" fill-opacity="0.0" d="m118.69554 136.5315l138.11024 0l0 54.330704l-138.11024 0z" fill-rule="evenodd"/><path stroke="#000000" stroke-width="1.0" stroke-linejoin="round" stroke-linecap="butt" d="m118.69554 136.5315l138.11024 0l0 54.330704l-138.11024 0z" fill-rule="evenodd"/><path fill="#000000" d="m142.08539 170.61685l5.125 -13.359375l1.90625 0l5.46875 13.359375l-2.015625 0l-1.546875 -4.046875l-5.59375 0l-1.46875 4.046875l-1.875 0zm3.859375 -5.484375l4.53125 0l-1.40625 -3.703125q-0.625 -1.6875 -0.9375 -2.765625q-0.265625 1.28125 -0.71875 2.546875l-1.46875 3.921875zm9.849823 9.1875l0 -13.375l1.484375 0l0 1.25q0.53125 -0.734375 1.1875 -1.09375q0.671875 -0.375 1.625 -0.375q1.234375 0 2.171875 0.640625q0.953125 0.625 1.4375 1.796875q0.484375 1.15625 0.484375 2.546875q0 1.484375 -0.53125 2.671875q-0.53125 1.1875 -1.546875 1.828125q-1.015625 0.625 -2.140625 0.625q-0.8125 0 -1.46875 -0.34375q-0.65625 -0.34375 -1.0625 -0.875l0 4.703125l-1.640625 0zm1.484375 -8.484375q0 1.859375 0.75 2.765625q0.765625 0.890625 1.828125 0.890625q1.09375 0 1.875 -0.921875q0.78125 -0.9375 0.78125 -2.875q0 -1.84375 -0.765625 -2.765625q-0.75 -0.921875 -1.8125 -0.921875q-1.046875 0 -1.859375 0.984375q-0.796875 0.96875 -0.796875 2.84375zm8.891342 8.484375l0 -13.375l1.484375 0l0 1.25q0.53125 -0.734375 1.1875 -1.09375q0.671875 -0.375 1.625 -0.375q1.234375 0 2.171875 0.640625q0.953125 0.625 1.4375 1.796875q0.484375 1.15625 0.484375 2.546875q0 1.484375 -0.53125 2.671875q-0.53125 1.1875 -1.546875 1.828125q-1.015625 0.625 -2.140625 0.625q-0.8125 0 -1.46875 -0.34375q-0.65625 -0.34375 -1.0625 -0.875l0 4.703125l-1.640625 0zm1.484375 -8.484375q0 1.859375 0.75 2.765625q0.765625 0.890625 1.828125 0.890625q1.09375 0 1.875 -0.921875q0.78125 -0.9375 0.78125 -2.875q0 -1.84375 -0.765625 -2.765625q-0.75 -0.921875 -1.8125 -0.921875q-1.046875 0 -1.859375 0.984375q-0.796875 0.96875 -0.796875 2.84375zm8.844467 4.78125l0 -13.359375l1.640625 0l0 13.359375l-1.640625 0zm4.191696 -11.46875l0 -1.890625l1.640625 0l0 1.890625l-1.640625 0zm0 11.46875l0 -9.671875l1.640625 0l0 9.671875l-1.640625 0zm10.457321 -3.546875l1.609375 0.21875q-0.265625 1.65625 -1.359375 2.609375q-1.078125 0.9375 -2.671875 0.9375q-1.984375 0 -3.1875 -1.296875q-1.203125 -1.296875 -1.203125 -3.71875q0 -1.578125 0.515625 -2.75q0.515625 -1.171875 1.578125 -1.75q1.0625 -0.59375 2.3125 -0.59375q1.578125 0 2.578125 0.796875q1.0 0.796875 1.28125 2.265625l-1.59375 0.234375q-0.234375 -0.96875 -0.8125 -1.453125q-0.578125 -0.5 -1.390625 -0.5q-1.234375 0 -2.015625 0.890625q-0.78125 0.890625 -0.78125 2.8125q0 1.953125 0.75 2.84375q0.75 0.875 1.953125 0.875q0.96875 0 1.609375 -0.59375q0.65625 -0.59375 0.828125 -1.828125zm9.328125 2.359375q-0.921875 0.765625 -1.765625 1.09375q-0.828125 0.3125 -1.796875 0.3125q-1.59375 0 -2.453125 -0.78125q-0.859375 -0.78125 -0.859375 -1.984375q0 -0.71875 0.328125 -1.296875q0.328125 -0.59375 0.84375 -0.9375q0.53125 -0.359375 1.1875 -0.546875q0.46875 -0.125 1.453125 -0.25q1.984375 -0.234375 2.921875 -0.5625q0.015625 -0.34375 0.015625 -0.421875q0 -1.0 -0.46875 -1.421875q-0.625 -0.546875 -1.875 -0.546875q-1.15625 0 -1.703125 0.40625q-0.546875 0.40625 -0.8125 1.421875l-1.609375 -0.21875q0.21875 -1.015625 0.71875 -1.640625q0.5 -0.640625 1.453125 -0.984375q0.953125 -0.34375 2.1875 -0.34375q1.25 0 2.015625 0.296875q0.78125 0.28125 1.140625 0.734375q0.375 0.4375 0.515625 1.109375q0.078125 0.421875 0.078125 1.515625l0 2.1875q0 2.28125 0.109375 2.890625q0.109375 0.59375 0.40625 1.15625l-1.703125 0q-0.265625 -0.515625 -0.328125 -1.1875zm-0.140625 -3.671875q-0.890625 0.375 -2.671875 0.625q-1.015625 0.140625 -1.4375 0.328125q-0.421875 0.1875 -0.65625 0.53125q-0.21875 0.34375 -0.21875 0.78125q0 0.65625 0.5 1.09375q0.5 0.4375 1.453125 0.4375q0.9375 0 1.671875 -0.40625q0.75 -0.421875 1.09375 -1.140625q0.265625 -0.5625 0.265625 -1.640625l0 -0.609375zm7.781967 3.390625l0.234375 1.453125q-0.6875 0.140625 -1.234375 0.140625q-0.890625 0 -1.390625 -0.28125q-0.484375 -0.28125 -0.6875 -0.734375q-0.203125 -0.46875 -0.203125 -1.9375l0 -5.578125l-1.203125 0l0 -1.265625l1.203125 0l0 -2.390625l1.625 -0.984375l0 3.375l1.65625 0l0 1.265625l-1.65625 0l0 5.671875q0 0.6875 0.078125 0.890625q0.09375 0.203125 0.28125 0.328125q0.203125 0.109375 0.578125 0.109375q0.265625 0 0.71875 -0.0625zm1.6051788 -10.0l0 -1.890625l1.640625 0l0 1.890625l-1.640625 0zm0 11.46875l0 -9.671875l1.640625 0l0 9.671875l-1.640625 0zm3.5354462 -4.84375q0 -2.6875 1.484375 -3.96875q1.25 -1.078125 3.046875 -1.078125q2.0 0 3.265625 1.3125q1.265625 1.296875 1.265625 3.609375q0 1.859375 -0.5625 2.9375q-0.5625 1.0625 -1.640625 1.65625q-1.0625 0.59375 -2.328125 0.59375q-2.03125 0 -3.28125 -1.296875q-1.25 -1.3125 -1.25 -3.765625zm1.6875 0q0 1.859375 0.796875 2.796875q0.8125 0.921875 2.046875 0.921875q1.21875 0 2.03125 -0.921875q0.8125 -0.9375 0.8125 -2.84375q0 -1.796875 -0.8125 -2.71875q-0.8125 -0.921875 -2.03125 -0.921875q-1.234375 0 -2.046875 0.921875q-0.796875 0.90625 -0.796875 2.765625zm9.297592 4.84375l0 -9.671875l1.46875 0l0 1.375q1.0625 -1.59375 3.078125 -1.59375q0.875 0 1.609375 0.3125q0.734375 0.3125 1.09375 0.828125q0.375 0.5 0.515625 1.203125q0.09375 0.453125 0.09375 1.59375l0 5.953125l-1.640625 0l0 -5.890625q0 -1.0 -0.203125 -1.484375q-0.1875 -0.5 -0.671875 -0.796875q-0.484375 -0.296875 -1.140625 -0.296875q-1.046875 0 -1.8125 0.671875q-0.75 0.65625 -0.75 2.515625l0 5.28125l-1.640625 0z" fill-rule="nonzero"/><path fill="#000000" fill-opacity="0.0" d="m187.75066 136.5315l-144.72441 -82.20473" fill-rule="evenodd"/><path stroke="#000000" stroke-width="1.0" stroke-linejoin="round" stroke-linecap="butt" stroke-dasharray="8.0,3.0" d="m187.75066 136.5315l-139.5073 -79.24135" fill-rule="evenodd"/><path fill="#000000" stroke="#000000" stroke-width="1.0" stroke-linecap="butt" d="m49.05916 55.853928l-4.761757 -0.80513l3.130188 3.6775627z" fill-rule="evenodd"/><path fill="#000000" fill-opacity="0.0" d="m187.75066 136.5315l-47.527557 -82.20473" fill-rule="evenodd"/><path stroke="#000000" stroke-width="1.0" stroke-linejoin="round" stroke-linecap="butt" stroke-dasharray="4.0,3.0" d="m187.75066 136.5315l-44.5244 -77.01039" fill-rule="evenodd"/><path fill="#000000" stroke="#000000" stroke-width="1.0" stroke-linecap="butt" d="m144.65619 58.694363l-3.7013702 -3.1019897l0.8414917 4.7554626z" fill-rule="evenodd"/><path fill="#000000" fill-opacity="0.0" d="m187.75066 136.5315l49.669296 -82.20473" fill-rule="evenodd"/><path stroke="#000000" stroke-width="1.0" stroke-linejoin="round" stroke-linecap="butt" stroke-dasharray="4.0,3.0,1.0,3.0" d="m187.75066 136.5315l46.56642 -77.069336" fill-rule="evenodd"/><path fill="#000000" stroke="#000000" stroke-width="1.0" stroke-linecap="butt" d="m235.73079 60.31634l0.933136 -4.738331l-3.760559 3.0299606z" fill-rule="evenodd"/><path fill="#000000" fill-opacity="0.0" d="m187.75066 136.5315l146.86613 -82.20473" fill-rule="evenodd"/><path stroke="#000000" stroke-width="1.0" stroke-linejoin="round" stroke-linecap="butt" stroke-dasharray="8.0,3.0,1.0,3.0" d="m187.75066 136.5315l141.63051 -79.27419" fill-rule="evenodd"/><path fill="#000000" stroke="#000000" stroke-width="1.0" stroke-linecap="butt" d="m330.1879 58.698612l3.1532288 -3.6578178l-4.7667236 0.77518845z" fill-rule="evenodd"/><path fill="#000000" fill-opacity="0.0" d="m187.75066 190.8622l0 41.100723l-47.527557 0l0 41.104004" fill-rule="evenodd"/><path stroke="#000000" stroke-width="1.0" stroke-linejoin="round" stroke-linecap="butt" d="m187.75066 190.8622l0 41.100723l-47.527557 0l0 35.104004" fill-rule="evenodd"/><path fill="#000000" stroke="#000000" stroke-width="1.0" stroke-linecap="butt" d="m138.57137 267.06693l1.6517334 4.5381165l1.6517334 -4.5381165z" fill-rule="evenodd"/><path fill="#000000" fill-opacity="0.0" d="m187.75066 190.8622l0 41.100723l49.669296 0l0 41.104004" fill-rule="evenodd"/><path stroke="#000000" stroke-width="1.0" stroke-linejoin="round" stroke-linecap="butt" d="m187.75066 190.8622l0 41.100723l49.669296 0l0 35.104004" fill-rule="evenodd"/><path fill="#000000" stroke="#000000" stroke-width="1.0" stroke-linecap="butt" d="m235.76822 267.06693l1.6517334 4.5381165l1.6517334 -4.5381165z" fill-rule="evenodd"/><path fill="#000000" fill-opacity="0.0" d="m187.75066 190.8622l0 41.100723l146.86613 0l0 41.104004" fill-rule="evenodd"/><path stroke="#000000" stroke-width="1.0" stroke-linejoin="round" stroke-linecap="butt" d="m187.75066 190.8622l0 41.100723l146.86613 0l0 35.104004" fill-rule="evenodd"/><path fill="#000000" stroke="#000000" stroke-width="1.0" stroke-linecap="butt" d="m332.96506 267.06693l1.6517334 4.5381165l1.6517334 -4.5381165z" fill-rule="evenodd"/><path fill="#000000" fill-opacity="0.0" d="m187.75066 190.8622l0 41.100723l-144.72441 0l0 41.104004" fill-rule="evenodd"/><path stroke="#000000" stroke-width="1.0" stroke-linejoin="round" stroke-linecap="butt" d="m187.75066 190.8622l0 41.100723l-144.72441 0l0 35.104004" fill-rule="evenodd"/><path fill="#000000" stroke="#000000" stroke-width="1.0" stroke-linecap="butt" d="m41.374516 267.06693l1.6517296 4.5381165l1.6517334 -4.5381165z" fill-rule="evenodd"/></g></svg>