<?xml version="1.0" standalone="yes"?>

<svg version="1.1" viewBox="0.0 0.0 891.7427821522309 283.46456692913387" fill="none" stroke="none" stroke-linecap="square" stroke-miterlimit="10" xmlns="http://www.w3.org/2000/svg" xmlns:xlink="http://www.w3.org/1999/xlink"><clipPath id="p.0"><path d="m0 0l891.7428 0l0 283.46457l-891.7428 0l0 -283.46457z" clip-rule="nonzero"></path></clipPath><g clip-path="url(#p.0)"><path fill="#000000" fill-opacity="0.0" d="m0 0l891.7428 0l0 283.46457l-891.7428 0z" fill-rule="evenodd"></path><path fill="#000000" fill-opacity="0.0" d="m-5.9790025 181.83464l895.2441 -1.4803162" fill-rule="evenodd"></path><path stroke="#d89f39" stroke-width="16.0" stroke-linejoin="round" stroke-linecap="butt" d="m-5.9790025 181.83464l799.24426 -1.321579" fill-rule="evenodd"></path><path fill="#d89f39" stroke="#d89f39" stroke-width="16.0" stroke-linecap="butt" d="m793.3089 206.94075l72.565796 -26.547745l-72.65314 -26.307617z" fill-rule="evenodd"></path><path fill="#000000" fill-opacity="0.0" d="m464.32547 74.50141l221.6063 0l0 129.13385l-221.6063 0z" fill-rule="evenodd"></path><path stroke="#666666" stroke-width="2.0" stroke-linejoin="round" stroke-linecap="butt" d="m464.32547 74.50141l221.6063 0l0 129.13385l-221.6063 0z" fill-rule="evenodd"></path><path fill="#000000" fill-opacity="0.0" d="m240.32545 74.50141l221.60631 0l0 129.13385l-221.60631 0z" fill-rule="evenodd"></path><path stroke="#666666" stroke-width="2.0" stroke-linejoin="round" stroke-linecap="butt" d="m240.32545 74.50141l221.60631 0l0 129.13385l-221.60631 0z" fill-rule="evenodd"></path><path fill="#000000" fill-opacity="0.0" d="m14.396325 74.50141l221.6063 0l0 129.13385l-221.6063 0z" fill-rule="evenodd"></path><path stroke="#666666" stroke-width="2.0" stroke-linejoin="round" stroke-linecap="butt" d="m14.396325 74.50141l221.6063 0l0 129.13385l-221.6063 0z" fill-rule="evenodd"></path><path fill="#3a81ba" d="m50.254593 134.0l25.732285 0l0 31.968506l-25.732285 0z" fill-rule="evenodd"></path><path stroke="#666666" stroke-width="2.0" stroke-linejoin="round" stroke-linecap="butt" d="m50.254593 134.0l25.732285 0l0 31.968506l-25.732285 0z" fill-rule="evenodd"></path><path fill="#000000" fill-opacity="0.0" d="m792.2992 160.62466l37.88977 0l0 35.685043l-37.88977 0z" fill-rule="evenodd"></path><path fill="#000000" d="m819.98627 168.9997l0.234375 4.96875l-0.59375 0q-0.171875 -1.3125 -0.46875 -1.875q-0.484375 -0.90625 -1.296875 -1.328125q-0.796875 -0.4375 -2.109375 -0.4375l-2.984375 0l0 16.1875q0 1.953125 0.421875 2.4375q0.59375 0.65625 1.828125 0.65625l0.734375 0l0 0.578125l-8.984375 0l0 -0.578125l0.75 0q1.34375 0 1.90625 -0.8125q0.34375 -0.5 0.34375 -2.28125l0 -16.1875l-2.546875 0q-1.484375 0 -2.109375 0.21875q-0.8125 0.296875 -1.390625 1.140625q-0.578125 0.84375 -0.6875 2.28125l-0.59375 0l0.25 -4.96875l17.296875 0z" fill-rule="nonzero"></path><path fill="#3b6790" d="m82.25459 134.0l25.732285 0l0 31.968506l-25.732285 0z" fill-rule="evenodd"></path><path fill="#3b6790" d="m114.25459 134.0l25.732285 0l0 31.968506l-25.732285 0z" fill-rule="evenodd"></path><path fill="#3b6790" d="m146.2546 134.0l25.732285 0l0 31.968506l-25.732285 0z" fill-rule="evenodd"></path><path fill="#3b6790" d="m178.2546 134.0l25.732285 0l0 31.968506l-25.732285 0z" fill-rule="evenodd"></path><path fill="#3b6790" d="m210.2546 134.0l25.732285 0l0 31.968506l-25.732285 0z" fill-rule="evenodd"></path><path fill="#3b6790" d="m242.2546 134.0l25.732285 0l0 31.968506l-25.732285 0z" fill-rule="evenodd"></path><path fill="#3b6790" d="m274.2546 134.0l25.73227 0l0 31.968506l-25.73227 0z" fill-rule="evenodd"></path><path fill="#3b6790" d="m306.2546 134.0l25.73227 0l0 31.968506l-25.73227 0z" fill-rule="evenodd"></path><path fill="#3b6790" d="m338.2546 134.0l25.73227 0l0 31.968506l-25.73227 0z" fill-rule="evenodd"></path><path fill="#3b6790" d="m370.2546 134.0l25.73227 0l0 31.968506l-25.73227 0z" fill-rule="evenodd"></path><path fill="#3b6790" d="m402.2546 134.0l25.73227 0l0 31.968506l-25.73227 0z" fill-rule="evenodd"></path><path fill="#3b6790" d="m434.2546 134.0l25.73227 0l0 31.968506l-25.73227 0z" fill-rule="evenodd"></path><path fill="#3b6790" d="m466.2546 134.0l25.73227 0l0 31.968506l-25.73227 0z" fill-rule="evenodd"></path><path fill="#3b6790" d="m498.2546 134.0l25.73227 0l0 31.968506l-25.73227 0z" fill-rule="evenodd"></path><path fill="#3b6790" d="m530.2546 134.0l25.7323 0l0 31.968506l-25.7323 0z" fill-rule="evenodd"></path><path fill="#3b6790" d="m562.2546 134.0l25.7323 0l0 31.968506l-25.7323 0z" fill-rule="evenodd"></path><path fill="#3b6790" d="m594.2546 134.0l25.7323 0l0 31.968506l-25.7323 0z" fill-rule="evenodd"></path><path fill="#3b6790" d="m626.2546 134.0l25.7323 0l0 31.968506l-25.7323 0z" fill-rule="evenodd"></path><path fill="#3b6790" d="m658.2546 134.0l25.7323 0l0 31.968506l-25.7323 0z" fill-rule="evenodd"></path><path fill="#3a81ba" d="m690.2546 134.0l25.7323 0l0 31.968506l-25.7323 0z" fill-rule="evenodd"></path><path stroke="#666666" stroke-width="2.0" stroke-linejoin="round" stroke-linecap="butt" d="m690.2546 134.0l25.7323 0l0 31.968506l-25.7323 0z" fill-rule="evenodd"></path><path fill="#3b6790" d="m722.2546 134.0l25.7323 0l0 31.968506l-25.7323 0z" fill-rule="evenodd"></path><path fill="#3b6790" d="m18.254593 134.0l25.732285 0l0 31.968506l-25.732285 0z" fill-rule="evenodd"></path><path fill="#000000" fill-opacity="0.0" d="m125.19947 203.63527l0 38.866043l225.92126 0l0 -38.803055" fill-rule="evenodd"></path><path stroke="#000000" stroke-width="4.0" stroke-linejoin="round" stroke-linecap="butt" d="m125.19948 203.63527l0 38.866043l225.92125 0l0 -14.80304" fill-rule="evenodd"></path><path fill="#000000" stroke="#000000" stroke-width="4.0" stroke-linecap="butt" d="m357.72766 227.69826l-6.6069336 -18.15239l-6.6069336 18.15239z" fill-rule="evenodd"></path><path fill="#000000" fill-opacity="0.0" d="m351.1286 74.50141l0 -32.619522l224.0 0l0 32.682518" fill-rule="evenodd"></path><path stroke="#000000" stroke-width="4.0" stroke-linejoin="round" stroke-linecap="butt" d="m351.1286 74.50141l0 -32.619522l224.0 0l0 8.682518" fill-rule="evenodd"></path><path fill="#000000" stroke="#000000" stroke-width="4.0" stroke-linecap="butt" d="m568.52167 50.564407l6.6069336 18.15239l6.6069336 -18.15239z" fill-rule="evenodd"></path><path fill="#000000" fill-opacity="0.0" d="m203.51443 243.85826l182.74017 0l0 31.05513l-182.74017 0z" fill-rule="evenodd"></path><path fill="#000000" d="m216.42068 259.22638l0 7.859375q1.296875 -1.4375 2.0625 -1.828125q0.765625 -0.40625 1.515625 -0.40625q0.921875 0 1.578125 0.5q0.65625 0.5 0.96875 1.578125q0.21875 0.75 0.21875 2.75l0 3.796875q0 1.015625 0.171875 1.390625q0.109375 0.28125 0.390625 0.453125q0.28125 0.15625 1.03125 0.15625l0 0.421875l-5.265625 0l0 -0.421875l0.25 0q0.75 0 1.03125 -0.21875q0.296875 -0.234375 0.421875 -0.6875q0.03125 -0.1875 0.03125 -1.09375l0 -3.796875q0 -1.765625 -0.1875 -2.3125q-0.171875 -0.546875 -0.578125 -0.828125q-0.390625 -0.28125 -0.953125 -0.28125q-0.578125 0 -1.203125 0.3125q-0.625 0.296875 -1.484375 1.234375l0 5.671875q0 1.09375 0.125 1.375q0.125 0.265625 0.453125 0.453125q0.328125 0.171875 1.15625 0.171875l0 0.421875l-5.328125 0l0 -0.421875q0.71875 0 1.125 -0.21875q0.234375 -0.125 0.375 -0.453125q0.140625 -0.328125 0.140625 -1.328125l0 -9.71875q0 -1.84375 -0.09375 -2.265625q-0.078125 -0.421875 -0.265625 -0.5625q-0.171875 -0.15625 -0.484375 -0.15625q-0.234375 0 -0.796875 0.1875l-0.15625 -0.421875l3.203125 -1.3125l0.546875 0zm8.234375 5.9375l5.0 0l0 0.4375l-0.234375 0q-0.53125 0 -0.796875 0.234375q-0.265625 0.21875 -0.265625 0.5625q0 0.453125 0.390625 1.265625l2.609375 5.40625l2.40625 -5.921875q0.203125 -0.484375 0.203125 -0.953125q0 -0.21875 -0.09375 -0.3125q-0.09375 -0.140625 -0.296875 -0.203125q-0.1875 -0.078125 -0.6875 -0.078125l0 -0.4375l3.484375 0l0 0.4375q-0.4375 0.046875 -0.671875 0.1875q-0.234375 0.140625 -0.515625 0.515625q-0.09375 0.171875 -0.390625 0.90625l-4.375 10.71875q-0.625 1.5625 -1.65625 2.359375q-1.03125 0.796875 -1.96875 0.796875q-0.703125 0 -1.15625 -0.40625q-0.4375 -0.390625 -0.4375 -0.90625q0 -0.5 0.328125 -0.796875q0.328125 -0.296875 0.890625 -0.296875q0.375 0 1.046875 0.25q0.46875 0.1875 0.59375 0.1875q0.34375 0 0.75 -0.375q0.421875 -0.359375 0.84375 -1.40625l0.765625 -1.859375l-3.859375 -8.09375q-0.171875 -0.375 -0.5625 -0.90625q-0.28125 -0.40625 -0.46875 -0.546875q-0.28125 -0.1875 -0.875 -0.328125l0 -0.4375zm20.1875 9.53125q-0.78125 0.8125 -1.53125 1.171875q-0.75 0.359375 -1.609375 0.359375q-1.765625 0 -3.078125 -1.46875q-1.3125 -1.46875 -1.3125 -3.78125q0 -2.3125 1.453125 -4.21875q1.453125 -1.921875 3.734375 -1.921875q1.421875 0 2.34375 0.90625l0 -1.984375q0 -1.84375 -0.09375 -2.265625q-0.078125 -0.421875 -0.265625 -0.5625q-0.1875 -0.15625 -0.46875 -0.15625q-0.296875 0 -0.8125 0.1875l-0.140625 -0.421875l3.1875 -1.3125l0.53125 0l0 12.421875q0 1.875 0.078125 2.296875q0.09375 0.421875 0.28125 0.59375q0.203125 0.15625 0.46875 0.15625q0.3125 0 0.84375 -0.203125l0.125 0.40625l-3.1875 1.328125l-0.546875 0l0 -1.53125zm0 -0.828125l0 -5.53125q-0.0625 -0.796875 -0.421875 -1.453125q-0.34375 -0.65625 -0.921875 -0.984375q-0.578125 -0.34375 -1.140625 -0.34375q-1.03125 0 -1.828125 0.9375q-1.078125 1.21875 -1.078125 3.5625q0 2.359375 1.03125 3.625q1.03125 1.25 2.296875 1.25q1.078125 0 2.0625 -1.0625zm7.5625 -9.015625l0 2.40625q1.34375 -2.40625 2.765625 -2.40625q0.640625 0 1.0625 0.390625q0.421875 0.390625 0.421875 0.90625q0 0.453125 -0.3125 0.78125q-0.296875 0.3125 -0.71875 0.3125q-0.40625 0 -0.921875 -0.40625q-0.5 -0.40625 -0.75 -0.40625q-0.203125 0 -0.453125 0.234375q-0.53125 0.484375 -1.09375 1.578125l0 5.140625q0 0.890625 0.21875 1.359375q0.15625 0.3125 0.546875 0.53125q0.390625 0.203125 1.109375 0.203125l0 0.421875l-5.5 0l0 -0.421875q0.828125 0 1.21875 -0.265625q0.296875 -0.1875 0.421875 -0.59375q0.046875 -0.203125 0.046875 -1.140625l0 -4.15625q0 -1.875 -0.078125 -2.234375q-0.0625 -0.359375 -0.28125 -0.515625q-0.203125 -0.171875 -0.5 -0.171875q-0.359375 0 -0.828125 0.1875l-0.109375 -0.421875l3.25 -1.3125l0.484375 0zm10.9296875 9.5q-1.640625 1.28125 -2.0625 1.46875q-0.640625 0.296875 -1.359375 0.296875q-1.109375 0 -1.828125 -0.75q-0.71875 -0.765625 -0.71875 -2.015625q0 -0.78125 0.34375 -1.359375q0.484375 -0.796875 1.671875 -1.5q1.1875 -0.703125 3.953125 -1.703125l0 -0.421875q0 -1.609375 -0.515625 -2.203125q-0.5 -0.609375 -1.46875 -0.609375q-0.734375 0 -1.171875 0.40625q-0.453125 0.390625 -0.453125 0.90625l0.03125 0.6875q0 0.53125 -0.28125 0.828125q-0.265625 0.296875 -0.71875 0.296875q-0.4375 0 -0.71875 -0.296875q-0.265625 -0.3125 -0.265625 -0.84375q0 -1.0 1.03125 -1.84375q1.03125 -0.84375 2.890625 -0.84375q1.4375 0 2.34375 0.46875q0.703125 0.375 1.03125 1.140625q0.203125 0.5 0.203125 2.0625l0 3.640625q0 1.546875 0.0625 1.890625q0.0625 0.34375 0.1875 0.46875q0.140625 0.109375 0.3125 0.109375q0.1875 0 0.328125 -0.078125q0.25 -0.15625 0.953125 -0.859375l0 0.65625q-1.3125 1.765625 -2.515625 1.765625q-0.5625 0 -0.90625 -0.40625q-0.34375 -0.40625 -0.359375 -1.359375zm0 -0.765625l0 -4.09375q-1.765625 0.703125 -2.28125 1.0q-0.921875 0.515625 -1.328125 1.078125q-0.390625 0.5625 -0.390625 1.234375q0 0.84375 0.5 1.40625q0.5 0.546875 1.15625 0.546875q0.890625 0 2.34375 -1.171875zm7.2148438 -8.75q0.53125 0 0.90625 0.390625q0.390625 0.375 0.390625 0.90625q0 0.546875 -0.390625 0.921875q-0.375 0.375 -0.90625 0.375q-0.546875 0 -0.921875 -0.375q-0.375 -0.375 -0.375 -0.921875q0 -0.53125 0.375 -0.90625q0.375 -0.390625 0.921875 -0.390625zm-0.03125 8.78125q0.5625 0 0.9375 0.390625q0.375 0.375 0.375 0.921875q0 0.53125 -0.390625 0.921875q-0.375 0.375 -0.921875 0.375q-0.53125 0 -0.921875 -0.375q-0.375 -0.390625 -0.375 -0.921875q0 -0.546875 0.375 -0.921875q0.390625 -0.390625 0.921875 -0.390625zm7.1835938 -6.5q1.890625 -2.265625 3.609375 -2.265625q0.875 0 1.5 0.4375q0.640625 0.4375 1.015625 1.4375q0.25 0.703125 0.25 2.15625l0 4.59375q0 1.015625 0.171875 1.375q0.125 0.296875 0.40625 0.46875q0.296875 0.15625 1.0625 0.15625l0 0.421875l-5.296875 0l0 -0.421875l0.21875 0q0.75 0 1.046875 -0.21875q0.296875 -0.234375 0.421875 -0.6875q0.046875 -0.171875 0.046875 -1.09375l0 -4.40625q0 -1.453125 -0.390625 -2.109375q-0.375 -0.671875 -1.28125 -0.671875q-1.390625 0 -2.78125 1.515625l0 5.671875q0 1.078125 0.140625 1.34375q0.15625 0.34375 0.4375 0.5q0.296875 0.15625 1.171875 0.15625l0 0.421875l-5.3125 0l0 -0.421875l0.234375 0q0.828125 0 1.109375 -0.40625q0.296875 -0.421875 0.296875 -1.59375l0 -3.984375q0 -1.9375 -0.09375 -2.359375q-0.09375 -0.421875 -0.28125 -0.578125q-0.171875 -0.15625 -0.46875 -0.15625q-0.328125 0 -0.796875 0.1875l-0.171875 -0.421875l3.234375 -1.3125l0.5 0l0 2.265625zm10.6875 2.09375q-0.015625 2.390625 1.15625 3.75q1.171875 1.359375 2.75 1.359375q1.0625 0 1.828125 -0.578125q0.78125 -0.59375 1.3125 -2.0l0.359375 0.234375q-0.234375 1.609375 -1.421875 2.9375q-1.1875 1.3125 -2.96875 1.3125q-1.9375 0 -3.3125 -1.5q-1.375 -1.515625 -1.375 -4.0625q0 -2.75 1.40625 -4.28125q1.421875 -1.546875 3.546875 -1.546875q1.8125 0 2.96875 1.1875q1.15625 1.1875 1.15625 3.1875l-7.40625 0zm0 -0.6875l4.96875 0q-0.0625 -1.03125 -0.25 -1.453125q-0.296875 -0.65625 -0.875 -1.03125q-0.578125 -0.375 -1.21875 -0.375q-0.96875 0 -1.734375 0.765625q-0.765625 0.75 -0.890625 2.09375zm8.402344 -3.359375l5.0625 0l0 0.4375q-0.484375 0 -0.6875 0.171875q-0.1875 0.15625 -0.1875 0.421875q0 0.28125 0.40625 0.859375q0.140625 0.1875 0.390625 0.59375l0.765625 1.21875l0.875 -1.21875q0.84375 -1.15625 0.84375 -1.46875q0 -0.25 -0.203125 -0.40625q-0.1875 -0.171875 -0.640625 -0.171875l0 -0.4375l3.640625 0l0 0.4375q-0.578125 0.03125 -1.0 0.3125q-0.578125 0.390625 -1.578125 1.734375l-1.453125 1.953125l2.671875 3.84375q0.984375 1.421875 1.40625 1.71875q0.421875 0.28125 1.078125 0.3125l0 0.421875l-5.0625 0l0 -0.421875q0.53125 0 0.828125 -0.234375q0.21875 -0.171875 0.21875 -0.4375q0 -0.265625 -0.75 -1.359375l-1.5625 -2.296875l-1.734375 2.296875q-0.796875 1.0625 -0.796875 1.265625q0 0.28125 0.265625 0.515625q0.265625 0.21875 0.796875 0.25l0 0.421875l-3.5 0l0 -0.421875q0.421875 -0.0625 0.734375 -0.296875q0.4375 -0.34375 1.5 -1.734375l2.25 -2.984375l-2.046875 -2.953125q-0.859375 -1.265625 -1.34375 -1.578125q-0.46875 -0.328125 -1.1875 -0.328125l0 -0.4375zm15.5625 -3.53125l0 3.53125l2.5 0l0 0.8125l-2.5 0l0 6.96875q0 1.046875 0.296875 1.40625q0.296875 0.359375 0.765625 0.359375q0.390625 0 0.75 -0.234375q0.359375 -0.25 0.5625 -0.71875l0.453125 0q-0.40625 1.15625 -1.15625 1.734375q-0.75 0.578125 -1.546875 0.578125q-0.546875 0 -1.0625 -0.296875q-0.515625 -0.296875 -0.765625 -0.84375q-0.234375 -0.5625 -0.234375 -1.734375l0 -7.21875l-1.703125 0l0 -0.375q0.640625 -0.265625 1.3125 -0.875q0.6875 -0.625 1.203125 -1.46875q0.28125 -0.4375 0.75 -1.625l0.375 0z" fill-rule="nonzero"></path><path fill="#000000" fill-opacity="0.0" d="m427.51443 4.9343834l182.74014 0l0 35.68504l-182.74014 0z" fill-rule="evenodd"></path><path fill="#000000" d="m440.4207 20.30251l0 7.859375q1.296875 -1.4375 2.0625 -1.828125q0.765625 -0.40625 1.515625 -0.40625q0.921875 0 1.578125 0.5q0.65625 0.5 0.96875 1.578125q0.21875 0.75 0.21875 2.75l0 3.796875q0 1.015625 0.171875 1.390625q0.109375 0.28125 0.390625 0.453125q0.28125 0.15625 1.03125 0.15625l0 0.421875l-5.265625 0l0 -0.421875l0.25 0q0.75 0 1.03125 -0.21875q0.296875 -0.234375 0.421875 -0.6875q0.03125 -0.1875 0.03125 -1.09375l0 -3.796875q0 -1.765625 -0.1875 -2.3125q-0.171875 -0.546875 -0.578125 -0.828125q-0.390625 -0.28125 -0.953125 -0.28125q-0.578125 0 -1.203125 0.3125q-0.625 0.296875 -1.484375 1.234375l0 5.671875q0 1.09375 0.125 1.375q0.125 0.265625 0.453125 0.453125q0.328125 0.171875 1.15625 0.171875l0 0.421875l-5.328125 0l0 -0.421875q0.71875 0 1.125 -0.21875q0.234375 -0.125 0.375 -0.453125q0.140625 -0.328125 0.140625 -1.328125l0 -9.71875q0 -1.84375 -0.09375 -2.265625q-0.078125 -0.421875 -0.265625 -0.5625q-0.171875 -0.15625 -0.484375 -0.15625q-0.234375 0 -0.796875 0.1875l-0.15625 -0.421875l3.203125 -1.3125l0.546875 0zm8.234375 5.9375l5.0 0l0 0.4375l-0.234375 0q-0.53125 0 -0.796875 0.234375q-0.265625 0.21875 -0.265625 0.5625q0 0.453125 0.390625 1.265625l2.609375 5.40625l2.40625 -5.921875q0.203125 -0.484375 0.203125 -0.953125q0 -0.21875 -0.09375 -0.3125q-0.09375 -0.140625 -0.296875 -0.203125q-0.1875 -0.078125 -0.6875 -0.078125l0 -0.4375l3.484375 0l0 0.4375q-0.4375 0.046875 -0.671875 0.1875q-0.234375 0.140625 -0.515625 0.515625q-0.09375 0.171875 -0.390625 0.90625l-4.375 10.71875q-0.625 1.5625 -1.65625 2.359375q-1.03125 0.796875 -1.96875 0.796875q-0.703125 0 -1.15625 -0.40625q-0.4375 -0.390625 -0.4375 -0.90625q0 -0.5 0.328125 -0.796875q0.328125 -0.296875 0.890625 -0.296875q0.375 0 1.046875 0.25q0.46875 0.1875 0.59375 0.1875q0.34375 0 0.75 -0.375q0.421875 -0.359375 0.84375 -1.40625l0.765625 -1.859375l-3.859375 -8.09375q-0.171875 -0.375 -0.5625 -0.90625q-0.28125 -0.40625 -0.46875 -0.546875q-0.28125 -0.1875 -0.875 -0.328125l0 -0.4375zm20.1875 9.53125q-0.78125 0.8125 -1.53125 1.171875q-0.75 0.359375 -1.609375 0.359375q-1.765625 0 -3.078125 -1.46875q-1.3125 -1.46875 -1.3125 -3.78125q0 -2.3125 1.453125 -4.21875q1.453125 -1.921875 3.734375 -1.921875q1.421875 0 2.34375 0.90625l0 -1.984375q0 -1.84375 -0.09375 -2.265625q-0.078125 -0.421875 -0.265625 -0.5625q-0.1875 -0.15625 -0.46875 -0.15625q-0.296875 0 -0.8125 0.1875l-0.140625 -0.421875l3.1875 -1.3125l0.53125 0l0 12.421875q0 1.875 0.078125 2.296875q0.09375 0.421875 0.28125 0.59375q0.203125 0.15625 0.46875 0.15625q0.3125 0 0.84375 -0.203125l0.125 0.40625l-3.1875 1.328125l-0.546875 0l0 -1.53125zm0 -0.828125l0 -5.53125q-0.0625 -0.796875 -0.421875 -1.453125q-0.34375 -0.65625 -0.921875 -0.984375q-0.578125 -0.34375 -1.140625 -0.34375q-1.03125 0 -1.828125 0.9375q-1.078125 1.21875 -1.078125 3.5625q0 2.359375 1.03125 3.625q1.03125 1.25 2.296875 1.25q1.078125 0 2.0625 -1.0625zm7.5625 -9.015625l0 2.40625q1.34375 -2.40625 2.765625 -2.40625q0.640625 0 1.0625 0.390625q0.421875 0.390625 0.421875 0.90625q0 0.453125 -0.3125 0.78125q-0.296875 0.3125 -0.71875 0.3125q-0.40625 0 -0.921875 -0.40625q-0.5 -0.40625 -0.75 -0.40625q-0.203125 0 -0.453125 0.234375q-0.53125 0.484375 -1.09375 1.578125l0 5.140625q0 0.890625 0.21875 1.359375q0.15625 0.3125 0.546875 0.53125q0.390625 0.203125 1.109375 0.203125l0 0.421875l-5.5 0l0 -0.421875q0.828125 0 1.21875 -0.265625q0.296875 -0.1875 0.421875 -0.59375q0.046875 -0.203125 0.046875 -1.140625l0 -4.15625q0 -1.875 -0.078125 -2.234375q-0.0625 -0.359375 -0.28125 -0.515625q-0.203125 -0.171875 -0.5 -0.171875q-0.359375 0 -0.828125 0.1875l-0.109375 -0.421875l3.25 -1.3125l0.484375 0zm10.9296875 9.5q-1.640625 1.28125 -2.0625 1.46875q-0.640625 0.296875 -1.359375 0.296875q-1.109375 0 -1.828125 -0.75q-0.71875 -0.765625 -0.71875 -2.015625q0 -0.78125 0.34375 -1.359375q0.484375 -0.796875 1.671875 -1.5q1.1875 -0.703125 3.953125 -1.703125l0 -0.421875q0 -1.609375 -0.515625 -2.203125q-0.5 -0.609375 -1.46875 -0.609375q-0.734375 0 -1.171875 0.40625q-0.453125 0.390625 -0.453125 0.90625l0.03125 0.6875q0 0.53125 -0.28125 0.828125q-0.265625 0.296875 -0.71875 0.296875q-0.4375 0 -0.71875 -0.296875q-0.265625 -0.3125 -0.265625 -0.84375q0 -1.0 1.03125 -1.84375q1.03125 -0.84375 2.890625 -0.84375q1.4375 0 2.34375 0.46875q0.703125 0.375 1.03125 1.140625q0.203125 0.5 0.203125 2.0625l0 3.640625q0 1.546875 0.0625 1.890625q0.0625 0.34375 0.1875 0.46875q0.140625 0.109375 0.3125 0.109375q0.1875 0 0.328125 -0.078125q0.25 -0.15625 0.953125 -0.859375l0 0.65625q-1.3125 1.765625 -2.515625 1.765625q-0.5625 0 -0.90625 -0.40625q-0.34375 -0.40625 -0.359375 -1.359375zm0 -0.765625l0 -4.09375q-1.765625 0.703125 -2.28125 1.0q-0.921875 0.515625 -1.328125 1.078125q-0.390625 0.5625 -0.390625 1.234375q0 0.84375 0.5 1.40625q0.5 0.546875 1.15625 0.546875q0.890625 0 2.34375 -1.171875zm7.2148438 -8.75q0.53125 0 0.90625 0.390625q0.390625 0.375 0.390625 0.90625q0 0.546875 -0.390625 0.921875q-0.375 0.375 -0.90625 0.375q-0.546875 0 -0.921875 -0.375q-0.375 -0.375 -0.375 -0.921875q0 -0.53125 0.375 -0.90625q0.375 -0.390625 0.921875 -0.390625zm-0.03125 8.78125q0.5625 0 0.9375 0.390625q0.375 0.375 0.375 0.921875q0 0.53125 -0.390625 0.921875q-0.375 0.375 -0.921875 0.375q-0.53125 0 -0.921875 -0.375q-0.375 -0.390625 -0.375 -0.921875q0 -0.546875 0.375 -0.921875q0.390625 -0.390625 0.921875 -0.390625zm7.1835938 -6.5q1.890625 -2.265625 3.609375 -2.265625q0.875 0 1.5 0.4375q0.640625 0.4375 1.015625 1.4375q0.25 0.703125 0.25 2.15625l0 4.59375q0 1.015625 0.171875 1.375q0.125 0.296875 0.40625 0.46875q0.296875 0.15625 1.0625 0.15625l0 0.421875l-5.296875 0l0 -0.421875l0.21875 0q0.75 0 1.046875 -0.21875q0.296875 -0.234375 0.421875 -0.6875q0.046875 -0.171875 0.046875 -1.09375l0 -4.40625q0 -1.453125 -0.390625 -2.109375q-0.375 -0.671875 -1.28125 -0.671875q-1.390625 0 -2.78125 1.515625l0 5.671875q0 1.078125 0.140625 1.34375q0.15625 0.34375 0.4375 0.5q0.296875 0.15625 1.171875 0.15625l0 0.421875l-5.3125 0l0 -0.421875l0.234375 0q0.828125 0 1.109375 -0.40625q0.296875 -0.421875 0.296875 -1.59375l0 -3.984375q0 -1.9375 -0.09375 -2.359375q-0.09375 -0.421875 -0.28125 -0.578125q-0.171875 -0.15625 -0.46875 -0.15625q-0.328125 0 -0.796875 0.1875l-0.171875 -0.421875l3.234375 -1.3125l0.5 0l0 2.265625zm10.6875305 2.09375q-0.015625 2.390625 1.15625 3.75q1.171875 1.359375 2.75 1.359375q1.0625 0 1.828125 -0.578125q0.78125 -0.59375 1.3125 -2.0l0.359375 0.234375q-0.234375 1.609375 -1.421875 2.9375q-1.1875 1.3125 -2.96875 1.3125q-1.9375 0 -3.3125 -1.5q-1.3750305 -1.515625 -1.3750305 -4.0625q0 -2.75 1.4062805 -4.28125q1.421875 -1.546875 3.546875 -1.546875q1.8125 0 2.96875 1.1875q1.15625 1.1875 1.15625 3.1875l-7.40625 0zm0 -0.6875l4.96875 0q-0.0625 -1.03125 -0.25 -1.453125q-0.296875 -0.65625 -0.875 -1.03125q-0.578125 -0.375 -1.21875 -0.375q-0.96875 0 -1.734375 0.765625q-0.765625 0.75 -0.890625 2.09375zm8.402344 -3.359375l5.0625 0l0 0.4375q-0.484375 0 -0.6875 0.171875q-0.1875 0.15625 -0.1875 0.421875q0 0.28125 0.40625 0.859375q0.140625 0.1875 0.390625 0.59375l0.765625 1.21875l0.875 -1.21875q0.84375 -1.15625 0.84375 -1.46875q0 -0.25 -0.203125 -0.40625q-0.1875 -0.171875 -0.640625 -0.171875l0 -0.4375l3.640625 0l0 0.4375q-0.578125 0.03125 -1.0 0.3125q-0.578125 0.390625 -1.578125 1.734375l-1.453125 1.953125l2.671875 3.84375q0.984375 1.421875 1.40625 1.71875q0.421875 0.28125 1.078125 0.3125l0 0.421875l-5.0625 0l0 -0.421875q0.53125 0 0.828125 -0.234375q0.21875 -0.171875 0.21875 -0.4375q0 -0.265625 -0.75 -1.359375l-1.5625 -2.296875l-1.734375 2.296875q-0.796875 1.0625 -0.796875 1.265625q0 0.28125 0.265625 0.515625q0.265625 0.21875 0.796875 0.25l0 0.421875l-3.5 0l0 -0.421875q0.421875 -0.0625 0.734375 -0.296875q0.4375 -0.34375 1.5 -1.734375l2.25 -2.984375l-2.046875 -2.953125q-0.859375 -1.265625 -1.34375 -1.578125q-0.46875 -0.328125 -1.1875 -0.328125l0 -0.4375zm15.5625 -3.53125l0 3.53125l2.5 0l0 0.8125l-2.5 0l0 6.96875q0 1.046875 0.296875 1.40625q0.296875 0.359375 0.765625 0.359375q0.390625 0 0.75 -0.234375q0.359375 -0.25 0.5625 -0.71875l0.453125 0q-0.40625 1.15625 -1.15625 1.734375q-0.75 0.578125 -1.546875 0.578125q-0.546875 0 -1.0625 -0.296875q-0.515625 -0.296875 -0.765625 -0.84375q-0.234375 -0.5625 -0.234375 -1.734375l0 -7.21875l-1.703125 0l0 -0.375q0.640625 -0.265625 1.3125 -0.875q0.6875 -0.625 1.203125 -1.46875q0.28125 -0.4375 0.75 -1.625l0.375 0z" fill-rule="nonzero"></path><path fill="#8bab42" d="m50.254593 134.0l25.732285 0l0 31.968506l-25.732285 0z" fill-rule="evenodd"></path><path fill="#8bab42" d="m690.2546 134.0l25.7323 0l0 31.968506l-25.7323 0z" fill-rule="evenodd"></path><path fill="#000000" fill-opacity="0.0" d="m63.120735 134.0l0 -25.0l95.99999 0l0 25.062988" fill-rule="evenodd"></path><path stroke="#000000" stroke-width="2.0" stroke-linejoin="round" stroke-linecap="butt" d="m63.120735 134.0l0 -25.0l95.99999 0l0 13.062996" fill-rule="evenodd"></path><path fill="#000000" stroke="#000000" stroke-width="2.0" stroke-linecap="butt" d="m155.81728 122.062996l3.3034515 9.076195l3.3034668 -9.076195z" fill-rule="evenodd"></path><path fill="#000000" fill-opacity="0.0" d="m255.12073 134.0l0 -25.0l96.0 0l0 25.062988" fill-rule="evenodd"></path><path stroke="#000000" stroke-width="2.0" stroke-linejoin="round" stroke-linecap="butt" d="m255.12073 134.0l0 -25.0l96.0 0l0 13.062996" fill-rule="evenodd"></path><path fill="#000000" stroke="#000000" stroke-width="2.0" stroke-linecap="butt" d="m347.81726 122.062996l3.3034668 9.076195l3.3034668 -9.076195z" fill-rule="evenodd"></path><path fill="#000000" fill-opacity="0.0" d="m383.12073 134.0l0 -25.0l320.0 0l0 25.062988" fill-rule="evenodd"></path><path stroke="#000000" stroke-width="2.0" stroke-linejoin="round" stroke-linecap="butt" d="m383.12073 134.0l0 -25.0l320.0 0l0 13.062996" fill-rule="evenodd"></path><path fill="#000000" stroke="#000000" stroke-width="2.0" stroke-linecap="butt" d="m699.81726 122.062996l3.3034668 9.076195l3.3034668 -9.076195z" fill-rule="evenodd"></path><path fill="#000000" fill-opacity="0.0" d="m159.12073 165.9685l0 25.0l96.0 0l0 -24.937012" fill-rule="evenodd"></path><path stroke="#000000" stroke-width="2.0" stroke-linejoin="round" stroke-linecap="butt" d="m159.12073 165.9685l0 25.0l96.0 0l0 -12.937012" fill-rule="evenodd"></path><path fill="#000000" stroke="#000000" stroke-width="2.0" stroke-linecap="butt" d="m258.4242 178.0315l-3.3034668 -9.076187l-3.3034515 9.076187z" fill-rule="evenodd"></path><path fill="#000000" fill-opacity="0.0" d="m654.5302 71.249344l128.0 0l0 35.685036l-128.0 0z" fill-rule="evenodd"></path><path fill="#000000" d="m712.35834 96.37247q0.4375 0 0.734375 0.296875q0.296875 0.296875 0.296875 0.734375q0 0.421875 -0.296875 0.734375q-0.296875 0.296875 -0.734375 0.296875q-0.421875 0 -0.71875 -0.296875q-0.296875 -0.3125 -0.296875 -0.734375q0 -0.4375 0.296875 -0.734375q0.296875 -0.296875 0.71875 -0.296875zm6.34375 0q0.421875 0 0.71875 0.296875q0.3125 0.296875 0.3125 0.734375q0 0.421875 -0.3125 0.734375q-0.296875 0.296875 -0.71875 0.296875q-0.421875 0 -0.734375 -0.296875q-0.296875 -0.3125 -0.296875 -0.734375q0 -0.4375 0.296875 -0.734375q0.3125 -0.296875 0.734375 -0.296875zm6.34375 0q0.421875 0 0.71875 0.296875q0.296875 0.296875 0.296875 0.734375q0 0.421875 -0.296875 0.734375q-0.296875 0.296875 -0.71875 0.296875q-0.4375 0 -0.734375 -0.296875q-0.296875 -0.3125 -0.296875 -0.734375q0 -0.4375 0.296875 -0.734375q0.296875 -0.296875 0.734375 -0.296875z" fill-rule="nonzero"></path><path fill="#000000" fill-opacity="0.0" d="m351.12073 165.9685l0 25.0l32.0 0l0 -24.937012" fill-rule="evenodd"></path><path stroke="#000000" stroke-width="2.0" stroke-linejoin="round" stroke-linecap="butt" d="m351.12073 165.9685l0 25.0l32.0 0l0 -12.937012" fill-rule="evenodd"></path><path fill="#000000" stroke="#000000" stroke-width="2.0" stroke-linecap="butt" d="m386.4242 178.0315l-3.3034668 -9.076187l-3.3034668 9.076187z" fill-rule="evenodd"></path><path fill="#000000" fill-opacity="0.0" d="m47.120735 71.249344l127.99999 0l0 35.685036l-127.99999 0z" fill-rule="evenodd"></path><path fill="#000000" d="m83.71644 95.851845l0 4.625q0 1.5 0.328125 1.859375q0.453125 0.515625 1.34375 0.515625l0.609375 0l0 0.4375l-6.796875 0l0 -0.4375l0.59375 0q1.0 0 1.4375 -0.65625q0.234375 -0.359375 0.234375 -1.71875l0 -10.265625q0 -1.5 -0.3125 -1.859375q-0.453125 -0.515625 -1.359375 -0.515625l-0.59375 0l0 -0.4375l5.8125 0q2.140625 0 3.359375 0.4375q1.234375 0.4375 2.078125 1.484375q0.84375 1.046875 0.84375 2.46875q0 1.953125 -1.28125 3.171875q-1.28125 1.21875 -3.625 1.21875q-0.578125 0 -1.25 -0.078125q-0.65625 -0.09375 -1.421875 -0.25zm0 -0.671875q0.625 0.109375 1.09375 0.171875q0.484375 0.0625 0.828125 0.0625q1.21875 0 2.09375 -0.9375q0.890625 -0.953125 0.890625 -2.453125q0 -1.03125 -0.421875 -1.90625q-0.421875 -0.890625 -1.203125 -1.328125q-0.765625 -0.4375 -1.75 -0.4375q-0.59375 0 -1.53125 0.21875l0 6.609375zm15.253906 6.5625q-1.640625 1.28125 -2.0625 1.46875q-0.640625 0.296875 -1.359375 0.296875q-1.109375 0 -1.828125 -0.75q-0.71875 -0.765625 -0.71875 -2.015625q0 -0.78125 0.34375 -1.359375q0.484375 -0.796875 1.671875 -1.5q1.1875 -0.703125 3.953125 -1.703125l0 -0.421875q0 -1.609375 -0.515625 -2.203125q-0.5 -0.609375 -1.46875 -0.609375q-0.734375 0 -1.171875 0.40625q-0.453125 0.390625 -0.453125 0.90625l0.03125 0.6875q0 0.53125 -0.28125 0.828125q-0.265625 0.296875 -0.71875 0.296875q-0.4375 0 -0.71875 -0.296875q-0.265625 -0.3125 -0.265625 -0.84375q0 -1.0 1.03125 -1.84375q1.03125 -0.84375 2.890625 -0.84375q1.4375 0 2.34375 0.46875q0.703125 0.375 1.03125 1.140625q0.203125 0.5 0.203125 2.0625l0 3.640625q0 1.546875 0.0625 1.890625q0.0625 0.34375 0.1875 0.46875q0.140625 0.109375 0.3125 0.109375q0.1875 0 0.328125 -0.078125q0.25 -0.15625 0.953125 -0.859375l0 0.65625q-1.3125 1.765625 -2.515625 1.765625q-0.5625 0 -0.90625 -0.40625q-0.34375 -0.40625 -0.359375 -1.359375zm0 -0.765625l0 -4.09375q-1.765625 0.703125 -2.28125 1.0q-0.921875 0.515625 -1.328125 1.078125q-0.390625 0.5625 -0.390625 1.234375q0 0.84375 0.5 1.40625q0.5 0.546875 1.15625 0.546875q0.890625 0 2.34375 -1.171875zm7.4492188 -1.609375q-0.984375 -0.46875 -1.515625 -1.328125q-0.53125 -0.875 -0.53125 -1.90625q0 -1.59375 1.203125 -2.734375q1.203125 -1.15625 3.078125 -1.15625q1.53125 0 2.65625 0.75l2.28125 0q0.5 0 0.578125 0.03125q0.09375 0.015625 0.125 0.09375q0.0625 0.109375 0.0625 0.375q0 0.296875 -0.046875 0.421875q-0.046875 0.0625 -0.140625 0.09375q-0.078125 0.03125 -0.578125 0.03125l-1.390625 0q0.65625 0.84375 0.65625 2.15625q0 1.5 -1.15625 2.578125q-1.140625 1.0625 -3.078125 1.0625q-0.796875 0 -1.625 -0.234375q-0.515625 0.4375 -0.703125 0.78125q-0.1875 0.328125 -0.1875 0.5625q0 0.203125 0.1875 0.390625q0.203125 0.1875 0.765625 0.265625q0.328125 0.046875 1.640625 0.078125q2.421875 0.0625 3.125 0.171875q1.09375 0.140625 1.734375 0.8125q0.65625 0.65625 0.65625 1.609375q0 1.328125 -1.234375 2.484375q-1.828125 1.71875 -4.765625 1.71875q-2.265625 0 -3.828125 -1.03125q-0.875 -0.578125 -0.875 -1.21875q0 -0.28125 0.125 -0.5625q0.203125 -0.421875 0.828125 -1.203125q0.078125 -0.109375 1.1875 -1.265625q-0.609375 -0.359375 -0.859375 -0.640625q-0.25 -0.296875 -0.25 -0.65625q0 -0.421875 0.328125 -0.96875q0.34375 -0.546875 1.546875 -1.5625zm2.03125 -6.5625q-0.859375 0 -1.453125 0.6875q-0.578125 0.6875 -0.578125 2.125q0 1.84375 0.796875 2.859375q0.609375 0.78125 1.546875 0.78125q0.890625 0 1.453125 -0.671875q0.578125 -0.671875 0.578125 -2.09375q0 -1.859375 -0.796875 -2.921875q-0.609375 -0.765625 -1.546875 -0.765625zm-2.15625 10.484375q-0.546875 0.59375 -0.828125 1.109375q-0.28125 0.515625 -0.28125 0.953125q0 0.5625 0.6875 0.984375q1.171875 0.734375 3.375 0.734375q2.109375 0 3.109375 -0.75q1.015625 -0.75 1.015625 -1.59375q0 -0.609375 -0.609375 -0.859375q-0.609375 -0.265625 -2.40625 -0.3125q-2.640625 -0.0625 -4.0625 -0.265625zm11.0625 -6.6875q-0.015625 2.390625 1.15625 3.75q1.171875 1.359375 2.75 1.359375q1.0625 0 1.828125 -0.578125q0.78125 -0.59375 1.3125 -2.0l0.359375 0.234375q-0.234375 1.609375 -1.421875 2.9375q-1.1875 1.3125 -2.96875 1.3125q-1.9375 0 -3.3125 -1.5q-1.375 -1.515625 -1.375 -4.0625q0 -2.75 1.40625 -4.28125q1.421875 -1.546875 3.546875 -1.546875q1.8125 0 2.96875 1.1875q1.15625 1.1875 1.15625 3.1875l-7.40625 0zm0 -0.6875l4.96875 0q-0.0625 -1.03125 -0.25 -1.453125q-0.296875 -0.65625 -0.875 -1.03125q-0.578125 -0.375 -1.21875 -0.375q-0.96875 0 -1.734375 0.765625q-0.765625 0.75 -0.890625 2.09375zm16.902336 -6.953125l3.875 -1.890625l0.375 0l0 13.421875q0 1.328125 0.109375 1.65625q0.125 0.328125 0.46875 0.515625q0.359375 0.171875 1.4375 0.1875l0 0.4375l-5.984375 0l0 -0.4375q1.125 -0.015625 1.453125 -0.1875q0.328125 -0.171875 0.453125 -0.453125q0.140625 -0.296875 0.140625 -1.71875l0 -8.578125q0 -1.734375 -0.125 -2.234375q-0.078125 -0.375 -0.296875 -0.546875q-0.21875 -0.171875 -0.515625 -0.171875q-0.4375 0 -1.21875 0.359375l-0.171875 -0.359375z" fill-rule="nonzero"></path><path fill="#000000" fill-opacity="0.0" d="m303.12073 71.249344l128.0 0l0 35.685036l-128.0 0z" fill-rule="evenodd"></path><path fill="#000000" d="m339.71643 95.851845l0 4.625q0 1.5 0.328125 1.859375q0.453125 0.515625 1.34375 0.515625l0.609375 0l0 0.4375l-6.796875 0l0 -0.4375l0.59375 0q1.0 0 1.4375 -0.65625q0.234375 -0.359375 0.234375 -1.71875l0 -10.265625q0 -1.5 -0.3125 -1.859375q-0.453125 -0.515625 -1.359375 -0.515625l-0.59375 0l0 -0.4375l5.8125 0q2.140625 0 3.359375 0.4375q1.234375 0.4375 2.078125 1.484375q0.84375 1.046875 0.84375 2.46875q0 1.953125 -1.28125 3.171875q-1.28125 1.21875 -3.625 1.21875q-0.578125 0 -1.25 -0.078125q-0.65625 -0.09375 -1.421875 -0.25zm0 -0.671875q0.625 0.109375 1.09375 0.171875q0.484375 0.0625 0.828125 0.0625q1.21875 0 2.09375 -0.9375q0.890625 -0.953125 0.890625 -2.453125q0 -1.03125 -0.421875 -1.90625q-0.421875 -0.890625 -1.203125 -1.328125q-0.765625 -0.4375 -1.75 -0.4375q-0.59375 0 -1.53125 0.21875l0 6.609375zm15.253906 6.5625q-1.640625 1.28125 -2.0625 1.46875q-0.640625 0.296875 -1.359375 0.296875q-1.109375 0 -1.828125 -0.75q-0.71875 -0.765625 -0.71875 -2.015625q0 -0.78125 0.34375 -1.359375q0.484375 -0.796875 1.671875 -1.5q1.1875 -0.703125 3.953125 -1.703125l0 -0.421875q0 -1.609375 -0.515625 -2.203125q-0.5 -0.609375 -1.46875 -0.609375q-0.734375 0 -1.171875 0.40625q-0.453125 0.390625 -0.453125 0.90625l0.03125 0.6875q0 0.53125 -0.28125 0.828125q-0.265625 0.296875 -0.71875 0.296875q-0.4375 0 -0.71875 -0.296875q-0.265625 -0.3125 -0.265625 -0.84375q0 -1.0 1.03125 -1.84375q1.03125 -0.84375 2.890625 -0.84375q1.4375 0 2.34375 0.46875q0.703125 0.375 1.03125 1.140625q0.203125 0.5 0.203125 2.0625l0 3.640625q0 1.546875 0.0625 1.890625q0.0625 0.34375 0.1875 0.46875q0.140625 0.109375 0.3125 0.109375q0.1875 0 0.328125 -0.078125q0.25 -0.15625 0.953125 -0.859375l0 0.65625q-1.3125 1.765625 -2.515625 1.765625q-0.5625 0 -0.90625 -0.40625q-0.34375 -0.40625 -0.359375 -1.359375zm0 -0.765625l0 -4.09375q-1.765625 0.703125 -2.28125 1.0q-0.921875 0.515625 -1.328125 1.078125q-0.390625 0.5625 -0.390625 1.234375q0 0.84375 0.5 1.40625q0.5 0.546875 1.15625 0.546875q0.890625 0 2.34375 -1.171875zm7.4492188 -1.609375q-0.984375 -0.46875 -1.515625 -1.328125q-0.53125 -0.875 -0.53125 -1.90625q0 -1.59375 1.203125 -2.734375q1.203125 -1.15625 3.078125 -1.15625q1.53125 0 2.65625 0.75l2.28125 0q0.5 0 0.578125 0.03125q0.09375 0.015625 0.125 0.09375q0.0625 0.109375 0.0625 0.375q0 0.296875 -0.046875 0.421875q-0.046875 0.0625 -0.140625 0.09375q-0.078125 0.03125 -0.578125 0.03125l-1.390625 0q0.65625 0.84375 0.65625 2.15625q0 1.5 -1.15625 2.578125q-1.140625 1.0625 -3.078125 1.0625q-0.796875 0 -1.625 -0.234375q-0.515625 0.4375 -0.703125 0.78125q-0.1875 0.328125 -0.1875 0.5625q0 0.203125 0.1875 0.390625q0.203125 0.1875 0.765625 0.265625q0.328125 0.046875 1.640625 0.078125q2.421875 0.0625 3.125 0.171875q1.09375 0.140625 1.734375 0.8125q0.65625 0.65625 0.65625 1.609375q0 1.328125 -1.234375 2.484375q-1.828125 1.71875 -4.765625 1.71875q-2.265625 0 -3.828125 -1.03125q-0.875 -0.578125 -0.875 -1.21875q0 -0.28125 0.125 -0.5625q0.203125 -0.421875 0.828125 -1.203125q0.078125 -0.109375 1.1875 -1.265625q-0.609375 -0.359375 -0.859375 -0.640625q-0.25 -0.296875 -0.25 -0.65625q0 -0.421875 0.328125 -0.96875q0.34375 -0.546875 1.546875 -1.5625zm2.03125 -6.5625q-0.859375 0 -1.453125 0.6875q-0.578125 0.6875 -0.578125 2.125q0 1.84375 0.796875 2.859375q0.609375 0.78125 1.546875 0.78125q0.890625 0 1.453125 -0.671875q0.578125 -0.671875 0.578125 -2.09375q0 -1.859375 -0.796875 -2.921875q-0.609375 -0.765625 -1.546875 -0.765625zm-2.15625 10.484375q-0.546875 0.59375 -0.828125 1.109375q-0.28125 0.515625 -0.28125 0.953125q0 0.5625 0.6875 0.984375q1.171875 0.734375 3.375 0.734375q2.109375 0 3.109375 -0.75q1.015625 -0.75 1.015625 -1.59375q0 -0.609375 -0.609375 -0.859375q-0.609375 -0.265625 -2.40625 -0.3125q-2.640625 -0.0625 -4.0625 -0.265625zm11.0625 -6.6875q-0.015625 2.390625 1.15625 3.75q1.171875 1.359375 2.75 1.359375q1.0625 0 1.828125 -0.578125q0.78125 -0.59375 1.3125 -2.0l0.359375 0.234375q-0.234375 1.609375 -1.421875 2.9375q-1.1875 1.3125 -2.96875 1.3125q-1.9375 0 -3.3125 -1.5q-1.375 -1.515625 -1.375 -4.0625q0 -2.75 1.40625 -4.28125q1.421875 -1.546875 3.546875 -1.546875q1.8125 0 2.96875 1.1875q1.15625 1.1875 1.15625 3.1875l-7.40625 0zm0 -0.6875l4.96875 0q-0.0625 -1.03125 -0.25 -1.453125q-0.296875 -0.65625 -0.875 -1.03125q-0.578125 -0.375 -1.21875 -0.375q-0.96875 0 -1.734375 0.765625q-0.765625 0.75 -0.890625 2.09375zm25.089844 4.3125l-1.109375 3.0625l-9.375 0l0 -0.4375q4.140625 -3.765625 5.828125 -6.15625q1.6875 -2.390625 1.6875 -4.375q0 -1.515625 -0.9375 -2.484375q-0.921875 -0.96875 -2.203125 -0.96875q-1.171875 0 -2.109375 0.6875q-0.921875 0.671875 -1.375 2.0l-0.4375 0q0.296875 -2.171875 1.5 -3.328125q1.21875 -1.15625 3.046875 -1.15625q1.921875 0 3.21875 1.25q1.296875 1.234375 1.296875 2.921875q0 1.203125 -0.5625 2.40625q-0.859375 1.90625 -2.8125 4.03125q-2.921875 3.1875 -3.640625 3.84375l4.140625 0q1.265625 0 1.78125 -0.09375q0.515625 -0.09375 0.921875 -0.375q0.40625 -0.296875 0.71875 -0.828125l0.421875 0z" fill-rule="nonzero"></path><path fill="#000000" fill-opacity="0.0" d="m511.1286 71.249344l128.0 0l0 35.685036l-128.0 0z" fill-rule="evenodd"></path><path fill="#000000" d="m547.7243 95.851845l0 4.625q0 1.5 0.328125 1.859375q0.453125 0.515625 1.34375 0.515625l0.609375 0l0 0.4375l-6.796875 0l0 -0.4375l0.59375 0q1.0 0 1.4375 -0.65625q0.234375 -0.359375 0.234375 -1.71875l0 -10.265625q0 -1.5 -0.3125 -1.859375q-0.453125 -0.515625 -1.359375 -0.515625l-0.59375 0l0 -0.4375l5.8125 0q2.140625 0 3.359375 0.4375q1.234375 0.4375 2.078125 1.484375q0.84375 1.046875 0.84375 2.46875q0 1.953125 -1.28125 3.171875q-1.28125 1.21875 -3.625 1.21875q-0.578125 0 -1.25 -0.078125q-0.65625 -0.09375 -1.421875 -0.25zm0 -0.671875q0.625 0.109375 1.09375 0.171875q0.484375 0.0625 0.828125 0.0625q1.21875 0 2.09375 -0.9375q0.890625 -0.953125 0.890625 -2.453125q0 -1.03125 -0.421875 -1.90625q-0.421875 -0.890625 -1.203125 -1.328125q-0.765625 -0.4375 -1.75 -0.4375q-0.59375 0 -1.53125 0.21875l0 6.609375zm15.253906 6.5625q-1.640625 1.28125 -2.0625 1.46875q-0.640625 0.296875 -1.359375 0.296875q-1.109375 0 -1.828125 -0.75q-0.71875 -0.765625 -0.71875 -2.015625q0 -0.78125 0.34375 -1.359375q0.484375 -0.796875 1.671875 -1.5q1.1875 -0.703125 3.953125 -1.703125l0 -0.421875q0 -1.609375 -0.515625 -2.203125q-0.5 -0.609375 -1.46875 -0.609375q-0.734375 0 -1.171875 0.40625q-0.453125 0.390625 -0.453125 0.90625l0.03125 0.6875q0 0.53125 -0.28125 0.828125q-0.265625 0.296875 -0.71875 0.296875q-0.4375 0 -0.71875 -0.296875q-0.265625 -0.3125 -0.265625 -0.84375q0 -1.0 1.03125 -1.84375q1.03125 -0.84375 2.890625 -0.84375q1.4375 0 2.34375 0.46875q0.703125 0.375 1.03125 1.140625q0.203125 0.5 0.203125 2.0625l0 3.640625q0 1.546875 0.0625 1.890625q0.0625 0.34375 0.1875 0.46875q0.140625 0.109375 0.3125 0.109375q0.1875 0 0.328125 -0.078125q0.25 -0.15625 0.953125 -0.859375l0 0.65625q-1.3125 1.765625 -2.515625 1.765625q-0.5625 0 -0.90625 -0.40625q-0.34375 -0.40625 -0.359375 -1.359375zm0 -0.765625l0 -4.09375q-1.765625 0.703125 -2.28125 1.0q-0.921875 0.515625 -1.328125 1.078125q-0.390625 0.5625 -0.390625 1.234375q0 0.84375 0.5 1.40625q0.5 0.546875 1.15625 0.546875q0.890625 0 2.34375 -1.171875zm7.4492188 -1.609375q-0.984375 -0.46875 -1.515625 -1.328125q-0.53125 -0.875 -0.53125 -1.90625q0 -1.59375 1.203125 -2.734375q1.203125 -1.15625 3.078125 -1.15625q1.53125 0 2.65625 0.75l2.28125 0q0.5 0 0.578125 0.03125q0.09375 0.015625 0.125 0.09375q0.0625 0.109375 0.0625 0.375q0 0.296875 -0.046875 0.421875q-0.046875 0.0625 -0.140625 0.09375q-0.078125 0.03125 -0.578125 0.03125l-1.390625 0q0.65625 0.84375 0.65625 2.15625q0 1.5 -1.15625 2.578125q-1.140625 1.0625 -3.078125 1.0625q-0.796875 0 -1.625 -0.234375q-0.515625 0.4375 -0.703125 0.78125q-0.1875 0.328125 -0.1875 0.5625q0 0.203125 0.1875 0.390625q0.203125 0.1875 0.765625 0.265625q0.328125 0.046875 1.640625 0.078125q2.421875 0.0625 3.125 0.171875q1.09375 0.140625 1.734375 0.8125q0.65625 0.65625 0.65625 1.609375q0 1.328125 -1.234375 2.484375q-1.828125 1.71875 -4.765625 1.71875q-2.265625 0 -3.828125 -1.03125q-0.875 -0.578125 -0.875 -1.21875q0 -0.28125 0.125 -0.5625q0.203125 -0.421875 0.828125 -1.203125q0.078125 -0.109375 1.1875 -1.265625q-0.609375 -0.359375 -0.859375 -0.640625q-0.25 -0.296875 -0.25 -0.65625q0 -0.421875 0.328125 -0.96875q0.34375 -0.546875 1.546875 -1.5625zm2.03125 -6.5625q-0.859375 0 -1.453125 0.6875q-0.578125 0.6875 -0.578125 2.125q0 1.84375 0.796875 2.859375q0.609375 0.78125 1.546875 0.78125q0.890625 0 1.453125 -0.671875q0.578125 -0.671875 0.578125 -2.09375q0 -1.859375 -0.796875 -2.921875q-0.609375 -0.765625 -1.546875 -0.765625zm-2.15625 10.484375q-0.546875 0.59375 -0.828125 1.109375q-0.28125 0.515625 -0.28125 0.953125q0 0.5625 0.6875 0.984375q1.171875 0.734375 3.375 0.734375q2.109375 0 3.109375 -0.75q1.015625 -0.75 1.015625 -1.59375q0 -0.609375 -0.609375 -0.859375q-0.609375 -0.265625 -2.40625 -0.3125q-2.640625 -0.0625 -4.0625 -0.265625zm11.0625 -6.6875q-0.015625 2.390625 1.15625 3.75q1.171875 1.359375 2.75 1.359375q1.0625 0 1.828125 -0.578125q0.78125 -0.59375 1.3125 -2.0l0.359375 0.234375q-0.234375 1.609375 -1.421875 2.9375q-1.1875 1.3125 -2.96875 1.3125q-1.9375 0 -3.3125 -1.5q-1.375 -1.515625 -1.375 -4.0625q0 -2.75 1.40625 -4.28125q1.421875 -1.546875 3.546875 -1.546875q1.8125 0 2.96875 1.1875q1.15625 1.1875 1.15625 3.1875l-7.40625 0zm0 -0.6875l4.96875 0q-0.0625 -1.03125 -0.25 -1.453125q-0.296875 -0.65625 -0.875 -1.03125q-0.578125 -0.375 -1.21875 -0.375q-0.96875 0 -1.734375 0.765625q-0.765625 0.75 -0.890625 2.09375zm15.308594 -5.5q0.6875 -1.59375 1.71875 -2.46875q1.03125 -0.875 2.578125 -0.875q1.921875 0 2.9375 1.234375q0.765625 0.9375 0.765625 1.984375q0 1.734375 -2.171875 3.59375q1.46875 0.5625 2.21875 1.640625q0.75 1.0625 0.75 2.5q0 2.0625 -1.3125 3.578125q-1.71875 1.96875 -4.96875 1.96875q-1.59375 0 -2.1875 -0.390625q-0.578125 -0.40625 -0.578125 -0.859375q0 -0.34375 0.28125 -0.59375q0.28125 -0.265625 0.65625 -0.265625q0.296875 0 0.609375 0.09375q0.1875 0.0625 0.890625 0.4375q0.703125 0.359375 0.984375 0.421875q0.421875 0.140625 0.921875 0.140625q1.1875 0 2.078125 -0.921875q0.890625 -0.9375 0.890625 -2.203125q0 -0.921875 -0.421875 -1.796875q-0.296875 -0.65625 -0.65625 -1.0q-0.515625 -0.46875 -1.390625 -0.84375q-0.875 -0.390625 -1.796875 -0.390625l-0.375 0l0 -0.34375q0.9375 -0.125 1.859375 -0.671875q0.9375 -0.546875 1.359375 -1.3125q0.421875 -0.78125 0.421875 -1.71875q0 -1.203125 -0.765625 -1.9375q-0.75 -0.75 -1.875 -0.75q-1.8125 0 -3.03125 1.9375l-0.390625 -0.1875z" fill-rule="nonzero"></path></g></svg>

